G04 Layer_Physical_Order=1*
G04 Layer_Color=255*
%FSLAX25Y25*%
%MOIN*%
G70*
G01*
G75*
G04:AMPARAMS|DCode=10|XSize=23.62mil|YSize=45.28mil|CornerRadius=0mil|HoleSize=0mil|Usage=FLASHONLY|Rotation=45.000|XOffset=0mil|YOffset=0mil|HoleType=Round|Shape=Rectangle|*
%AMROTATEDRECTD10*
4,1,4,0.00766,-0.02436,-0.02436,0.00766,-0.00766,0.02436,0.02436,-0.00766,0.00766,-0.02436,0.0*
%
%ADD10ROTATEDRECTD10*%

%ADD11R,0.05906X0.07874*%
G04:AMPARAMS|DCode=12|XSize=39.37mil|YSize=43.31mil|CornerRadius=0mil|HoleSize=0mil|Usage=FLASHONLY|Rotation=135.000|XOffset=0mil|YOffset=0mil|HoleType=Round|Shape=Rectangle|*
%AMROTATEDRECTD12*
4,1,4,0.02923,0.00139,-0.00139,-0.02923,-0.02923,-0.00139,0.00139,0.02923,0.02923,0.00139,0.0*
%
%ADD12ROTATEDRECTD12*%

G04:AMPARAMS|DCode=13|XSize=196.85mil|YSize=78.74mil|CornerRadius=0mil|HoleSize=0mil|Usage=FLASHONLY|Rotation=225.000|XOffset=0mil|YOffset=0mil|HoleType=Round|Shape=Rectangle|*
%AMROTATEDRECTD13*
4,1,4,0.04176,0.09744,0.09744,0.04176,-0.04176,-0.09744,-0.09744,-0.04176,0.04176,0.09744,0.0*
%
%ADD13ROTATEDRECTD13*%

%ADD14R,0.03937X0.04331*%
%ADD15R,0.03150X0.04724*%
%ADD16R,0.04724X0.03150*%
%ADD17R,0.03937X0.01969*%
%ADD18R,0.03150X0.03150*%
%ADD19R,0.07087X0.07480*%
%ADD20R,0.09000X0.07480*%
G04:AMPARAMS|DCode=21|XSize=80.15mil|YSize=15.75mil|CornerRadius=0mil|HoleSize=0mil|Usage=FLASHONLY|Rotation=90.000|XOffset=0mil|YOffset=0mil|HoleType=Round|Shape=Octagon|*
%AMOCTAGOND21*
4,1,8,0.00394,0.04008,-0.00394,0.04008,-0.00787,0.03614,-0.00787,-0.03614,-0.00394,-0.04008,0.00394,-0.04008,0.00787,-0.03614,0.00787,0.03614,0.00394,0.04008,0.0*
%
%ADD21OCTAGOND21*%

%ADD22R,0.07874X0.05906*%
G04:AMPARAMS|DCode=23|XSize=11.81mil|YSize=82.68mil|CornerRadius=0mil|HoleSize=0mil|Usage=FLASHONLY|Rotation=315.000|XOffset=0mil|YOffset=0mil|HoleType=Round|Shape=Round|*
%AMOVALD23*
21,1,0.07087,0.01181,0.00000,0.00000,45.0*
1,1,0.01181,-0.02506,-0.02506*
1,1,0.01181,0.02506,0.02506*
%
%ADD23OVALD23*%

G04:AMPARAMS|DCode=24|XSize=11.81mil|YSize=82.68mil|CornerRadius=0mil|HoleSize=0mil|Usage=FLASHONLY|Rotation=45.000|XOffset=0mil|YOffset=0mil|HoleType=Round|Shape=Round|*
%AMOVALD24*
21,1,0.07087,0.01181,0.00000,0.00000,135.0*
1,1,0.01181,0.02506,-0.02506*
1,1,0.01181,-0.02506,0.02506*
%
%ADD24OVALD24*%

%ADD25R,0.03150X0.03150*%
G04:AMPARAMS|DCode=26|XSize=39.37mil|YSize=43.31mil|CornerRadius=0mil|HoleSize=0mil|Usage=FLASHONLY|Rotation=45.000|XOffset=0mil|YOffset=0mil|HoleType=Round|Shape=Rectangle|*
%AMROTATEDRECTD26*
4,1,4,0.00139,-0.02923,-0.02923,0.00139,-0.00139,0.02923,0.02923,-0.00139,0.00139,-0.02923,0.0*
%
%ADD26ROTATEDRECTD26*%

%ADD27R,0.04331X0.03937*%
%ADD28P,0.04454X4X360.0*%
%ADD29P,0.04454X4X270.0*%
G04:AMPARAMS|DCode=30|XSize=23.62mil|YSize=45.28mil|CornerRadius=0mil|HoleSize=0mil|Usage=FLASHONLY|Rotation=135.000|XOffset=0mil|YOffset=0mil|HoleType=Round|Shape=Rectangle|*
%AMROTATEDRECTD30*
4,1,4,0.02436,0.00766,-0.00766,-0.02436,-0.02436,-0.00766,0.00766,0.02436,0.02436,0.00766,0.0*
%
%ADD30ROTATEDRECTD30*%

%ADD31C,0.02000*%
%ADD32C,0.01000*%
%ADD33C,0.03000*%
%ADD34C,0.01500*%
%ADD35C,0.03937*%
%ADD36R,0.05906X0.05906*%
%ADD37C,0.05906*%
%ADD38R,0.05906X0.05906*%
%ADD39C,0.06000*%
%ADD40C,0.06000*%
%ADD41C,0.10000*%
%ADD42C,0.02000*%
%ADD43C,0.02500*%
%ADD44C,0.03500*%
%ADD45C,0.03000*%
G36*
X7662Y-25757D02*
X7628Y-25807D01*
X7598Y-25864D01*
X7572Y-25929D01*
X7550Y-26000D01*
X7532Y-26079D01*
X7518Y-26165D01*
X7508Y-26258D01*
X7500Y-26466D01*
X6500D01*
X6498Y-26358D01*
X6482Y-26165D01*
X6468Y-26079D01*
X6450Y-26000D01*
X6428Y-25929D01*
X6402Y-25864D01*
X6372Y-25807D01*
X6338Y-25757D01*
X6300Y-25714D01*
X7700D01*
X7662Y-25757D01*
D02*
G37*
G36*
X-86225Y-22520D02*
X-86388Y-22580D01*
X-86531Y-22680D01*
X-86656Y-22820D01*
X-86761Y-23000D01*
X-86847Y-23220D01*
X-86914Y-23480D01*
X-86962Y-23780D01*
X-86990Y-24120D01*
X-86996Y-24348D01*
X-86994Y-24471D01*
X-86949Y-25111D01*
X-86910Y-25371D01*
X-86859Y-25591D01*
X-86797Y-25771D01*
X-86724Y-25911D01*
X-86640Y-26011D01*
X-86544Y-26071D01*
X-86437Y-26091D01*
X-89563D01*
X-89456Y-26071D01*
X-89360Y-26011D01*
X-89276Y-25911D01*
X-89203Y-25771D01*
X-89141Y-25591D01*
X-89090Y-25371D01*
X-89051Y-25111D01*
X-89022Y-24811D01*
X-89006Y-24273D01*
X-89010Y-24120D01*
X-89038Y-23780D01*
X-89086Y-23480D01*
X-89153Y-23220D01*
X-89239Y-23000D01*
X-89344Y-22820D01*
X-89469Y-22680D01*
X-89612Y-22580D01*
X-89775Y-22520D01*
X-89956Y-22500D01*
X-86044D01*
X-86225Y-22520D01*
D02*
G37*
G36*
X29346Y-25844D02*
X29370Y-25879D01*
X29408Y-25926D01*
X29604Y-26143D01*
X30059Y-26608D01*
X29352Y-27316D01*
X28565Y-26593D01*
X29336Y-25822D01*
X29346Y-25844D01*
D02*
G37*
G36*
X27972Y-27328D02*
X28009Y-27443D01*
X28055Y-27558D01*
X28111Y-27673D01*
X28177Y-27789D01*
X28253Y-27906D01*
X28337Y-28023D01*
X28536Y-28258D01*
X28649Y-28376D01*
X27917Y-29057D01*
X27702Y-28839D01*
X27154Y-28212D01*
X27095Y-28117D01*
X27068Y-28047D01*
X27072Y-28001D01*
X27107Y-27981D01*
X27174Y-27985D01*
X27944Y-27214D01*
X27972Y-27328D01*
D02*
G37*
G36*
X-8565Y-26593D02*
X-8547Y-26597D01*
X-8552Y-26623D01*
X-8581Y-26671D01*
X-8634Y-26739D01*
X-8811Y-26941D01*
X-9450Y-27600D01*
X-10077Y-26812D01*
X-9947Y-26680D01*
X-9552Y-26225D01*
X-9484Y-26130D01*
X-9429Y-26042D01*
X-9386Y-25961D01*
X-9355Y-25888D01*
X-9336Y-25822D01*
X-8565Y-26593D01*
D02*
G37*
G36*
X30738Y-24452D02*
X30762Y-24487D01*
X30800Y-24534D01*
X30996Y-24751D01*
X31451Y-25216D01*
X30744Y-25924D01*
X29957Y-25201D01*
X30728Y-24430D01*
X30738Y-24452D01*
D02*
G37*
G36*
X-12696Y-11201D02*
X-12433Y-11595D01*
X-8031Y-15997D01*
X-7594Y-17000D01*
X-8031Y-18003D01*
X-12204Y-22176D01*
X-12446Y-22135D01*
X-13706Y-21000D01*
X-13881Y-20122D01*
X-14378Y-19378D01*
X-15122Y-18880D01*
X-15500Y-18805D01*
Y-21000D01*
X-16500D01*
Y-18805D01*
X-16878Y-18880D01*
X-17511Y-19303D01*
X-18121Y-19027D01*
X-18838Y-18523D01*
Y-16811D01*
X-22200D01*
Y-15811D01*
X-18838D01*
Y-14250D01*
X-18771Y-14236D01*
X-18407Y-13993D01*
X-15535Y-11122D01*
X-12776D01*
X-12696Y-11201D01*
D02*
G37*
G36*
X48510Y-20425D02*
X48540Y-20767D01*
X48590Y-21068D01*
X48660Y-21330D01*
X48750Y-21551D01*
X48860Y-21732D01*
X48990Y-21873D01*
X49140Y-21974D01*
X49310Y-22035D01*
X49500Y-22055D01*
X45500Y-22043D01*
X45690Y-22024D01*
X45860Y-21963D01*
X46010Y-21863D01*
X46140Y-21723D01*
X46250Y-21543D01*
X46340Y-21324D01*
X46410Y-21064D01*
X46460Y-20764D01*
X46490Y-20424D01*
X46500Y-20043D01*
X48500D01*
X48510Y-20425D01*
D02*
G37*
G36*
X15734Y-22000D02*
X15676Y-22003D01*
X15617Y-22015D01*
X15555Y-22034D01*
X15492Y-22061D01*
X15425Y-22096D01*
X15357Y-22139D01*
X15286Y-22190D01*
X15213Y-22249D01*
X15060Y-22390D01*
X14353Y-21683D01*
X14428Y-21606D01*
X14554Y-21457D01*
X14604Y-21387D01*
X14648Y-21318D01*
X14683Y-21252D01*
X14710Y-21188D01*
X14729Y-21126D01*
X14740Y-21067D01*
X14744Y-21010D01*
X15734Y-22000D01*
D02*
G37*
G36*
X-9957Y-25201D02*
X-9980Y-25211D01*
X-10014Y-25235D01*
X-10062Y-25272D01*
X-10279Y-25469D01*
X-10744Y-25923D01*
X-11451Y-25216D01*
X-10728Y-24430D01*
X-9957Y-25201D01*
D02*
G37*
G36*
X-11349Y-23809D02*
X-11372Y-23819D01*
X-11406Y-23843D01*
X-11453Y-23880D01*
X-11671Y-24077D01*
X-12136Y-24532D01*
X-12843Y-23824D01*
X-12120Y-23038D01*
X-11349Y-23809D01*
D02*
G37*
G36*
X7231Y-30220D02*
X6508Y-31006D01*
X5738Y-30235D01*
X5760Y-30225D01*
X5794Y-30201D01*
X5842Y-30163D01*
X6059Y-29967D01*
X6524Y-29512D01*
X7231Y-30220D01*
D02*
G37*
G36*
X26562Y-28628D02*
X26586Y-28663D01*
X26624Y-28710D01*
X26820Y-28927D01*
X27275Y-29392D01*
X26568Y-30099D01*
X25782Y-29377D01*
X26552Y-28606D01*
X26562Y-28628D01*
D02*
G37*
G36*
X8623Y-31611D02*
X7900Y-32398D01*
X7130Y-31627D01*
X7152Y-31617D01*
X7186Y-31593D01*
X7234Y-31556D01*
X7451Y-31359D01*
X7916Y-30904D01*
X8623Y-31611D01*
D02*
G37*
G36*
X-83350Y-35590D02*
X-83370Y-35544D01*
X-83430Y-35503D01*
X-83530Y-35466D01*
X-83670Y-35434D01*
X-83850Y-35407D01*
X-84330Y-35368D01*
X-84881Y-35357D01*
X-85457Y-35397D01*
X-85717Y-35436D01*
X-85937Y-35487D01*
X-86117Y-35549D01*
X-86257Y-35622D01*
X-86357Y-35707D01*
X-86417Y-35802D01*
X-86437Y-35909D01*
Y-32784D01*
X-86417Y-32891D01*
X-86357Y-32986D01*
X-86257Y-33071D01*
X-86117Y-33144D01*
X-85937Y-33206D01*
X-85717Y-33256D01*
X-85457Y-33296D01*
X-85157Y-33324D01*
X-84898Y-33332D01*
X-84630Y-33311D01*
X-84330Y-33267D01*
X-84070Y-33205D01*
X-83850Y-33126D01*
X-83670Y-33029D01*
X-83530Y-32914D01*
X-83430Y-32782D01*
X-83370Y-32632D01*
X-83350Y-32465D01*
Y-35590D01*
D02*
G37*
G36*
X-19342Y-31878D02*
X-19843Y-32443D01*
X-19850Y-32465D01*
X-22051Y-32477D01*
X-21912Y-32469D01*
X-21771Y-32447D01*
X-21631Y-32410D01*
X-21490Y-32360D01*
X-21348Y-32295D01*
X-21207Y-32216D01*
X-21065Y-32123D01*
X-20923Y-32015D01*
X-20780Y-31894D01*
X-20637Y-31758D01*
X-19223D01*
X-19342Y-31878D01*
D02*
G37*
G36*
X5839Y-28828D02*
X5116Y-29614D01*
X4346Y-28843D01*
X4368Y-28833D01*
X4403Y-28809D01*
X4450Y-28772D01*
X4667Y-28576D01*
X5132Y-28120D01*
X5839Y-28828D01*
D02*
G37*
G36*
X-7174Y-27984D02*
X-7205Y-27997D01*
X-7248Y-28022D01*
X-7303Y-28061D01*
X-7448Y-28181D01*
X-7751Y-28462D01*
X-8010Y-28717D01*
X-8657Y-27950D01*
X-7944Y-27214D01*
X-7174Y-27984D01*
D02*
G37*
G36*
X-12137Y-27317D02*
X-12212Y-27394D01*
X-12337Y-27543D01*
X-12388Y-27613D01*
X-12431Y-27682D01*
X-12466Y-27748D01*
X-12494Y-27812D01*
X-12513Y-27874D01*
X-12524Y-27933D01*
X-12528Y-27990D01*
X-13518Y-27000D01*
X-13460Y-26997D01*
X-13401Y-26985D01*
X-13339Y-26966D01*
X-13275Y-26939D01*
X-13209Y-26904D01*
X-13141Y-26861D01*
X-13070Y-26810D01*
X-12997Y-26751D01*
X-12844Y-26610D01*
X-12137Y-27317D01*
D02*
G37*
G36*
X-24538Y-29122D02*
X-24548Y-29027D01*
X-24579Y-28942D01*
X-24629Y-28867D01*
X-24700Y-28802D01*
X-24791Y-28747D01*
X-24903Y-28702D01*
X-25034Y-28667D01*
X-25186Y-28642D01*
X-25358Y-28627D01*
X-25550Y-28622D01*
Y-27622D01*
X-25358Y-27617D01*
X-25186Y-27602D01*
X-25034Y-27577D01*
X-24903Y-27542D01*
X-24791Y-27497D01*
X-24700Y-27442D01*
X-24629Y-27377D01*
X-24579Y-27302D01*
X-24548Y-27217D01*
X-24538Y-27122D01*
Y-29122D01*
D02*
G37*
G36*
X49463Y-25965D02*
X49294Y-26025D01*
X49143Y-26126D01*
X49014Y-26266D01*
X48904Y-26447D01*
X48814Y-26669D01*
X48744Y-26930D01*
X48693Y-27232D01*
X48663Y-27574D01*
X48659Y-27753D01*
X48662Y-27880D01*
X48726Y-28520D01*
X48782Y-28780D01*
X48854Y-29000D01*
X48943Y-29180D01*
X49047Y-29320D01*
X49167Y-29420D01*
X49304Y-29480D01*
X49457Y-29500D01*
X45654D01*
X45843Y-29480D01*
X46014Y-29420D01*
X46163Y-29320D01*
X46294Y-29180D01*
X46404Y-29000D01*
X46494Y-28780D01*
X46564Y-28520D01*
X46613Y-28220D01*
X46643Y-27880D01*
X46648Y-27728D01*
X46643Y-27574D01*
X46613Y-27232D01*
X46564Y-26930D01*
X46494Y-26669D01*
X46404Y-26447D01*
X46294Y-26266D01*
X46163Y-26126D01*
X46014Y-26025D01*
X45843Y-25965D01*
X45654Y-25945D01*
X49654D01*
X49463Y-25965D01*
D02*
G37*
G36*
X-56498Y-28642D02*
X-56482Y-28835D01*
X-56468Y-28921D01*
X-56450Y-29000D01*
X-56428Y-29072D01*
X-56402Y-29136D01*
X-56372Y-29193D01*
X-56338Y-29243D01*
X-56300Y-29286D01*
X-57700D01*
X-57662Y-29243D01*
X-57628Y-29193D01*
X-57598Y-29136D01*
X-57572Y-29072D01*
X-57550Y-29000D01*
X-57532Y-28921D01*
X-57518Y-28835D01*
X-57508Y-28742D01*
X-57500Y-28534D01*
X-56500D01*
X-56498Y-28642D01*
D02*
G37*
G36*
X2122Y-9803D02*
X2197Y-9868D01*
X2270Y-9923D01*
X2341Y-9969D01*
X2409Y-10005D01*
X2475Y-10031D01*
X2538Y-10048D01*
X2599Y-10056D01*
X2657Y-10054D01*
X2713Y-10042D01*
X2036Y-11268D01*
X2023Y-11229D01*
X2002Y-11186D01*
X1974Y-11138D01*
X1939Y-11086D01*
X1848Y-10968D01*
X1729Y-10833D01*
X1581Y-10680D01*
X2044Y-9729D01*
X2122Y-9803D01*
D02*
G37*
G36*
X-14749Y-3581D02*
X-14759Y-4063D01*
X-15113Y-5338D01*
X-15442Y-5558D01*
X-15884Y-6220D01*
X-15940Y-6500D01*
X-14000D01*
Y-7500D01*
X-15967D01*
X-15968Y-7549D01*
X-16220Y-8321D01*
X-16753Y-9180D01*
X-16793Y-9207D01*
X-16793Y-9207D01*
X-17852Y-10266D01*
X-19238Y-9692D01*
Y-8231D01*
X-19238Y-8231D01*
X-18838Y-7075D01*
X-18838Y-7075D01*
X-18838Y-6896D01*
Y-5000D01*
X-22200D01*
Y-4000D01*
X-18838D01*
Y-1925D01*
X-22256D01*
Y1967D01*
X-20871Y2541D01*
X-14749Y-3581D01*
D02*
G37*
G36*
X-86990Y-9880D02*
X-86962Y-10220D01*
X-86914Y-10520D01*
X-86847Y-10780D01*
X-86761Y-11000D01*
X-86656Y-11180D01*
X-86531Y-11320D01*
X-86388Y-11420D01*
X-86225Y-11480D01*
X-86044Y-11500D01*
X-89956D01*
X-89775Y-11480D01*
X-89612Y-11420D01*
X-89469Y-11320D01*
X-89344Y-11180D01*
X-89239Y-11000D01*
X-89153Y-10780D01*
X-89086Y-10520D01*
X-89038Y-10220D01*
X-89010Y-9880D01*
X-89000Y-9500D01*
X-87000D01*
X-86990Y-9880D01*
D02*
G37*
G36*
X46793Y-11708D02*
X46734Y-11668D01*
X46641Y-11633D01*
X46512Y-11602D01*
X46348Y-11575D01*
X45916Y-11533D01*
X45007Y-11502D01*
X44634Y-11500D01*
Y-10500D01*
X45007Y-10498D01*
X46512Y-10398D01*
X46641Y-10367D01*
X46734Y-10332D01*
X46793Y-10292D01*
Y-11708D01*
D02*
G37*
G36*
X37757Y-10338D02*
X37807Y-10372D01*
X37864Y-10402D01*
X37929Y-10428D01*
X38000Y-10450D01*
X38079Y-10468D01*
X38165Y-10482D01*
X38258Y-10492D01*
X38466Y-10500D01*
Y-11500D01*
X38358Y-11502D01*
X38165Y-11518D01*
X38079Y-11532D01*
X38000Y-11550D01*
X37929Y-11572D01*
X37864Y-11598D01*
X37807Y-11628D01*
X37757Y-11662D01*
X37714Y-11700D01*
Y-10300D01*
X37757Y-10338D01*
D02*
G37*
G36*
X951Y-8584D02*
X974Y-8619D01*
X1012Y-8666D01*
X1208Y-8883D01*
X1664Y-9348D01*
X956Y-10055D01*
X170Y-9332D01*
X941Y-8562D01*
X951Y-8584D01*
D02*
G37*
G36*
X-86035Y-2690D02*
X-85974Y-2860D01*
X-85873Y-3010D01*
X-85732Y-3140D01*
X-85551Y-3250D01*
X-85330Y-3340D01*
X-85068Y-3410D01*
X-84767Y-3460D01*
X-84640Y-3471D01*
X-84330Y-3449D01*
X-84070Y-3410D01*
X-83850Y-3359D01*
X-83670Y-3297D01*
X-83530Y-3224D01*
X-83430Y-3140D01*
X-83370Y-3044D01*
X-83350Y-2937D01*
Y-6063D01*
X-83370Y-5956D01*
X-83430Y-5860D01*
X-83530Y-5776D01*
X-83670Y-5703D01*
X-83850Y-5641D01*
X-84070Y-5590D01*
X-84330Y-5551D01*
X-84599Y-5525D01*
X-84763Y-5540D01*
X-85063Y-5590D01*
X-85324Y-5660D01*
X-85544Y-5750D01*
X-85724Y-5860D01*
X-85864Y-5990D01*
X-85963Y-6140D01*
X-86023Y-6310D01*
X-86044Y-6500D01*
X-86225Y-6520D01*
X-86388Y-6580D01*
X-86531Y-6680D01*
X-86656Y-6820D01*
X-86761Y-7000D01*
X-86847Y-7220D01*
X-86914Y-7480D01*
X-86962Y-7780D01*
X-86990Y-8120D01*
X-87000Y-8500D01*
X-89000D01*
X-89010Y-8120D01*
X-89038Y-7780D01*
X-89086Y-7480D01*
X-89153Y-7220D01*
X-89239Y-7000D01*
X-89344Y-6820D01*
X-89469Y-6680D01*
X-89612Y-6580D01*
X-89775Y-6520D01*
X-89956Y-6500D01*
X-89977Y-6310D01*
X-90036Y-6140D01*
X-90136Y-5990D01*
X-90276Y-5860D01*
X-90456Y-5750D01*
X-90676Y-5660D01*
X-90936Y-5590D01*
X-91000Y-5579D01*
X-91063Y-5590D01*
X-91324Y-5660D01*
X-91544Y-5750D01*
X-91724Y-5860D01*
X-91864Y-5990D01*
X-91963Y-6140D01*
X-92023Y-6310D01*
X-92044Y-6500D01*
X-92055Y-2500D01*
X-92035Y-2690D01*
X-91974Y-2860D01*
X-91873Y-3010D01*
X-91732Y-3140D01*
X-91551Y-3250D01*
X-91330Y-3340D01*
X-91068Y-3410D01*
X-91000Y-3421D01*
X-90932Y-3410D01*
X-90670Y-3340D01*
X-90449Y-3250D01*
X-90268Y-3140D01*
X-90127Y-3010D01*
X-90026Y-2860D01*
X-89965Y-2690D01*
X-89944Y-2500D01*
X-89956Y-6500D01*
X-86044D01*
X-86055Y-2500D01*
X-86035Y-2690D01*
D02*
G37*
G36*
X-24550Y-6063D02*
X-24570Y-5956D01*
X-24630Y-5860D01*
X-24730Y-5776D01*
X-24870Y-5703D01*
X-25050Y-5641D01*
X-25270Y-5590D01*
X-25530Y-5551D01*
X-25830Y-5522D01*
X-26550Y-5500D01*
Y-3500D01*
X-26170Y-3494D01*
X-25530Y-3449D01*
X-25270Y-3410D01*
X-25050Y-3359D01*
X-24870Y-3297D01*
X-24730Y-3224D01*
X-24630Y-3140D01*
X-24570Y-3044D01*
X-24550Y-2937D01*
Y-6063D01*
D02*
G37*
G36*
X19680Y-3852D02*
X16098Y-7434D01*
X16200Y-7502D01*
X16820Y-7625D01*
X17079Y-7798D01*
X17091Y-7860D01*
X17354Y-8254D01*
X17748Y-8517D01*
X18391Y-8788D01*
X18391Y-8788D01*
X18483Y-9252D01*
X18746Y-9646D01*
X19140Y-9909D01*
X19140Y-9909D01*
X19288Y-9939D01*
X19604Y-10001D01*
X19782Y-10180D01*
X19875Y-10644D01*
X20138Y-11038D01*
X20532Y-11301D01*
X21174Y-11571D01*
X21174Y-11571D01*
X21267Y-12036D01*
X21530Y-12430D01*
X21924Y-12693D01*
X21924Y-12693D01*
X22072Y-12722D01*
X22388Y-12785D01*
X22566Y-12963D01*
X22659Y-13428D01*
X22922Y-13822D01*
X23189Y-14001D01*
X23284Y-14757D01*
X23227Y-15530D01*
X22906Y-15807D01*
X22847Y-15846D01*
X22493Y-16376D01*
X22369Y-17000D01*
X22493Y-17624D01*
X22847Y-18154D01*
X23234Y-18561D01*
X23284Y-19243D01*
X23189Y-19999D01*
X22922Y-20178D01*
X22659Y-20572D01*
X22566Y-21037D01*
X22566Y-21037D01*
X21924Y-21307D01*
X21530Y-21570D01*
X21267Y-21964D01*
X21174Y-22429D01*
X20996Y-22607D01*
X20532Y-22699D01*
X20532Y-22699D01*
X20138Y-22962D01*
X19875Y-23356D01*
X19782Y-23821D01*
X19782Y-23821D01*
X19140Y-24091D01*
X19140Y-24091D01*
X19140Y-24091D01*
X18746Y-24354D01*
X18483Y-24748D01*
X18391Y-25212D01*
X18391Y-25212D01*
X17748Y-25483D01*
X17354Y-25746D01*
X17091Y-26140D01*
X16999Y-26604D01*
X16820Y-26783D01*
X16356Y-26875D01*
X16356Y-26875D01*
X15962Y-27138D01*
X15699Y-27532D01*
X15607Y-27996D01*
X15607Y-27996D01*
X14964Y-28267D01*
X14964Y-28267D01*
X14964Y-28267D01*
X14570Y-28530D01*
X14307Y-28924D01*
X14215Y-29388D01*
X14215Y-29388D01*
X13572Y-29659D01*
X13572Y-29659D01*
X13572Y-29659D01*
X13178Y-29922D01*
X12915Y-30316D01*
X12823Y-30780D01*
X12823Y-30780D01*
X12180Y-31051D01*
X12180Y-31051D01*
X12180Y-31051D01*
X11786Y-31314D01*
X11523Y-31708D01*
X11431Y-32172D01*
X11431Y-32172D01*
X10788Y-32443D01*
X10394Y-32706D01*
X9866Y-32706D01*
X8970Y-32137D01*
X8854Y-31552D01*
X8502Y-31025D01*
X8866Y-29464D01*
X15440Y-22889D01*
X15502Y-22867D01*
X15638Y-22740D01*
X15680Y-22707D01*
X15720Y-22678D01*
X15751Y-22659D01*
X15770Y-22648D01*
X15772Y-22648D01*
X15779Y-22645D01*
X15798Y-22641D01*
X15806Y-22636D01*
X15811Y-22635D01*
X15819Y-22627D01*
X15831Y-22620D01*
X15851Y-22610D01*
X16368Y-22507D01*
X16897Y-22153D01*
X17251Y-21624D01*
X17375Y-21000D01*
X17251Y-20376D01*
X16897Y-19847D01*
X16368Y-19493D01*
X15744Y-19369D01*
X15119Y-19493D01*
X14590Y-19847D01*
X14236Y-20376D01*
X14134Y-20893D01*
X14124Y-20913D01*
X14116Y-20924D01*
X14109Y-20933D01*
X14108Y-20938D01*
X14102Y-20946D01*
X14099Y-20965D01*
X14095Y-20971D01*
X14095Y-20973D01*
X14085Y-20993D01*
X14065Y-21024D01*
X14041Y-21057D01*
X13946Y-21170D01*
X13886Y-21233D01*
X13860Y-21297D01*
X10063Y-25094D01*
X9879Y-25082D01*
X8533Y-24504D01*
X8507Y-24376D01*
X8153Y-23846D01*
X7624Y-23493D01*
X7000Y-23369D01*
X6376Y-23493D01*
X5847Y-23846D01*
X5493Y-24376D01*
X5369Y-25000D01*
X5493Y-25624D01*
X5263Y-26016D01*
X3388Y-26506D01*
X2926Y-26223D01*
X2909Y-26140D01*
X2646Y-25746D01*
X2252Y-25483D01*
X2252Y-25483D01*
X2252Y-25483D01*
X1609Y-25212D01*
X1609Y-25212D01*
X1517Y-24748D01*
X1254Y-24354D01*
X860Y-24091D01*
X860Y-24091D01*
X860Y-24091D01*
X218Y-23821D01*
X218Y-23821D01*
X125Y-23356D01*
X-138Y-22962D01*
X-532Y-22699D01*
X-532Y-22699D01*
X-680Y-22670D01*
X-996Y-22607D01*
X-1174Y-22429D01*
X-1267Y-21964D01*
X-1530Y-21570D01*
X-1924Y-21307D01*
X-2566Y-21037D01*
X-2566Y-21037D01*
X-2659Y-20572D01*
X-2922Y-20178D01*
X-3072Y-19558D01*
X-2376Y-18035D01*
X-1846Y-17681D01*
X-1493Y-17152D01*
X-30Y-16438D01*
X63Y-16432D01*
X478Y-16617D01*
X529Y-16678D01*
X847Y-17154D01*
X1376Y-17507D01*
X2000Y-17631D01*
X2624Y-17507D01*
X3153Y-17154D01*
X3507Y-16624D01*
X3610Y-16107D01*
X3620Y-16087D01*
X3627Y-16076D01*
X3635Y-16067D01*
X3636Y-16062D01*
X3641Y-16054D01*
X3645Y-16035D01*
X3648Y-16029D01*
X3648Y-16027D01*
X3659Y-16007D01*
X3678Y-15976D01*
X3702Y-15943D01*
X3797Y-15830D01*
X3858Y-15767D01*
X3883Y-15703D01*
X10793Y-8793D01*
X10793Y-8793D01*
X11036Y-8429D01*
X11122Y-8000D01*
Y-4527D01*
X11317Y-4266D01*
X11543Y-4124D01*
X12915Y-3684D01*
X13178Y-4078D01*
X13572Y-4341D01*
X14215Y-4612D01*
X14215Y-4612D01*
X14307Y-5076D01*
X14570Y-5470D01*
X14964Y-5733D01*
X14964Y-5733D01*
X15026Y-5746D01*
X15199Y-6004D01*
X15322Y-6624D01*
X15391Y-6726D01*
X18972Y-3145D01*
X19680Y-3852D01*
D02*
G37*
G36*
X-8565Y-7407D02*
X-9336Y-8178D01*
X-9346Y-8156D01*
X-9370Y-8121D01*
X-9408Y-8074D01*
X-9604Y-7857D01*
X-10059Y-7392D01*
X-9352Y-6684D01*
X-8565Y-7407D01*
D02*
G37*
G36*
X-5807Y-1387D02*
X-5628Y-2209D01*
X-6628Y-3670D01*
X-6730Y-3739D01*
X-6568Y-3901D01*
D01*
X-5782Y-4623D01*
X-5813Y-4655D01*
X-3148Y-7320D01*
X-3855Y-8027D01*
X-6521Y-5362D01*
X-6552Y-5394D01*
X-6562Y-5372D01*
X-6586Y-5337D01*
X-6624Y-5290D01*
X-6820Y-5073D01*
X-7275Y-4608D01*
D01*
X-7437Y-4446D01*
X-7506Y-4548D01*
X-8967Y-5548D01*
X-9789Y-5368D01*
X-15735Y578D01*
X-15000Y1961D01*
X-14220Y2116D01*
X-13558Y2558D01*
X-13116Y3220D01*
X-13020Y3704D01*
X-12163Y4161D01*
X-11490Y4296D01*
X-5807Y-1387D01*
D02*
G37*
G36*
X49310Y-13961D02*
X49140Y-14021D01*
X48990Y-14121D01*
X48860Y-14261D01*
X48750Y-14441D01*
X48660Y-14661D01*
X48590Y-14921D01*
X48540Y-15221D01*
X48510Y-15561D01*
X48500Y-15941D01*
X46500D01*
X46490Y-15561D01*
X46460Y-15221D01*
X46410Y-14921D01*
X46340Y-14661D01*
X46250Y-14441D01*
X46140Y-14261D01*
X46010Y-14121D01*
X45860Y-14021D01*
X45690Y-13961D01*
X45500Y-13941D01*
X49500D01*
X49310Y-13961D01*
D02*
G37*
G36*
X-87325Y-15795D02*
X-87471Y-15674D01*
X-87647Y-15612D01*
X-87853Y-15608D01*
X-88090Y-15663D01*
X-88358Y-15776D01*
X-88656Y-15948D01*
X-88985Y-16179D01*
X-89344Y-16468D01*
X-90153Y-17221D01*
X-91371Y-15610D01*
X-90982Y-15208D01*
X-90369Y-14483D01*
X-90145Y-14160D01*
X-89975Y-13864D01*
X-89860Y-13594D01*
X-89799Y-13351D01*
X-89793Y-13135D01*
X-89841Y-12945D01*
X-89944Y-12782D01*
X-87325Y-15795D01*
D02*
G37*
G36*
X1427Y-14676D02*
X1575Y-14803D01*
X1645Y-14854D01*
X1713Y-14898D01*
X1779Y-14934D01*
X1842Y-14962D01*
X1903Y-14983D01*
X1962Y-14995D01*
X2014Y-15000D01*
X2067Y-14997D01*
X2127Y-14985D01*
X2188Y-14966D01*
X2252Y-14939D01*
X2318Y-14904D01*
X2387Y-14861D01*
X2457Y-14810D01*
X2530Y-14751D01*
X2683Y-14610D01*
X3390Y-15317D01*
X3316Y-15394D01*
X3190Y-15543D01*
X3139Y-15613D01*
X3096Y-15682D01*
X3061Y-15748D01*
X3034Y-15812D01*
X3015Y-15874D01*
X3003Y-15933D01*
X3000Y-15990D01*
X2014Y-15004D01*
X1001Y-15961D01*
X999Y-15904D01*
X989Y-15844D01*
X971Y-15782D01*
X945Y-15718D01*
X911Y-15651D01*
X869Y-15582D01*
X818Y-15511D01*
X760Y-15438D01*
X619Y-15286D01*
X1349Y-14602D01*
X1427Y-14676D01*
D02*
G37*
G36*
X26790Y-16292D02*
X26768Y-16302D01*
X26733Y-16326D01*
X26686Y-16364D01*
X26469Y-16560D01*
X26003Y-17015D01*
X25296Y-16308D01*
X26019Y-15521D01*
X26790Y-16292D01*
D02*
G37*
G36*
X-3606Y-15212D02*
X-3457Y-15337D01*
X-3387Y-15388D01*
X-3318Y-15431D01*
X-3252Y-15466D01*
X-3188Y-15494D01*
X-3127Y-15513D01*
X-3067Y-15524D01*
X-3010Y-15528D01*
X-4000Y-16518D01*
X-4003Y-16460D01*
X-4015Y-16401D01*
X-4034Y-16339D01*
X-4061Y-16275D01*
X-4096Y-16209D01*
X-4139Y-16141D01*
X-4190Y-16070D01*
X-4249Y-15997D01*
X-4390Y-15844D01*
X-3683Y-15137D01*
X-3606Y-15212D01*
D02*
G37*
G36*
X-4617Y-14152D02*
X-4593Y-14187D01*
X-4555Y-14234D01*
X-4359Y-14451D01*
X-3904Y-14916D01*
X-4611Y-15623D01*
X-5398Y-14900D01*
X-4627Y-14130D01*
X-4617Y-14152D01*
D02*
G37*
G36*
X42558Y-12149D02*
X42731Y-12154D01*
X42858Y-12165D01*
X42954Y-12181D01*
X42963Y-12183D01*
Y-14553D01*
X45370D01*
X45432Y-14587D01*
X45546Y-14599D01*
X45567Y-14606D01*
X45586Y-14619D01*
X45620Y-14655D01*
X45669Y-14735D01*
X45724Y-14869D01*
X45775Y-15059D01*
X45815Y-15303D01*
X45841Y-15598D01*
X45851Y-15958D01*
X45869Y-15998D01*
Y-19986D01*
X45851Y-20026D01*
X45841Y-20386D01*
X45815Y-20682D01*
X45775Y-20925D01*
X45724Y-21115D01*
X45669Y-21249D01*
X45620Y-21329D01*
X45586Y-21366D01*
X45567Y-21378D01*
X45546Y-21386D01*
X45432Y-21398D01*
X45432Y-21398D01*
X45370Y-21431D01*
X44888D01*
X44851Y-22042D01*
X44857Y-22057D01*
X44854Y-22111D01*
X44888Y-22174D01*
Y-26568D01*
X45150D01*
X45918Y-27727D01*
X45154Y-28888D01*
X44932D01*
Y-33847D01*
X44532Y-35181D01*
X44532Y-35753D01*
Y-37846D01*
X50468D01*
Y-35753D01*
X50468Y-35181D01*
X50068Y-33847D01*
Y-29640D01*
X50100Y-29585D01*
X50098Y-29521D01*
X50106Y-29500D01*
X50068Y-28888D01*
X49472Y-27880D01*
X49441Y-27803D01*
X50236Y-26568D01*
X51581D01*
X51919Y-26568D01*
X54608D01*
X55369Y-27329D01*
Y-58387D01*
X55351Y-58425D01*
X55341Y-58675D01*
X55316Y-58891D01*
X55273Y-59099D01*
X55214Y-59301D01*
X55138Y-59498D01*
X55044Y-59690D01*
X54932Y-59879D01*
X54801Y-60064D01*
X54650Y-60247D01*
X54463Y-60443D01*
X54457Y-60457D01*
X54443Y-60463D01*
X54247Y-60650D01*
X54064Y-60801D01*
X53879Y-60932D01*
X53690Y-61044D01*
X53498Y-61138D01*
X53301Y-61214D01*
X53099Y-61273D01*
X52891Y-61316D01*
X52675Y-61341D01*
X52425Y-61351D01*
X52387Y-61369D01*
X26676D01*
X24153Y-58846D01*
X23817Y-58622D01*
X23825Y-57869D01*
X24066Y-57122D01*
X33449D01*
X33509Y-57149D01*
X33695Y-57156D01*
X33748Y-57162D01*
X33796Y-57170D01*
X33832Y-57178D01*
X33853Y-57184D01*
X33855Y-57186D01*
X33862Y-57188D01*
X33878Y-57199D01*
X33887Y-57201D01*
X33891Y-57203D01*
X33902Y-57204D01*
X33916Y-57207D01*
X33937Y-57214D01*
X34376Y-57507D01*
X35000Y-57631D01*
X35624Y-57507D01*
X36154Y-57153D01*
X36507Y-56624D01*
X36631Y-56000D01*
X36507Y-55376D01*
X36154Y-54847D01*
X35624Y-54493D01*
X35000Y-54369D01*
X34376Y-54493D01*
X33937Y-54786D01*
X33916Y-54793D01*
X33902Y-54796D01*
X33891Y-54797D01*
X33887Y-54799D01*
X33878Y-54801D01*
X33862Y-54812D01*
X33855Y-54814D01*
X33853Y-54816D01*
X33832Y-54822D01*
X33797Y-54830D01*
X33756Y-54837D01*
X33609Y-54849D01*
X33522Y-54851D01*
X33458Y-54878D01*
X31614D01*
X31466Y-53378D01*
X31824Y-53307D01*
X32353Y-52953D01*
X32707Y-52424D01*
X32831Y-51800D01*
X32707Y-51176D01*
X32414Y-50737D01*
X32407Y-50716D01*
X32404Y-50703D01*
X32403Y-50691D01*
X32401Y-50687D01*
X32399Y-50678D01*
X32388Y-50662D01*
X32386Y-50655D01*
X32384Y-50653D01*
X32378Y-50632D01*
X32370Y-50596D01*
X32363Y-50556D01*
X32351Y-50409D01*
X32349Y-50322D01*
X32322Y-50258D01*
Y-28457D01*
X32322Y-28456D01*
X32236Y-28027D01*
X31993Y-27663D01*
X31993Y-27663D01*
X31693Y-27364D01*
X31330Y-25802D01*
X31681Y-25276D01*
X31805Y-24656D01*
X31977Y-24398D01*
X32040Y-24385D01*
X32040Y-24385D01*
X32433Y-24122D01*
X32697Y-23728D01*
X32789Y-23264D01*
X32789Y-23264D01*
X32759Y-23115D01*
X32697Y-22799D01*
X32433Y-22405D01*
X28053Y-18025D01*
X28041Y-18010D01*
X27993Y-17949D01*
X27592Y-17005D01*
X28031Y-15997D01*
X31176Y-12852D01*
X32423Y-13726D01*
X32369Y-14000D01*
X32493Y-14624D01*
X32847Y-15154D01*
X33376Y-15507D01*
X34000Y-15631D01*
X34624Y-15507D01*
X35153Y-15154D01*
X35507Y-14624D01*
X35631Y-14000D01*
X35584Y-13763D01*
X35862Y-13322D01*
X36322Y-12862D01*
X36763Y-12584D01*
X37000Y-12631D01*
X37624Y-12507D01*
X38063Y-12214D01*
X38084Y-12207D01*
X38098Y-12204D01*
X38109Y-12203D01*
X38113Y-12201D01*
X38122Y-12199D01*
X38138Y-12188D01*
X38145Y-12186D01*
X38147Y-12184D01*
X38168Y-12178D01*
X38203Y-12170D01*
X38244Y-12163D01*
X38391Y-12151D01*
X38478Y-12149D01*
X38542Y-12122D01*
X42496D01*
X42558Y-12149D01*
D02*
G37*
G36*
X43587Y-12000D02*
X43577Y-11905D01*
X43547Y-11820D01*
X43496Y-11745D01*
X43425Y-11680D01*
X43334Y-11625D01*
X43223Y-11580D01*
X43091Y-11545D01*
X42939Y-11520D01*
X42767Y-11505D01*
X42575Y-11500D01*
Y-10500D01*
X42767Y-10495D01*
X42939Y-10480D01*
X43091Y-10455D01*
X43223Y-10420D01*
X43334Y-10375D01*
X43425Y-10320D01*
X43496Y-10255D01*
X43547Y-10180D01*
X43577Y-10095D01*
X43587Y-10000D01*
Y-12000D01*
D02*
G37*
G36*
X-1833Y-11368D02*
X-1809Y-11402D01*
X-1772Y-11450D01*
X-1575Y-11667D01*
X-1120Y-12132D01*
X-1828Y-12839D01*
X-2614Y-12116D01*
X-1843Y-11346D01*
X-1833Y-11368D01*
D02*
G37*
G36*
X-45010Y-13000D02*
X-45067Y-13003D01*
X-45127Y-13015D01*
X-45188Y-13034D01*
X-45252Y-13061D01*
X-45318Y-13096D01*
X-45387Y-13139D01*
X-45457Y-13190D01*
X-45530Y-13249D01*
X-45683Y-13390D01*
X-46390Y-12683D01*
X-46316Y-12606D01*
X-46190Y-12457D01*
X-46139Y-12387D01*
X-46096Y-12318D01*
X-46061Y-12252D01*
X-46034Y-12188D01*
X-46015Y-12127D01*
X-46003Y-12067D01*
X-46000Y-12010D01*
X-45010Y-13000D01*
D02*
G37*
G36*
X34402Y-12591D02*
X34420Y-12783D01*
X34436Y-12868D01*
X34456Y-12945D01*
X34481Y-13015D01*
X34510Y-13078D01*
X34544Y-13132D01*
X34582Y-13180D01*
X34625Y-13219D01*
X33232Y-13359D01*
X33264Y-13316D01*
X33292Y-13265D01*
X33318Y-13206D01*
X33340Y-13141D01*
X33358Y-13069D01*
X33373Y-12989D01*
X33385Y-12903D01*
X33398Y-12708D01*
X33400Y-12600D01*
X34400Y-12483D01*
X34402Y-12591D01*
D02*
G37*
G36*
X27500Y-77956D02*
X27480Y-77775D01*
X27420Y-77612D01*
X27320Y-77469D01*
X27180Y-77344D01*
X27000Y-77239D01*
X26780Y-77153D01*
X26520Y-77086D01*
X26220Y-77038D01*
X25880Y-77010D01*
X25500Y-77000D01*
Y-75000D01*
X25880Y-74990D01*
X26220Y-74962D01*
X26520Y-74914D01*
X26780Y-74847D01*
X27000Y-74761D01*
X27180Y-74656D01*
X27320Y-74531D01*
X27420Y-74388D01*
X27480Y-74225D01*
X27500Y-74044D01*
Y-77956D01*
D02*
G37*
G36*
X-2643Y-74503D02*
X-2770Y-74548D01*
X-2882Y-74624D01*
X-2980Y-74730D01*
X-3063Y-74866D01*
X-3130Y-75032D01*
X-3182Y-75229D01*
X-3220Y-75455D01*
X-3243Y-75713D01*
X-3250Y-76000D01*
X-4750D01*
X-4758Y-75713D01*
X-4780Y-75455D01*
X-4817Y-75229D01*
X-4870Y-75032D01*
X-4938Y-74866D01*
X-5020Y-74730D01*
X-5117Y-74624D01*
X-5230Y-74548D01*
X-5358Y-74503D01*
X-5500Y-74488D01*
X-2500D01*
X-2643Y-74503D01*
D02*
G37*
G36*
X-10580Y-76550D02*
X-10535Y-76588D01*
X-10460Y-76621D01*
X-10355Y-76650D01*
X-10220Y-76675D01*
X-10055Y-76695D01*
X-9635Y-76721D01*
X-9095Y-76730D01*
Y-78230D01*
X-9380Y-78233D01*
X-10220Y-78286D01*
X-10355Y-78310D01*
X-10460Y-78339D01*
X-10535Y-78373D01*
X-10580Y-78410D01*
X-10595Y-78453D01*
Y-76508D01*
X-10580Y-76550D01*
D02*
G37*
G36*
X775Y-79192D02*
X-775D01*
X-771Y-79176D01*
X-766Y-79136D01*
X-759Y-78989D01*
X-750Y-78000D01*
X750D01*
X775Y-79192D01*
D02*
G37*
G36*
X-14508Y-78453D02*
X-14523Y-78410D01*
X-14568Y-78373D01*
X-14643Y-78339D01*
X-14748Y-78310D01*
X-14883Y-78286D01*
X-15048Y-78266D01*
X-15468Y-78239D01*
X-16008Y-78230D01*
Y-76730D01*
X-15723Y-76728D01*
X-14883Y-76675D01*
X-14748Y-76650D01*
X-14643Y-76621D01*
X-14568Y-76588D01*
X-14523Y-76550D01*
X-14508Y-76508D01*
Y-78453D01*
D02*
G37*
G36*
X30663Y-72426D02*
X30694Y-72768D01*
X30744Y-73070D01*
X30814Y-73331D01*
X30904Y-73553D01*
X31014Y-73734D01*
X31144Y-73874D01*
X31293Y-73975D01*
X31464Y-74035D01*
X31654Y-74055D01*
X27654D01*
X27843Y-74035D01*
X28014Y-73975D01*
X28163Y-73874D01*
X28293Y-73734D01*
X28404Y-73553D01*
X28493Y-73331D01*
X28563Y-73070D01*
X28613Y-72768D01*
X28644Y-72426D01*
X28654Y-72044D01*
X30654D01*
X30663Y-72426D01*
D02*
G37*
G36*
X-20825Y-65583D02*
X-20862Y-65643D01*
X-20894Y-65743D01*
X-20922Y-65883D01*
X-20946Y-66063D01*
X-20980Y-66543D01*
X-20994Y-67259D01*
X-20990Y-67408D01*
X-20962Y-67748D01*
X-20914Y-68048D01*
X-20847Y-68308D01*
X-20761Y-68528D01*
X-20656Y-68708D01*
X-20531Y-68848D01*
X-20388Y-68948D01*
X-20225Y-69008D01*
X-20043Y-69028D01*
X-23956D01*
X-23775Y-69008D01*
X-23612Y-68948D01*
X-23469Y-68848D01*
X-23344Y-68708D01*
X-23239Y-68528D01*
X-23153Y-68308D01*
X-23086Y-68048D01*
X-23038Y-67748D01*
X-23010Y-67408D01*
X-23007Y-67289D01*
X-23009Y-67183D01*
X-23036Y-66843D01*
X-23082Y-66543D01*
X-23145Y-66283D01*
X-23227Y-66063D01*
X-23327Y-65883D01*
X-23446Y-65743D01*
X-23582Y-65643D01*
X-23737Y-65583D01*
X-23909Y-65563D01*
X-20784D01*
X-20825Y-65583D01*
D02*
G37*
G36*
X-14512Y-65566D02*
X-14640Y-65612D01*
X-14752Y-65688D01*
X-14850Y-65794D01*
X-14932Y-65930D01*
X-15000Y-66097D01*
X-15052Y-66293D01*
X-15090Y-66519D01*
X-15112Y-66776D01*
X-15120Y-67063D01*
X-16620D01*
X-16626Y-66778D01*
X-16673Y-66298D01*
X-16715Y-66103D01*
X-16769Y-65938D01*
X-16835Y-65803D01*
X-16912Y-65698D01*
X-17002Y-65623D01*
X-17103Y-65578D01*
X-17216Y-65563D01*
X-14370Y-65551D01*
X-14512Y-65566D01*
D02*
G37*
G36*
X24847Y-64153D02*
X25376Y-64507D01*
X25741Y-64580D01*
X26888Y-65431D01*
Y-70569D01*
X27545D01*
X27585Y-70590D01*
X27699Y-70602D01*
X27720Y-70610D01*
X27738Y-70622D01*
X27772Y-70659D01*
X27821Y-70740D01*
X27877Y-70876D01*
X27928Y-71068D01*
X27969Y-71314D01*
X27995Y-71611D01*
X28004Y-71974D01*
X28016Y-72000D01*
X28004Y-72026D01*
X27500Y-73394D01*
X26888Y-73431D01*
Y-73911D01*
X26855Y-73972D01*
X26855Y-73972D01*
X26843Y-74075D01*
X26840Y-74085D01*
X26831Y-74097D01*
X26797Y-74127D01*
X26716Y-74175D01*
X26580Y-74228D01*
X26388Y-74277D01*
X26142Y-74317D01*
X25845Y-74342D01*
X25484Y-74351D01*
X25444Y-74369D01*
X24000D01*
X23376Y-74493D01*
X22847Y-74847D01*
X19978Y-77715D01*
X18014D01*
X17974Y-77697D01*
X17611Y-77688D01*
X17314Y-77662D01*
X17068Y-77621D01*
X16876Y-77570D01*
X16740Y-77514D01*
X16659Y-77465D01*
X16622Y-77431D01*
X16610Y-77412D01*
X16602Y-77392D01*
X16590Y-77278D01*
X16568Y-77238D01*
X16568Y-76581D01*
Y-75419D01*
X16568Y-75081D01*
Y-71388D01*
X16568Y-70632D01*
X16602Y-70571D01*
X16599Y-70516D01*
X16606Y-70500D01*
X16568Y-69888D01*
X16392D01*
X15728Y-68679D01*
X15701Y-68572D01*
X16105Y-67134D01*
X16272Y-67110D01*
X17772Y-67575D01*
Y-67575D01*
X19582D01*
X19584Y-67580D01*
X19831Y-69075D01*
X19378Y-69378D01*
X18880Y-70122D01*
X18805Y-70500D01*
X23195D01*
X23120Y-70122D01*
X22622Y-69378D01*
X22169Y-69075D01*
X22416Y-67580D01*
X22418Y-67575D01*
X22921D01*
Y-65500D01*
X20346D01*
Y-64500D01*
X22921D01*
Y-64350D01*
X24421Y-63728D01*
X24847Y-64153D01*
D02*
G37*
G36*
X31464Y-69965D02*
X31293Y-70025D01*
X31144Y-70126D01*
X31014Y-70266D01*
X30904Y-70447D01*
X30814Y-70669D01*
X30744Y-70930D01*
X30694Y-71232D01*
X30663Y-71574D01*
X30654Y-71956D01*
X28654D01*
X28644Y-71574D01*
X28613Y-71232D01*
X28563Y-70930D01*
X28493Y-70669D01*
X28404Y-70447D01*
X28293Y-70266D01*
X28163Y-70126D01*
X28014Y-70025D01*
X27843Y-69965D01*
X27654Y-69945D01*
X31654D01*
X31464Y-69965D01*
D02*
G37*
G36*
X15175Y-66583D02*
X15138Y-66643D01*
X15106Y-66743D01*
X15078Y-66883D01*
X15054Y-67063D01*
X15020Y-67543D01*
X15001Y-68527D01*
X15010Y-68880D01*
X15038Y-69220D01*
X15086Y-69520D01*
X15153Y-69780D01*
X15239Y-70000D01*
X15344Y-70180D01*
X15469Y-70320D01*
X15612Y-70420D01*
X15775Y-70480D01*
X15957Y-70500D01*
X12043D01*
X12225Y-70480D01*
X12388Y-70420D01*
X12531Y-70320D01*
X12656Y-70180D01*
X12761Y-70000D01*
X12847Y-69780D01*
X12914Y-69520D01*
X12962Y-69220D01*
X12990Y-68880D01*
X12999Y-68531D01*
X12991Y-68183D01*
X12964Y-67843D01*
X12918Y-67543D01*
X12855Y-67283D01*
X12773Y-67063D01*
X12673Y-66883D01*
X12554Y-66743D01*
X12418Y-66643D01*
X12263Y-66583D01*
X12091Y-66563D01*
X15216D01*
X15175Y-66583D01*
D02*
G37*
G36*
X-53896Y-89831D02*
X-53874Y-90088D01*
X-53836Y-90315D01*
X-53784Y-90511D01*
X-53716Y-90677D01*
X-53634Y-90814D01*
X-53536Y-90919D01*
X-53424Y-90995D01*
X-53296Y-91040D01*
X-53154Y-91056D01*
X-56154D01*
X-56011Y-91040D01*
X-55884Y-90995D01*
X-55771Y-90919D01*
X-55674Y-90814D01*
X-55591Y-90677D01*
X-55524Y-90511D01*
X-55471Y-90315D01*
X-55434Y-90088D01*
X-55411Y-89831D01*
X-55404Y-89543D01*
X-53904D01*
X-53896Y-89831D01*
D02*
G37*
G36*
X-53296Y-86928D02*
X-53424Y-86974D01*
X-53536Y-87049D01*
X-53634Y-87155D01*
X-53716Y-87291D01*
X-53784Y-87457D01*
X-53836Y-87654D01*
X-53874Y-87881D01*
X-53896Y-88138D01*
X-53904Y-88425D01*
X-55404D01*
X-55411Y-88138D01*
X-55434Y-87881D01*
X-55471Y-87654D01*
X-55524Y-87457D01*
X-55591Y-87291D01*
X-55674Y-87155D01*
X-55771Y-87049D01*
X-55884Y-86974D01*
X-56011Y-86928D01*
X-56154Y-86913D01*
X-53154D01*
X-53296Y-86928D01*
D02*
G37*
G36*
X-107134Y-109099D02*
X-107129Y-109374D01*
X-107089Y-109840D01*
X-107055Y-110032D01*
X-107011Y-110196D01*
X-106957Y-110333D01*
X-106893Y-110443D01*
X-106819Y-110526D01*
X-106736Y-110580D01*
X-106642Y-110608D01*
X-107087Y-110545D01*
X-107032Y-111378D01*
X-107001Y-111507D01*
X-106966Y-111601D01*
X-106926Y-111660D01*
X-108341D01*
X-108302Y-111601D01*
X-108266Y-111507D01*
X-108235Y-111378D01*
X-108208Y-111214D01*
X-108167Y-110783D01*
X-108154Y-110396D01*
X-108625Y-110329D01*
X-108532Y-110327D01*
X-108448Y-110291D01*
X-108375Y-110223D01*
X-108311Y-110121D01*
X-108257Y-109987D01*
X-108212Y-109820D01*
X-108178Y-109619D01*
X-108153Y-109386D01*
X-108134Y-108821D01*
X-107134Y-109099D01*
D02*
G37*
G36*
X-110780Y-116927D02*
X-111045Y-117199D01*
X-111628Y-117888D01*
X-111752Y-118076D01*
X-111841Y-118242D01*
X-111894Y-118387D01*
X-111911Y-118511D01*
X-111894Y-118613D01*
X-111841Y-118694D01*
X-113494Y-117041D01*
X-113502Y-117005D01*
X-113479Y-116943D01*
X-113425Y-116855D01*
X-113341Y-116742D01*
X-113081Y-116436D01*
X-112462Y-115782D01*
X-112194Y-115513D01*
X-110780Y-116927D01*
D02*
G37*
G36*
X-107595Y-115155D02*
X-107743Y-115035D01*
X-107906Y-114958D01*
X-108083Y-114923D01*
X-108275Y-114931D01*
X-108481Y-114981D01*
X-108701Y-115074D01*
X-108935Y-115209D01*
X-109184Y-115387D01*
X-109447Y-115608D01*
X-109724Y-115871D01*
X-111138Y-114457D01*
X-110875Y-114180D01*
X-110655Y-113916D01*
X-110477Y-113668D01*
X-110341Y-113433D01*
X-110248Y-113213D01*
X-110198Y-113007D01*
X-110190Y-112816D01*
X-110225Y-112638D01*
X-110303Y-112476D01*
X-110423Y-112327D01*
X-107595Y-115155D01*
D02*
G37*
G36*
X-35639Y-82983D02*
X-35413Y-83170D01*
X-35181Y-83335D01*
X-34942Y-83478D01*
X-34697Y-83599D01*
X-34445Y-83698D01*
X-34187Y-83775D01*
X-33922Y-83830D01*
X-33650Y-83863D01*
X-33372Y-83874D01*
Y-85874D01*
X-33650Y-85885D01*
X-33922Y-85918D01*
X-34187Y-85973D01*
X-34445Y-86050D01*
X-34697Y-86149D01*
X-34942Y-86270D01*
X-35181Y-86413D01*
X-35413Y-86578D01*
X-35639Y-86765D01*
X-35858Y-86974D01*
Y-82774D01*
X-35639Y-82983D01*
D02*
G37*
G36*
X-4343Y-79192D02*
X-5894D01*
X-5889Y-79175D01*
X-5884Y-79132D01*
X-5877Y-78970D01*
X-5868Y-77882D01*
X-4368D01*
X-4343Y-79192D01*
D02*
G37*
G36*
X-1784D02*
X-3334D01*
X-3330Y-79172D01*
X-3325Y-79123D01*
X-3315Y-78798D01*
X-3309Y-77667D01*
X-1809D01*
X-1784Y-79192D01*
D02*
G37*
G36*
X15965Y-77536D02*
X16025Y-77706D01*
X16126Y-77856D01*
X16266Y-77987D01*
X16447Y-78096D01*
X16669Y-78187D01*
X16930Y-78256D01*
X17232Y-78307D01*
X17574Y-78337D01*
X17956Y-78347D01*
Y-80347D01*
X17574Y-80357D01*
X17232Y-80387D01*
X16930Y-80436D01*
X16669Y-80506D01*
X16447Y-80597D01*
X16266Y-80707D01*
X16126Y-80836D01*
X16025Y-80986D01*
X15965Y-81156D01*
X15945Y-81346D01*
Y-77346D01*
X15965Y-77536D01*
D02*
G37*
G36*
X-70708Y-85347D02*
X-70738Y-85062D01*
X-70829Y-84807D01*
X-70979Y-84582D01*
X-71190Y-84386D01*
X-71461Y-84222D01*
X-71793Y-84087D01*
X-72184Y-83982D01*
X-72636Y-83907D01*
X-73148Y-83862D01*
X-73720Y-83846D01*
Y-80847D01*
X-73148Y-80831D01*
X-72636Y-80787D01*
X-72184Y-80712D01*
X-71793Y-80607D01*
X-71461Y-80471D01*
X-71190Y-80307D01*
X-70979Y-80111D01*
X-70829Y-79887D01*
X-70738Y-79632D01*
X-70708Y-79347D01*
Y-85347D01*
D02*
G37*
G36*
X-51056Y-81643D02*
X-51011Y-81770D01*
X-50935Y-81883D01*
X-50829Y-81980D01*
X-50693Y-82063D01*
X-50527Y-82130D01*
X-50330Y-82183D01*
X-50104Y-82220D01*
X-49847Y-82243D01*
X-49559Y-82250D01*
Y-83750D01*
X-49847Y-83758D01*
X-50104Y-83780D01*
X-50330Y-83817D01*
X-50527Y-83870D01*
X-50693Y-83938D01*
X-50829Y-84020D01*
X-50935Y-84118D01*
X-51011Y-84230D01*
X-51056Y-84358D01*
X-51071Y-84500D01*
Y-81500D01*
X-51056Y-81643D01*
D02*
G37*
G36*
X18083Y-39685D02*
X18231Y-39810D01*
X18302Y-39861D01*
X18370Y-39904D01*
X18437Y-39939D01*
X18500Y-39966D01*
X18562Y-39985D01*
X18621Y-39997D01*
X18679Y-40000D01*
X17689Y-40990D01*
X17685Y-40933D01*
X17674Y-40874D01*
X17655Y-40812D01*
X17628Y-40748D01*
X17593Y-40682D01*
X17549Y-40613D01*
X17499Y-40543D01*
X17440Y-40470D01*
X17298Y-40317D01*
X18006Y-39610D01*
X18083Y-39685D01*
D02*
G37*
G36*
X16819Y-38372D02*
X16843Y-38406D01*
X16880Y-38454D01*
X17077Y-38671D01*
X17532Y-39136D01*
X16825Y-39843D01*
X16038Y-39120D01*
X16809Y-38349D01*
X16819Y-38372D01*
D02*
G37*
G36*
X-70714Y-43700D02*
X-70757Y-43662D01*
X-70807Y-43628D01*
X-70864Y-43598D01*
X-70929Y-43572D01*
X-71000Y-43550D01*
X-71079Y-43532D01*
X-71165Y-43518D01*
X-71258Y-43508D01*
X-71466Y-43500D01*
Y-42500D01*
X-71359Y-42498D01*
X-71165Y-42482D01*
X-71079Y-42468D01*
X-71000Y-42450D01*
X-70929Y-42428D01*
X-70864Y-42402D01*
X-70807Y-42372D01*
X-70757Y-42338D01*
X-70714Y-42300D01*
Y-43700D01*
D02*
G37*
G36*
X-49610Y-46317D02*
X-49685Y-46394D01*
X-49810Y-46543D01*
X-49861Y-46613D01*
X-49904Y-46682D01*
X-49939Y-46748D01*
X-49966Y-46812D01*
X-49985Y-46874D01*
X-49997Y-46933D01*
X-50000Y-46990D01*
X-50990Y-46000D01*
X-50933Y-45997D01*
X-50874Y-45985D01*
X-50812Y-45966D01*
X-50748Y-45939D01*
X-50682Y-45904D01*
X-50613Y-45861D01*
X-50543Y-45810D01*
X-50470Y-45751D01*
X-50317Y-45610D01*
X-49610Y-46317D01*
D02*
G37*
G36*
X-88243Y-42338D02*
X-88193Y-42372D01*
X-88136Y-42402D01*
X-88072Y-42428D01*
X-88000Y-42450D01*
X-87921Y-42468D01*
X-87835Y-42482D01*
X-87742Y-42492D01*
X-87534Y-42500D01*
Y-43500D01*
X-87642Y-43502D01*
X-87835Y-43518D01*
X-87921Y-43532D01*
X-88000Y-43550D01*
X-88072Y-43572D01*
X-88136Y-43598D01*
X-88193Y-43628D01*
X-88243Y-43662D01*
X-88286Y-43700D01*
Y-42300D01*
X-88243Y-42338D01*
D02*
G37*
G36*
X3962Y-39120D02*
X3940Y-39130D01*
X3905Y-39154D01*
X3858Y-39192D01*
X3641Y-39388D01*
X3176Y-39843D01*
X2468Y-39136D01*
X3191Y-38349D01*
X3962Y-39120D01*
D02*
G37*
G36*
X-32714Y-33700D02*
X-32757Y-33662D01*
X-32807Y-33628D01*
X-32864Y-33598D01*
X-32928Y-33572D01*
X-33000Y-33550D01*
X-33079Y-33532D01*
X-33165Y-33518D01*
X-33258Y-33508D01*
X-33466Y-33500D01*
Y-32500D01*
X-33358Y-32498D01*
X-33165Y-32482D01*
X-33079Y-32468D01*
X-33000Y-32450D01*
X-32928Y-32428D01*
X-32864Y-32402D01*
X-32807Y-32372D01*
X-32757Y-32338D01*
X-32714Y-32300D01*
Y-33700D01*
D02*
G37*
G36*
X-16136Y-32487D02*
X-16117Y-32490D01*
X-16087Y-32492D01*
X-15766Y-32499D01*
X-15558Y-32500D01*
Y-33500D01*
X-16143Y-33516D01*
Y-32484D01*
X-16136Y-32487D01*
D02*
G37*
G36*
X-75243Y-32338D02*
X-75193Y-32372D01*
X-75136Y-32402D01*
X-75072Y-32428D01*
X-75000Y-32450D01*
X-74921Y-32468D01*
X-74835Y-32482D01*
X-74742Y-32492D01*
X-74534Y-32500D01*
Y-33500D01*
X-74642Y-33502D01*
X-74835Y-33518D01*
X-74921Y-33532D01*
X-75000Y-33550D01*
X-75072Y-33572D01*
X-75136Y-33598D01*
X-75193Y-33628D01*
X-75243Y-33662D01*
X-75286Y-33700D01*
Y-32300D01*
X-75243Y-32338D01*
D02*
G37*
G36*
X2570Y-37728D02*
X2548Y-37738D01*
X2513Y-37762D01*
X2466Y-37800D01*
X2249Y-37996D01*
X1784Y-38451D01*
X1076Y-37744D01*
X1799Y-36957D01*
X2570Y-37728D01*
D02*
G37*
G36*
X-6472Y-29953D02*
X-5829Y-30224D01*
X-5829Y-30224D01*
X-5737Y-30688D01*
X-5474Y-31082D01*
X-5080Y-31345D01*
X-5080Y-31345D01*
X-5080Y-31345D01*
X-4437Y-31615D01*
X-4437Y-31615D01*
X-4345Y-32080D01*
X-4082Y-32474D01*
X-3688Y-32737D01*
X-3688Y-32737D01*
X-3688Y-32737D01*
X-3045Y-33007D01*
X-3045Y-33007D01*
X-2953Y-33472D01*
X-2690Y-33866D01*
X-2296Y-34129D01*
X-2296Y-34129D01*
X-2296Y-34129D01*
X-1653Y-34399D01*
X-1653Y-34399D01*
X-1561Y-34864D01*
X-1298Y-35258D01*
X-904Y-35521D01*
X-904Y-35521D01*
X-904Y-35521D01*
X-261Y-35791D01*
X-261Y-35791D01*
X-169Y-36256D01*
X94Y-36650D01*
X488Y-36913D01*
X488Y-36913D01*
X550Y-36925D01*
X723Y-37183D01*
X846Y-37804D01*
X1198Y-38330D01*
X834Y-39891D01*
X-3793Y-44518D01*
X-4036Y-44882D01*
X-4122Y-45311D01*
X-4121Y-45311D01*
Y-55064D01*
X-4149Y-55130D01*
X-4152Y-55494D01*
X-4181Y-56369D01*
X-56000D01*
X-56624Y-56493D01*
X-57153Y-56846D01*
X-58971Y-58664D01*
X-60159Y-58100D01*
X-60379Y-57950D01*
X-60493Y-57376D01*
X-60847Y-56846D01*
X-61376Y-56493D01*
X-62000Y-56369D01*
X-62624Y-56493D01*
X-63153Y-56846D01*
X-63507Y-57376D01*
X-63610Y-57893D01*
X-63620Y-57913D01*
X-63627Y-57924D01*
X-63635Y-57933D01*
X-63636Y-57938D01*
X-63641Y-57946D01*
X-63645Y-57965D01*
X-63648Y-57971D01*
X-63648Y-57973D01*
X-63659Y-57993D01*
X-63678Y-58024D01*
X-63702Y-58057D01*
X-63798Y-58170D01*
X-63858Y-58232D01*
X-63883Y-58297D01*
X-67919Y-62333D01*
X-68005Y-62363D01*
X-68216Y-62310D01*
X-69493Y-61624D01*
X-69369Y-61000D01*
X-69493Y-60376D01*
X-69846Y-59847D01*
X-72847Y-56846D01*
X-73376Y-56493D01*
X-74000Y-56369D01*
X-80000D01*
X-80624Y-56493D01*
X-81154Y-56846D01*
X-81507Y-57376D01*
X-81631Y-58000D01*
X-81507Y-58624D01*
X-81154Y-59153D01*
X-80624Y-59507D01*
X-80000Y-59631D01*
X-74676D01*
X-72409Y-61898D01*
X-72648Y-62890D01*
X-72989Y-63398D01*
X-76465D01*
X-76527Y-63370D01*
X-76698Y-63366D01*
X-76826Y-63356D01*
X-76923Y-63340D01*
X-76932Y-63338D01*
X-76932Y-62935D01*
X-77543Y-62898D01*
X-77560Y-62905D01*
X-77615Y-62902D01*
X-77676Y-62935D01*
X-82069D01*
Y-64941D01*
X-82468Y-66276D01*
X-82468Y-67438D01*
Y-67760D01*
X-76531D01*
Y-67114D01*
X-76493Y-66256D01*
X-75294Y-65641D01*
X-68520D01*
X-68520Y-65641D01*
X-68090Y-65556D01*
X-67727Y-65313D01*
X-66691Y-66384D01*
X-71917Y-71610D01*
X-72979Y-71452D01*
X-73618Y-71189D01*
X-73847Y-70846D01*
X-74376Y-70493D01*
X-75000Y-70369D01*
X-75083D01*
X-76531Y-70244D01*
X-76531Y-68869D01*
Y-68760D01*
X-82468D01*
X-82468Y-70244D01*
X-82069Y-71578D01*
Y-73584D01*
X-79737D01*
X-79500Y-73631D01*
X-76060D01*
X-75438Y-75131D01*
X-76676Y-76369D01*
X-79551D01*
X-79788Y-76416D01*
X-82120D01*
Y-76452D01*
X-83620Y-77073D01*
X-83846Y-76846D01*
X-84376Y-76493D01*
X-85000Y-76369D01*
X-89000D01*
X-89237Y-76416D01*
X-91568D01*
Y-78422D01*
X-91969Y-79756D01*
X-91969Y-80919D01*
Y-81240D01*
X-89000D01*
Y-82240D01*
X-91969D01*
X-91969Y-83724D01*
X-93417Y-83849D01*
X-94480D01*
X-95105Y-83973D01*
X-95634Y-84327D01*
X-95987Y-84856D01*
X-96112Y-85480D01*
X-95987Y-86105D01*
X-95634Y-86634D01*
X-95105Y-86988D01*
X-94480Y-87112D01*
X-85480D01*
X-84856Y-86988D01*
X-84327Y-86634D01*
X-83620Y-85927D01*
X-82120Y-86548D01*
Y-87065D01*
X-76983D01*
Y-84488D01*
X-73755D01*
X-73737Y-84496D01*
X-73185Y-84510D01*
X-72718Y-84551D01*
X-72322Y-84617D01*
X-72000Y-84703D01*
X-71754Y-84803D01*
X-71583Y-84907D01*
X-71477Y-85006D01*
X-71414Y-85100D01*
X-71376Y-85206D01*
X-71354Y-85415D01*
X-71332Y-85455D01*
Y-87537D01*
X-64227D01*
Y-78463D01*
X-71332D01*
Y-79238D01*
X-71354Y-79278D01*
X-71376Y-79487D01*
X-71414Y-79593D01*
X-71477Y-79687D01*
X-71583Y-79786D01*
X-71754Y-79890D01*
X-72000Y-79990D01*
X-72322Y-80076D01*
X-72718Y-80142D01*
X-73185Y-80183D01*
X-73737Y-80197D01*
X-74348Y-78827D01*
X-74398Y-78705D01*
X-55324Y-59631D01*
X-3000D01*
X-2376Y-59507D01*
X-1846Y-59153D01*
X-1493Y-58624D01*
X-1369Y-58000D01*
X-1493Y-57376D01*
X-1725Y-57029D01*
X-1724Y-57006D01*
X-1745Y-56949D01*
X-1754Y-56913D01*
X-1849Y-55484D01*
X-1851Y-55130D01*
X-1878Y-55064D01*
Y-45776D01*
X3564Y-40334D01*
X3630Y-40307D01*
X4086Y-39861D01*
X4279Y-39687D01*
X4292Y-39676D01*
X4308Y-39665D01*
X4343Y-39612D01*
X4421Y-39579D01*
X4438Y-39538D01*
X4595Y-39433D01*
X8997Y-35031D01*
X10000Y-34594D01*
X11003Y-35031D01*
X15405Y-39433D01*
X15562Y-39538D01*
X15579Y-39579D01*
X15592Y-39585D01*
X15598Y-39598D01*
X16385Y-40321D01*
X16446Y-40343D01*
X16799Y-40697D01*
X16822Y-40758D01*
X16948Y-40894D01*
X16982Y-40936D01*
X17010Y-40976D01*
X17030Y-41007D01*
X17040Y-41027D01*
X17040Y-41029D01*
X17044Y-41035D01*
X17047Y-41054D01*
X17053Y-41062D01*
X17054Y-41067D01*
X17061Y-41076D01*
X17069Y-41087D01*
X17079Y-41107D01*
X17181Y-41624D01*
X17535Y-42153D01*
X17587Y-43797D01*
X17570Y-43844D01*
X-109Y-61523D01*
X-217Y-61595D01*
X-217Y-61595D01*
X-862Y-62239D01*
X-934Y-62348D01*
X-1474Y-62888D01*
X-6568D01*
Y-67240D01*
X-6716Y-67469D01*
X-8000Y-68369D01*
X-8068Y-68369D01*
X-12551D01*
X-12788Y-68416D01*
X-12967D01*
X-13850Y-66949D01*
X-13479Y-66175D01*
X-13479Y-66175D01*
Y-61825D01*
X-17828D01*
Y-62032D01*
X-20172D01*
Y-61825D01*
X-24521D01*
Y-64675D01*
X-24521Y-65429D01*
X-24554Y-65488D01*
X-24552Y-65546D01*
X-24559Y-65563D01*
X-24521Y-66175D01*
X-23850Y-67397D01*
X-24047Y-67728D01*
X-24568Y-68416D01*
X-24606Y-69028D01*
X-24599Y-69044D01*
X-24602Y-69099D01*
X-24568Y-69160D01*
Y-70422D01*
X-24969Y-71756D01*
X-24969Y-72919D01*
Y-73240D01*
X-18872D01*
X-17657Y-72527D01*
X-17531Y-72526D01*
X-17000Y-72631D01*
X-16376Y-72507D01*
X-15846Y-72154D01*
X-15120Y-71584D01*
X-12788D01*
X-12551Y-71631D01*
X-8000D01*
X-6716Y-72531D01*
X-6568Y-72760D01*
Y-75112D01*
X-7658Y-76104D01*
X-8506D01*
X-9983Y-75896D01*
X-10595Y-75859D01*
X-10685Y-75896D01*
X-11483Y-75896D01*
X-14417D01*
X-14508Y-75859D01*
X-15120Y-75896D01*
X-16620Y-75925D01*
X-17000Y-75849D01*
X-17624Y-75973D01*
X-17639Y-75983D01*
X-19031Y-75146D01*
X-19031Y-74240D01*
X-24969D01*
Y-74538D01*
X-25268Y-75305D01*
X-26105Y-75973D01*
X-26634Y-76327D01*
X-33525Y-83218D01*
X-33598Y-83215D01*
X-33816Y-83189D01*
X-34028Y-83145D01*
X-34233Y-83083D01*
X-34434Y-83004D01*
X-34631Y-82907D01*
X-34826Y-82791D01*
X-35017Y-82655D01*
X-35207Y-82498D01*
X-35409Y-82304D01*
X-35462Y-82284D01*
X-36184Y-81729D01*
Y-80145D01*
X-35432Y-79568D01*
X-34855Y-78816D01*
X-34493Y-77940D01*
X-34369Y-77000D01*
X-34493Y-76060D01*
X-34855Y-75185D01*
X-35432Y-74432D01*
X-36184Y-73855D01*
Y-72271D01*
X-35432Y-71693D01*
X-34855Y-70942D01*
X-34493Y-70066D01*
X-34369Y-69126D01*
X-34493Y-68186D01*
X-34855Y-67311D01*
X-35178Y-66890D01*
X-34048Y-65898D01*
X-32376Y-67570D01*
Y-69180D01*
X-32507Y-69376D01*
X-32631Y-70000D01*
X-32507Y-70624D01*
X-32153Y-71153D01*
X-31624Y-71507D01*
X-31000Y-71631D01*
X-30376Y-71507D01*
X-29847Y-71153D01*
X-29493Y-70624D01*
X-29369Y-70000D01*
X-29493Y-69376D01*
X-29624Y-69180D01*
Y-67000D01*
X-29728Y-66473D01*
X-30027Y-66027D01*
X-33027Y-63027D01*
X-33473Y-62728D01*
X-34000Y-62624D01*
X-42000D01*
X-42527Y-62728D01*
X-42973Y-63027D01*
X-42973Y-63027D01*
X-46973Y-67027D01*
X-47272Y-67473D01*
X-47376Y-68000D01*
Y-79430D01*
X-48947Y-81001D01*
X-50447Y-80379D01*
Y-78463D01*
X-57553D01*
Y-87537D01*
X-56262D01*
X-56222Y-87559D01*
X-56186Y-87563D01*
X-56173Y-87583D01*
X-56141Y-87664D01*
X-56107Y-87791D01*
X-56078Y-87962D01*
X-56060Y-88175D01*
X-56053Y-88442D01*
X-56030Y-88493D01*
Y-89475D01*
X-56053Y-89526D01*
X-56060Y-89794D01*
X-56078Y-90007D01*
X-57240Y-90334D01*
X-57361Y-90350D01*
X-57559Y-90358D01*
X-58181Y-90031D01*
Y-90031D01*
X-60847D01*
Y-93000D01*
X-61347D01*
Y-93500D01*
X-64512D01*
Y-95969D01*
X-62050D01*
X-61249Y-97469D01*
X-61510Y-97859D01*
X-86960D01*
X-87779Y-98022D01*
X-88474Y-98486D01*
X-102401Y-112413D01*
X-103862Y-112505D01*
X-104238Y-112129D01*
X-106114Y-110253D01*
X-106124Y-110217D01*
X-106189Y-110178D01*
X-106400Y-109968D01*
X-106421Y-109890D01*
X-106445Y-109755D01*
X-106480Y-109341D01*
X-106484Y-109088D01*
X-106512Y-109024D01*
Y-83098D01*
X-96207Y-72793D01*
X-96207Y-72793D01*
X-95964Y-72429D01*
X-94851Y-71951D01*
X-94378Y-71929D01*
X-93154Y-73154D01*
X-92624Y-73507D01*
X-92000Y-73631D01*
X-88949D01*
X-88712Y-73584D01*
X-86380D01*
Y-70416D01*
X-88712D01*
X-88949Y-70369D01*
X-91324D01*
X-92369Y-69324D01*
Y-67251D01*
X-91517Y-66104D01*
X-86380D01*
Y-62935D01*
X-89142D01*
X-90369Y-61838D01*
Y-45772D01*
X-90267Y-45599D01*
X-89000Y-44631D01*
X-88376Y-44507D01*
X-87937Y-44214D01*
X-87916Y-44207D01*
X-87902Y-44204D01*
X-87891Y-44203D01*
X-87887Y-44201D01*
X-87878Y-44199D01*
X-87862Y-44188D01*
X-87855Y-44186D01*
X-87853Y-44184D01*
X-87832Y-44178D01*
X-87796Y-44170D01*
X-87756Y-44163D01*
X-87609Y-44151D01*
X-87522Y-44149D01*
X-87458Y-44122D01*
X-83962D01*
Y-48013D01*
X-81000D01*
Y-52000D01*
X-74505D01*
Y-54706D01*
X-70155D01*
Y-52000D01*
X-68599D01*
Y-54706D01*
X-64250D01*
Y-52000D01*
X-62694D01*
Y-54706D01*
X-58344D01*
Y-52000D01*
X-56788D01*
Y-54706D01*
X-52439D01*
Y-52000D01*
X-50883D01*
Y-54706D01*
X-46533D01*
Y-52000D01*
X-44977D01*
Y-54706D01*
X-40628D01*
Y-52000D01*
X-39072D01*
Y-54706D01*
X-34722D01*
Y-52000D01*
X-33166D01*
Y-54706D01*
X-28817D01*
Y-52000D01*
X-22000D01*
X-22256Y-51744D01*
Y-48013D01*
X-19238D01*
Y-43664D01*
X-22256D01*
Y-42108D01*
X-19238D01*
Y-38122D01*
X-17000D01*
X-17000Y-38122D01*
X-16571Y-38036D01*
X-16207Y-37793D01*
X-8404Y-29990D01*
X-6870Y-29691D01*
X-6472Y-29953D01*
D02*
G37*
G36*
X3505Y-62690D02*
X3520Y-62860D01*
X3545Y-63010D01*
X3580Y-63140D01*
X3625Y-63250D01*
X3680Y-63340D01*
X3745Y-63410D01*
X3820Y-63460D01*
X3905Y-63490D01*
X4000Y-63500D01*
X2000D01*
X2095Y-63490D01*
X2180Y-63460D01*
X2255Y-63410D01*
X2320Y-63340D01*
X2375Y-63250D01*
X2420Y-63140D01*
X2455Y-63010D01*
X2480Y-62860D01*
X2495Y-62690D01*
X2500Y-62500D01*
X3500D01*
X3505Y-62690D01*
D02*
G37*
G36*
X58011Y-58726D02*
X58043Y-58994D01*
X58096Y-59256D01*
X58171Y-59510D01*
X58267Y-59758D01*
X58384Y-59999D01*
X58523Y-60232D01*
X58683Y-60459D01*
X58864Y-60679D01*
X59067Y-60891D01*
X54933D01*
X55136Y-60679D01*
X55317Y-60459D01*
X55477Y-60232D01*
X55616Y-59999D01*
X55733Y-59758D01*
X55829Y-59510D01*
X55904Y-59256D01*
X55957Y-58994D01*
X55989Y-58726D01*
X56000Y-58450D01*
X58000D01*
X58011Y-58726D01*
D02*
G37*
G36*
X-1336Y-65043D02*
X-1473Y-65187D01*
X-1595Y-65330D01*
X-1703Y-65473D01*
X-1797Y-65615D01*
X-1876Y-65757D01*
X-1940Y-65898D01*
X-1991Y-66039D01*
X-2027Y-66179D01*
X-2048Y-66318D01*
X-2056Y-66458D01*
Y-63629D01*
X-2048Y-63759D01*
X-2027Y-63859D01*
X-1991Y-63931D01*
X-1940Y-63974D01*
X-1876Y-63989D01*
X-1797Y-63974D01*
X-1703Y-63931D01*
X-1595Y-63859D01*
X-1473Y-63759D01*
X-1336Y-63629D01*
Y-65043D01*
D02*
G37*
G36*
X-77534Y-63637D02*
X-77504Y-63717D01*
X-77454Y-63788D01*
X-77384Y-63850D01*
X-77293Y-63902D01*
X-77184Y-63944D01*
X-77053Y-63977D01*
X-76903Y-64001D01*
X-76733Y-64015D01*
X-76543Y-64020D01*
Y-65020D01*
X-76733Y-65024D01*
X-76903Y-65039D01*
X-77053Y-65062D01*
X-77184Y-65095D01*
X-77293Y-65138D01*
X-77384Y-65190D01*
X-77454Y-65251D01*
X-77504Y-65322D01*
X-77534Y-65402D01*
X-77543Y-65492D01*
Y-63547D01*
X-77534Y-63637D01*
D02*
G37*
G36*
X54891Y-65067D02*
X54679Y-64864D01*
X54459Y-64683D01*
X54232Y-64523D01*
X53999Y-64384D01*
X53758Y-64267D01*
X53510Y-64171D01*
X53256Y-64096D01*
X52994Y-64043D01*
X52726Y-64011D01*
X52450Y-64000D01*
Y-62000D01*
X52726Y-61989D01*
X52994Y-61957D01*
X53256Y-61904D01*
X53510Y-61829D01*
X53758Y-61733D01*
X53999Y-61616D01*
X54232Y-61477D01*
X54459Y-61317D01*
X54679Y-61136D01*
X54891Y-60933D01*
Y-65067D01*
D02*
G37*
G36*
X-62010Y-59000D02*
X-62067Y-59003D01*
X-62126Y-59015D01*
X-62188Y-59034D01*
X-62252Y-59061D01*
X-62318Y-59096D01*
X-62387Y-59139D01*
X-62457Y-59190D01*
X-62530Y-59249D01*
X-62683Y-59390D01*
X-63390Y-58683D01*
X-63315Y-58606D01*
X-63190Y-58457D01*
X-63139Y-58387D01*
X-63096Y-58318D01*
X-63061Y-58252D01*
X-63034Y-58188D01*
X-63015Y-58126D01*
X-63003Y-58067D01*
X-63000Y-58010D01*
X-62010Y-59000D01*
D02*
G37*
G36*
X31702Y-50442D02*
X31718Y-50635D01*
X31732Y-50721D01*
X31750Y-50800D01*
X31772Y-50871D01*
X31798Y-50936D01*
X31828Y-50993D01*
X31862Y-51043D01*
X31900Y-51086D01*
X30500D01*
X30538Y-51043D01*
X30572Y-50993D01*
X30602Y-50936D01*
X30628Y-50871D01*
X30650Y-50800D01*
X30668Y-50721D01*
X30682Y-50635D01*
X30692Y-50542D01*
X30700Y-50334D01*
X31700D01*
X31702Y-50442D01*
D02*
G37*
G36*
X-95010Y-48000D02*
X-95067Y-48003D01*
X-95126Y-48015D01*
X-95188Y-48034D01*
X-95252Y-48061D01*
X-95318Y-48096D01*
X-95387Y-48139D01*
X-95457Y-48190D01*
X-95530Y-48249D01*
X-95683Y-48390D01*
X-96390Y-47683D01*
X-96315Y-47606D01*
X-96190Y-47457D01*
X-96139Y-47387D01*
X-96096Y-47318D01*
X-96061Y-47252D01*
X-96034Y-47188D01*
X-96015Y-47126D01*
X-96003Y-47067D01*
X-96000Y-47010D01*
X-95010Y-48000D01*
D02*
G37*
G36*
X34286Y-56700D02*
X34243Y-56662D01*
X34193Y-56628D01*
X34136Y-56598D01*
X34071Y-56572D01*
X34000Y-56550D01*
X33921Y-56532D01*
X33835Y-56518D01*
X33742Y-56508D01*
X33534Y-56500D01*
Y-55500D01*
X33642Y-55498D01*
X33835Y-55482D01*
X33921Y-55468D01*
X34000Y-55450D01*
X34071Y-55428D01*
X34136Y-55402D01*
X34193Y-55372D01*
X34243Y-55338D01*
X34286Y-55300D01*
Y-56700D01*
D02*
G37*
G36*
X-2498Y-55507D02*
X-2398Y-57012D01*
X-2367Y-57140D01*
X-2332Y-57234D01*
X-2292Y-57293D01*
X-3708D01*
X-3668Y-57234D01*
X-3633Y-57140D01*
X-3602Y-57012D01*
X-3575Y-56848D01*
X-3533Y-56416D01*
X-3502Y-55507D01*
X-3500Y-55134D01*
X-2500D01*
X-2498Y-55507D01*
D02*
G37*
G36*
X14757Y-55338D02*
X14807Y-55372D01*
X14864Y-55402D01*
X14929Y-55428D01*
X15000Y-55450D01*
X15079Y-55468D01*
X15165Y-55482D01*
X15258Y-55492D01*
X15466Y-55500D01*
Y-56500D01*
X15358Y-56502D01*
X15165Y-56518D01*
X15079Y-56532D01*
X15000Y-56550D01*
X14929Y-56572D01*
X14864Y-56598D01*
X14807Y-56628D01*
X14757Y-56662D01*
X14714Y-56700D01*
Y-55300D01*
X14757Y-55338D01*
D02*
G37*
G36*
X-30990Y38596D02*
X-31252Y38321D01*
X-31472Y38060D01*
X-31650Y37814D01*
X-31787Y37583D01*
X-31881Y37366D01*
X-31934Y37165D01*
X-31945Y36978D01*
X-31914Y36805D01*
X-31842Y36648D01*
X-31728Y36505D01*
X-34495Y39272D01*
X-34352Y39158D01*
X-34194Y39086D01*
X-34022Y39055D01*
X-33835Y39066D01*
X-33634Y39119D01*
X-33417Y39213D01*
X-33186Y39350D01*
X-32940Y39528D01*
X-32679Y39748D01*
X-32404Y40010D01*
X-30990Y38596D01*
D02*
G37*
G36*
X106966Y110284D02*
X106892Y110344D01*
X106810Y110383D01*
X106721Y110400D01*
X106625Y110396D01*
X106522Y110371D01*
X106411Y110324D01*
X106293Y110255D01*
X106168Y110166D01*
X106036Y110055D01*
X105897Y109922D01*
X105190Y110629D01*
X105322Y110769D01*
X105433Y110901D01*
X105523Y111026D01*
X105591Y111144D01*
X105638Y111254D01*
X105663Y111358D01*
X105667Y111454D01*
X105650Y111542D01*
X105612Y111624D01*
X105552Y111698D01*
X106966Y110284D01*
D02*
G37*
G36*
X175575Y192559D02*
X178106Y192055D01*
X180549Y191226D01*
X182864Y190084D01*
X185009Y188651D01*
X186949Y186949D01*
X188651Y185009D01*
X190084Y182864D01*
X191226Y180549D01*
X192055Y178106D01*
X192559Y175575D01*
X192727Y173000D01*
X192559Y170425D01*
X192055Y167894D01*
X191226Y165451D01*
X190084Y163136D01*
X188651Y160991D01*
X186949Y159051D01*
X185470Y157754D01*
X184290Y156877D01*
X184290Y156877D01*
X184290Y156877D01*
X183091Y156149D01*
X179993Y154270D01*
X173182Y149719D01*
X166576Y144875D01*
X160187Y139748D01*
X154028Y134346D01*
X148111Y128682D01*
X142446Y122764D01*
X137045Y116606D01*
X131918Y110217D01*
X127074Y103611D01*
X122523Y96800D01*
X118274Y89797D01*
X114333Y82615D01*
X110711Y75268D01*
X107411Y67770D01*
X104442Y60136D01*
X101809Y52379D01*
X99517Y44514D01*
X97570Y36557D01*
X95972Y28523D01*
X94893Y21513D01*
X94726Y20427D01*
X94683Y20034D01*
X94719Y20030D01*
D01*
X96092Y19723D01*
X98386Y18944D01*
X100791Y17758D01*
X103022Y16268D01*
X105038Y14499D01*
X106807Y12483D01*
X108297Y10253D01*
X109483Y7847D01*
X110345Y5307D01*
X110869Y2676D01*
X111044Y0D01*
X110869Y-2676D01*
X110345Y-5307D01*
X109483Y-7847D01*
X108297Y-10253D01*
X106807Y-12483D01*
X105038Y-14499D01*
X103022Y-16268D01*
X100791Y-17758D01*
X98386Y-18944D01*
X96092Y-19723D01*
X94719Y-20030D01*
X94719Y-20030D01*
X94683Y-20034D01*
X94726Y-20427D01*
X94893Y-21513D01*
X95972Y-28523D01*
X97570Y-36557D01*
X99517Y-44514D01*
X101809Y-52379D01*
X104442Y-60136D01*
X107411Y-67770D01*
X110711Y-75268D01*
X114333Y-82615D01*
X118274Y-89797D01*
X122523Y-96800D01*
X127074Y-103611D01*
X131918Y-110217D01*
X137045Y-116606D01*
X142446Y-122764D01*
X148111Y-128682D01*
X154028Y-134346D01*
X160187Y-139748D01*
X166576Y-144875D01*
X173182Y-149719D01*
X179993Y-154270D01*
X184290Y-156877D01*
D01*
X185470Y-157754D01*
X186949Y-159051D01*
X188651Y-160991D01*
X190084Y-163136D01*
X191226Y-165451D01*
X192055Y-167894D01*
X192559Y-170425D01*
X192727Y-173000D01*
X192559Y-175575D01*
X192055Y-178106D01*
X191226Y-180549D01*
X190084Y-182864D01*
X188651Y-185009D01*
X186949Y-186949D01*
X185009Y-188651D01*
X182864Y-190084D01*
X180549Y-191226D01*
X178106Y-192055D01*
X175575Y-192559D01*
X173000Y-192727D01*
X170425Y-192559D01*
X167894Y-192055D01*
X165451Y-191226D01*
X163136Y-190084D01*
X160991Y-188651D01*
X159051Y-186949D01*
X157754Y-185470D01*
X156877Y-184290D01*
Y-184290D01*
X156149Y-183091D01*
X154270Y-179993D01*
X149719Y-173182D01*
X144875Y-166576D01*
X139748Y-160187D01*
X134346Y-154028D01*
X128682Y-148111D01*
X122764Y-142446D01*
X116606Y-137045D01*
X110217Y-131918D01*
X103611Y-127074D01*
X96800Y-122523D01*
X89797Y-118274D01*
X82615Y-114333D01*
X75268Y-110711D01*
X67770Y-107411D01*
X60136Y-104442D01*
X52379Y-101809D01*
X44514Y-99517D01*
X36557Y-97570D01*
X28523Y-95972D01*
X22560Y-95054D01*
X21025Y-94818D01*
X21077Y-95334D01*
X20999Y-96331D01*
X20878Y-97866D01*
X20285Y-100336D01*
X19313Y-102683D01*
X17986Y-104849D01*
X17003Y-106000D01*
X17000Y-106000D01*
X-17001Y-106001D01*
X-17986Y-104849D01*
X-19313Y-102683D01*
X-20285Y-100336D01*
X-20878Y-97866D01*
X-21077Y-95334D01*
X-21025Y-94818D01*
X-22438Y-95035D01*
X-22557Y-95053D01*
X-28523Y-95972D01*
X-36557Y-97570D01*
X-44514Y-99517D01*
X-52379Y-101809D01*
X-60136Y-104442D01*
X-67770Y-107411D01*
X-75268Y-110711D01*
X-82615Y-114333D01*
X-89797Y-118274D01*
X-96800Y-122523D01*
X-103611Y-127074D01*
X-110217Y-131918D01*
X-116606Y-137045D01*
X-122764Y-142446D01*
X-128682Y-148111D01*
X-134346Y-154028D01*
X-139748Y-160187D01*
X-144875Y-166576D01*
X-149719Y-173182D01*
X-154270Y-179993D01*
X-156877Y-184290D01*
D01*
X-157754Y-185470D01*
X-159051Y-186949D01*
X-160991Y-188651D01*
X-163136Y-190084D01*
X-165451Y-191226D01*
X-167894Y-192055D01*
X-170425Y-192559D01*
X-173000Y-192727D01*
X-175575Y-192559D01*
X-178106Y-192055D01*
X-180549Y-191226D01*
X-182864Y-190084D01*
X-185009Y-188651D01*
X-186949Y-186949D01*
X-188651Y-185009D01*
X-190084Y-182864D01*
X-191226Y-180549D01*
X-192055Y-178106D01*
X-192559Y-175575D01*
X-192727Y-173000D01*
X-192559Y-170425D01*
X-192055Y-167894D01*
X-191226Y-165451D01*
X-190084Y-163136D01*
X-188651Y-160991D01*
X-186949Y-159051D01*
X-185470Y-157754D01*
X-184290Y-156877D01*
X-183091Y-156149D01*
X-179993Y-154270D01*
X-173182Y-149719D01*
X-166576Y-144875D01*
X-160187Y-139748D01*
X-154028Y-134346D01*
X-148111Y-128682D01*
X-142446Y-122764D01*
X-137045Y-116606D01*
X-131918Y-110217D01*
X-127074Y-103611D01*
X-122523Y-96800D01*
X-118274Y-89797D01*
X-114333Y-82615D01*
X-110711Y-75268D01*
X-107411Y-67770D01*
X-104442Y-60136D01*
X-101809Y-52379D01*
X-99517Y-44514D01*
X-97570Y-36557D01*
X-95972Y-28523D01*
X-95131Y-23062D01*
X-93631Y-23177D01*
Y-44228D01*
X-93734Y-44401D01*
X-95000Y-45369D01*
X-95624Y-45493D01*
X-96153Y-45847D01*
X-96507Y-46376D01*
X-96610Y-46893D01*
X-96620Y-46913D01*
X-96627Y-46924D01*
X-96635Y-46933D01*
X-96636Y-46938D01*
X-96641Y-46946D01*
X-96645Y-46965D01*
X-96648Y-46971D01*
X-96648Y-46973D01*
X-96659Y-46993D01*
X-96678Y-47024D01*
X-96702Y-47057D01*
X-96798Y-47170D01*
X-96858Y-47232D01*
X-96883Y-47297D01*
X-97793Y-48207D01*
X-98036Y-48571D01*
X-98122Y-49000D01*
X-98122Y-49000D01*
Y-71535D01*
X-108427Y-81841D01*
X-108670Y-82205D01*
X-108755Y-82634D01*
X-108755Y-82634D01*
Y-105087D01*
X-110141Y-105661D01*
X-112505Y-103296D01*
X-114251Y-105042D01*
X-112013Y-107280D01*
X-112366Y-107634D01*
X-112013Y-107987D01*
X-114112Y-110086D01*
X-112227Y-111971D01*
X-112227D01*
X-111846Y-112195D01*
X-111672Y-112536D01*
X-111605Y-112795D01*
X-111609Y-114010D01*
X-111625Y-114051D01*
X-112610Y-115035D01*
X-112653Y-115053D01*
X-112654Y-115055D01*
X-112655Y-115055D01*
X-112923Y-115325D01*
X-112926Y-115332D01*
X-112933Y-115336D01*
X-113348Y-115773D01*
X-115413Y-117839D01*
X-115767Y-118368D01*
X-115787Y-118468D01*
X-117544Y-120226D01*
X-115025Y-122744D01*
X-112036Y-119755D01*
X-111527Y-119246D01*
X-111486Y-119238D01*
X-111422Y-119170D01*
X-111381Y-119154D01*
X-110975Y-118694D01*
X-111210Y-118460D01*
X-110418Y-117486D01*
X-110315Y-117380D01*
X-110298Y-117339D01*
X-110295Y-117334D01*
X-109318Y-116358D01*
X-109277Y-116342D01*
X-109067Y-116143D01*
X-108607Y-116160D01*
X-107898Y-116276D01*
X-107023Y-117525D01*
X-107122Y-118021D01*
X-106959Y-118840D01*
X-106495Y-119535D01*
X-105800Y-119999D01*
X-104981Y-120162D01*
X-104161Y-119999D01*
X-103467Y-119535D01*
X-86073Y-102141D01*
X-59551D01*
X-58732Y-101978D01*
X-58037Y-101514D01*
X-55537Y-99014D01*
X-55073Y-98319D01*
X-54910Y-97500D01*
X-54996Y-97069D01*
X-54348Y-95921D01*
X-54012Y-95569D01*
X-51888D01*
Y-90431D01*
X-53045D01*
X-53085Y-90410D01*
X-53121Y-90406D01*
X-53134Y-90385D01*
X-53167Y-90304D01*
X-53201Y-90178D01*
X-53229Y-90007D01*
X-53247Y-89794D01*
X-53254Y-89526D01*
X-53277Y-89475D01*
Y-88493D01*
X-53254Y-88442D01*
X-53247Y-88175D01*
X-53229Y-87962D01*
X-53201Y-87791D01*
X-53167Y-87664D01*
X-53134Y-87583D01*
X-53121Y-87563D01*
X-53085Y-87559D01*
X-53045Y-87537D01*
X-50447D01*
Y-84609D01*
X-50425Y-84569D01*
X-50422Y-84532D01*
X-50401Y-84520D01*
X-50320Y-84487D01*
X-50193Y-84453D01*
X-50022Y-84425D01*
X-49810Y-84406D01*
X-49542Y-84399D01*
X-49491Y-84376D01*
X-49000D01*
X-48473Y-84272D01*
X-48027Y-83973D01*
X-45027Y-80973D01*
X-44728Y-80527D01*
X-44624Y-80000D01*
Y-68570D01*
X-41952Y-65898D01*
X-40822Y-66890D01*
X-41145Y-67311D01*
X-41507Y-68186D01*
X-41631Y-69126D01*
X-41507Y-70066D01*
X-41145Y-70942D01*
X-40567Y-71693D01*
X-39816Y-72271D01*
Y-73855D01*
X-40567Y-74432D01*
X-41145Y-75185D01*
X-41507Y-76060D01*
X-41631Y-77000D01*
X-41507Y-77940D01*
X-41145Y-78816D01*
X-40567Y-79568D01*
X-39816Y-80145D01*
Y-81729D01*
X-40567Y-82306D01*
X-41145Y-83059D01*
X-41507Y-83934D01*
X-41631Y-84874D01*
X-41507Y-85814D01*
X-41145Y-86690D01*
X-40567Y-87442D01*
X-39816Y-88019D01*
X-38940Y-88381D01*
X-38000Y-88505D01*
X-37060Y-88381D01*
X-36184Y-88019D01*
X-35462Y-87464D01*
X-35409Y-87444D01*
X-35207Y-87251D01*
X-35017Y-87093D01*
X-34826Y-86957D01*
X-34631Y-86841D01*
X-34434Y-86743D01*
X-34233Y-86664D01*
X-34028Y-86603D01*
X-33816Y-86559D01*
X-33598Y-86533D01*
X-33346Y-86523D01*
X-33308Y-86505D01*
X-32874D01*
X-32250Y-86381D01*
X-31721Y-86028D01*
X-24805Y-79112D01*
X-22000D01*
X-21763Y-79065D01*
X-19670D01*
X-19432Y-79065D01*
X-17932Y-78782D01*
X-17624Y-78987D01*
X-17000Y-79112D01*
X-16620Y-79036D01*
X-15120Y-79065D01*
X-14508Y-79102D01*
X-14417Y-79065D01*
X-11483D01*
X-10685Y-79065D01*
X-10595Y-79102D01*
X-9983Y-79065D01*
X-8510Y-78857D01*
X-8011D01*
X-7784Y-78892D01*
X-6543Y-79192D01*
X-6505Y-79283D01*
Y-86714D01*
X-5812Y-87407D01*
X-4424D01*
X-3839Y-86822D01*
X-3253Y-87407D01*
X-1865D01*
X-1280Y-86822D01*
X-694Y-87407D01*
X694D01*
X1280Y-86822D01*
X1865Y-87407D01*
X3253D01*
X3539Y-87122D01*
X4224Y-87808D01*
X4618D01*
Y-82800D01*
X5118D01*
Y-82300D01*
X6905D01*
Y-79334D01*
X8405Y-78713D01*
X10193Y-80500D01*
X10722Y-80854D01*
X11347Y-80978D01*
X11432D01*
Y-82112D01*
X16568D01*
Y-81455D01*
X16590Y-81415D01*
X16602Y-81301D01*
X16610Y-81280D01*
X16622Y-81262D01*
X16659Y-81228D01*
X16740Y-81178D01*
X16876Y-81123D01*
X17068Y-81072D01*
X17314Y-81031D01*
X17611Y-81005D01*
X17974Y-80996D01*
X18014Y-80978D01*
X20653D01*
X21278Y-80854D01*
X21807Y-80500D01*
X24676Y-77631D01*
X25444D01*
X25484Y-77649D01*
X25845Y-77658D01*
X26142Y-77683D01*
X26388Y-77723D01*
X26580Y-77772D01*
X26716Y-77825D01*
X26797Y-77873D01*
X26831Y-77903D01*
X26840Y-77915D01*
X26843Y-77925D01*
X26855Y-78028D01*
X26855Y-78028D01*
X26888Y-78089D01*
Y-78569D01*
X27500Y-78606D01*
X27516Y-78599D01*
X27571Y-78602D01*
X27632Y-78569D01*
X31847D01*
X33181Y-78969D01*
X33753Y-78969D01*
X35846D01*
Y-76000D01*
Y-73032D01*
X33753D01*
X33181Y-73032D01*
X32753Y-73142D01*
X32389Y-73025D01*
X32379Y-73019D01*
X32024Y-72000D01*
X32379Y-70981D01*
X32389Y-70975D01*
X32753Y-70858D01*
X33181Y-70969D01*
X33753Y-70969D01*
X35846D01*
Y-68000D01*
X36347D01*
Y-67500D01*
X39512D01*
Y-66131D01*
X39512Y-65031D01*
X40846Y-64631D01*
X52387D01*
X52425Y-64649D01*
X52675Y-64659D01*
X52891Y-64684D01*
X53099Y-64727D01*
X53301Y-64786D01*
X53498Y-64862D01*
X53690Y-64956D01*
X53879Y-65068D01*
X54064Y-65199D01*
X54247Y-65350D01*
X54443Y-65537D01*
X54498Y-65558D01*
X55208Y-66103D01*
X56073Y-66461D01*
X57000Y-66583D01*
X57927Y-66461D01*
X58792Y-66103D01*
X59534Y-65534D01*
X60103Y-64792D01*
X60461Y-63927D01*
X60583Y-63000D01*
X60461Y-62073D01*
X60103Y-61208D01*
X59558Y-60498D01*
X59537Y-60443D01*
X59350Y-60247D01*
X59199Y-60064D01*
X59068Y-59879D01*
X58956Y-59690D01*
X58862Y-59498D01*
X58786Y-59301D01*
X58727Y-59099D01*
X58684Y-58891D01*
X58659Y-58675D01*
X58649Y-58425D01*
X58631Y-58387D01*
Y-26654D01*
X58507Y-26029D01*
X58153Y-25500D01*
X57112Y-24458D01*
Y-21431D01*
X51919D01*
X51581Y-21431D01*
X50419D01*
X50081Y-21431D01*
X49610D01*
X49570Y-21410D01*
X49457Y-21397D01*
X49435Y-21390D01*
X49416Y-21377D01*
X49381Y-21340D01*
X49332Y-21258D01*
X49277Y-21123D01*
X49226Y-20931D01*
X49185Y-20685D01*
X49159Y-20388D01*
X49149Y-20027D01*
X49131Y-19986D01*
Y-15998D01*
X49149Y-15958D01*
X49159Y-15598D01*
X49185Y-15303D01*
X49225Y-15059D01*
X49277Y-14869D01*
X49331Y-14735D01*
X49380Y-14655D01*
X49414Y-14619D01*
X49433Y-14606D01*
X49454Y-14599D01*
X49568Y-14587D01*
X49630Y-14553D01*
X52037D01*
Y-7447D01*
X42963D01*
Y-9817D01*
X42955Y-9819D01*
X42858Y-9835D01*
X42731Y-9846D01*
X42558Y-9851D01*
X42496Y-9878D01*
X38551D01*
X38491Y-9851D01*
X38305Y-9844D01*
X38252Y-9838D01*
X38204Y-9830D01*
X38168Y-9822D01*
X38147Y-9816D01*
X38145Y-9814D01*
X38138Y-9812D01*
X38122Y-9801D01*
X38113Y-9799D01*
X38109Y-9797D01*
X38098Y-9796D01*
X38084Y-9793D01*
X38063Y-9786D01*
X37624Y-9493D01*
X37000Y-9369D01*
X36522Y-9464D01*
X36263Y-9418D01*
X35022Y-8594D01*
Y16063D01*
X36000Y17369D01*
X36624Y17493D01*
X37154Y17846D01*
X37507Y18376D01*
X37610Y18893D01*
X37620Y18913D01*
X37627Y18924D01*
X37635Y18933D01*
X37636Y18938D01*
X37641Y18946D01*
X37645Y18965D01*
X37648Y18971D01*
X37648Y18973D01*
X37659Y18993D01*
X37678Y19024D01*
X37702Y19057D01*
X37798Y19170D01*
X37858Y19232D01*
X37883Y19297D01*
X117793Y99207D01*
X117793Y99207D01*
X118036Y99571D01*
X118122Y100000D01*
X118122Y100000D01*
Y106535D01*
X146793Y135207D01*
X146793Y135207D01*
X147036Y135571D01*
X147122Y136000D01*
Y137524D01*
X147505Y138862D01*
Y138862D01*
X147505Y138862D01*
X151138Y142494D01*
X147466Y146166D01*
X147227Y146405D01*
X146405Y147227D01*
X145941Y147692D01*
X145928Y147735D01*
X145856Y147824D01*
X145847Y147844D01*
X145842Y147866D01*
X145844Y147916D01*
X145867Y148009D01*
X145924Y148143D01*
X146023Y148315D01*
X146168Y148518D01*
X146360Y148747D01*
X146609Y149010D01*
X146625Y149051D01*
X150226Y152651D01*
X150266Y152667D01*
X150776Y153146D01*
X150979Y153314D01*
X151156Y153444D01*
X151297Y153533D01*
X151361Y153563D01*
X151634Y153291D01*
X151780Y153437D01*
X153154Y152062D01*
X152725Y151634D01*
X154192Y150167D01*
X156013Y151987D01*
X157833Y153808D01*
X156366Y155275D01*
X155938Y154846D01*
X154563Y156220D01*
X154709Y156366D01*
X151634Y159442D01*
X149619Y157427D01*
X149104Y156912D01*
X149057Y156902D01*
X148998Y156840D01*
X148964Y156825D01*
X148558Y156366D01*
X148831Y156094D01*
X148800Y156030D01*
X148711Y155888D01*
X148585Y155717D01*
X148193Y155266D01*
X147941Y155007D01*
X147925Y154964D01*
X146050Y153089D01*
X145846Y152954D01*
X145711Y152750D01*
X144318Y151358D01*
X144277Y151342D01*
X144014Y151093D01*
X143786Y150901D01*
X143583Y150756D01*
X143411Y150656D01*
X143276Y150599D01*
X143184Y150577D01*
X143134Y150575D01*
X143111Y150579D01*
X143092Y150589D01*
X143003Y150661D01*
X142959Y150673D01*
X142494Y151138D01*
X138862Y147505D01*
X142534Y143834D01*
X142773Y143595D01*
X143595Y142773D01*
X143833Y142534D01*
X144960Y141408D01*
X144878Y141000D01*
X144878Y141000D01*
Y136465D01*
X139868Y131454D01*
X139712Y131499D01*
X138534Y132241D01*
X138570Y132520D01*
X138482Y133191D01*
X138223Y133816D01*
X137812Y134352D01*
X137275Y134764D01*
X136650Y135022D01*
X136388Y135057D01*
X135947Y135144D01*
X135124Y135967D01*
X135037Y136408D01*
X135002Y136670D01*
X134744Y137295D01*
X134332Y137832D01*
X133795Y138244D01*
X133170Y138502D01*
X132500Y138591D01*
X131830Y138502D01*
X131205Y138244D01*
X130668Y137832D01*
X130256Y137295D01*
X129998Y136670D01*
X129909Y136000D01*
X129998Y135329D01*
X130256Y134705D01*
X130668Y134168D01*
X131205Y133756D01*
X131830Y133498D01*
X132039Y133470D01*
X132451Y133213D01*
X132631Y132647D01*
X132771Y131644D01*
X132755Y131602D01*
X130784Y129631D01*
X128089D01*
X127465Y129507D01*
X126936Y129154D01*
X126115Y128333D01*
X125847Y128154D01*
X125667Y127885D01*
X125055Y127273D01*
X125013Y127256D01*
X124507Y126760D01*
X124000Y126297D01*
X123934Y126363D01*
X123474Y125957D01*
X123437Y125867D01*
X119884Y122313D01*
X122403Y119795D01*
X125392Y122784D01*
X125956Y123348D01*
X126046Y123385D01*
X126453Y123845D01*
X127266Y124843D01*
X127343Y124921D01*
X127357Y124955D01*
X127381Y124984D01*
X128765Y126369D01*
X131460D01*
X132084Y126493D01*
X132613Y126847D01*
X134981Y129215D01*
X135148Y129300D01*
X135567Y129275D01*
X136145Y127753D01*
X136136Y127722D01*
X123375Y114961D01*
X122210Y116125D01*
X119903Y113817D01*
X117595Y111509D01*
X118009Y111095D01*
Y109595D01*
X116377Y107963D01*
X116306Y107892D01*
X114819Y109379D01*
X112720Y107280D01*
X110621Y105181D01*
X112505Y103296D01*
X114493Y105283D01*
X115878Y104709D01*
Y100465D01*
X36747Y21334D01*
X35232Y21616D01*
X35022Y21937D01*
Y38168D01*
X105568Y108714D01*
X107534Y108833D01*
X108029Y107773D01*
X108029Y107773D01*
X109914Y105888D01*
X112013Y107987D01*
X114112Y110086D01*
X112227Y111971D01*
Y111971D01*
X111137Y112846D01*
X110790Y113550D01*
X110935Y113753D01*
X111127Y113981D01*
X111376Y114244D01*
X111391Y114285D01*
X112372Y115266D01*
X112415Y115283D01*
X112921Y115779D01*
X113428Y116242D01*
X113494Y116175D01*
X113953Y116582D01*
X113991Y116672D01*
X117544Y120226D01*
X115025Y122744D01*
X112036Y119755D01*
X111472Y119191D01*
X111381Y119154D01*
X110975Y118694D01*
X110162Y117696D01*
X110085Y117618D01*
X110071Y117584D01*
X110047Y117554D01*
X109083Y116590D01*
X109041Y116574D01*
X108779Y116323D01*
X108549Y116124D01*
X108345Y115969D01*
X108173Y115859D01*
X108037Y115792D01*
X107947Y115762D01*
X107926Y115759D01*
X107892Y115786D01*
X107892Y115786D01*
X107829Y115803D01*
X107494Y116138D01*
X107037Y115733D01*
X107028Y115713D01*
X106981Y115670D01*
X106964Y115607D01*
X103862Y112505D01*
X104101Y112267D01*
X103982Y110301D01*
X33622Y39940D01*
X32122Y40527D01*
Y80218D01*
X32148Y80270D01*
X32160Y80439D01*
X32190Y80582D01*
X32246Y80747D01*
X32331Y80935D01*
X32447Y81143D01*
X32596Y81369D01*
X32773Y81606D01*
X33246Y82147D01*
X33530Y82436D01*
X33551Y82489D01*
X34103Y83208D01*
X34461Y84073D01*
X34583Y85000D01*
X34461Y85927D01*
X34103Y86792D01*
X33534Y87534D01*
X32792Y88103D01*
X31927Y88461D01*
X31000Y88583D01*
X30073Y88461D01*
X29208Y88103D01*
X28466Y87534D01*
X27897Y86792D01*
X27539Y85927D01*
X27417Y85000D01*
X27539Y84073D01*
X27897Y83208D01*
X28449Y82489D01*
X28470Y82436D01*
X28754Y82147D01*
X29227Y81606D01*
X29404Y81369D01*
X29553Y81143D01*
X29669Y80935D01*
X29754Y80747D01*
X29810Y80582D01*
X29840Y80439D01*
X29852Y80270D01*
X29878Y80218D01*
Y4333D01*
X29622Y4161D01*
X28122Y4963D01*
Y65000D01*
X28122Y65000D01*
X28036Y65429D01*
X27793Y65793D01*
X27793Y65793D01*
X22121Y71465D01*
Y80218D01*
X22148Y80270D01*
X22160Y80439D01*
X22190Y80582D01*
X22246Y80747D01*
X22331Y80935D01*
X22447Y81143D01*
X22596Y81369D01*
X22773Y81606D01*
X23246Y82147D01*
X23530Y82436D01*
X23551Y82489D01*
X24103Y83208D01*
X24461Y84073D01*
X24583Y85000D01*
X24461Y85927D01*
X24103Y86792D01*
X23534Y87534D01*
X22792Y88103D01*
X21927Y88461D01*
X21000Y88583D01*
X20073Y88461D01*
X19208Y88103D01*
X18466Y87534D01*
X17897Y86792D01*
X17539Y85927D01*
X17417Y85000D01*
X17539Y84073D01*
X17897Y83208D01*
X18449Y82489D01*
X18470Y82436D01*
X18754Y82147D01*
X19227Y81606D01*
X19404Y81369D01*
X19553Y81143D01*
X19669Y80935D01*
X19754Y80747D01*
X19810Y80582D01*
X19840Y80439D01*
X19852Y80270D01*
X19879Y80218D01*
Y71000D01*
X19878Y71000D01*
X19964Y70571D01*
X20207Y70207D01*
X25878Y64535D01*
Y6810D01*
X25131Y6569D01*
X24378Y6560D01*
X24153Y6897D01*
X23624Y7251D01*
X23000Y7375D01*
X22376Y7251D01*
X21847Y6897D01*
X21493Y6368D01*
X21390Y5851D01*
X21380Y5831D01*
X21373Y5819D01*
X21365Y5810D01*
X21364Y5806D01*
X21359Y5798D01*
X21355Y5779D01*
X21352Y5772D01*
X21352Y5770D01*
X21341Y5751D01*
X21322Y5720D01*
X21298Y5686D01*
X21202Y5574D01*
X21142Y5511D01*
X21117Y5446D01*
X20364Y4693D01*
X18802Y4330D01*
X18276Y4681D01*
X17656Y4805D01*
X17398Y4977D01*
X17385Y5040D01*
X17122Y5433D01*
X16728Y5697D01*
X16264Y5789D01*
X15799Y5697D01*
X15405Y5433D01*
X11024Y1052D01*
X10949Y993D01*
X10000Y590D01*
X9114Y966D01*
X8962Y1066D01*
X4642Y5386D01*
X4626Y5402D01*
X4626D01*
X4595Y5434D01*
X4595Y5434D01*
X4201Y5697D01*
X4201D01*
X3736Y5789D01*
X3736Y5789D01*
X3272Y5697D01*
X3272D01*
X3272Y5697D01*
X2878Y5433D01*
X2878D01*
X2615Y5040D01*
X2615Y5040D01*
X2598Y4956D01*
X1203Y4103D01*
X-45Y4375D01*
X-22110Y26440D01*
X-22133Y26502D01*
X-22260Y26638D01*
X-22293Y26680D01*
X-22322Y26720D01*
X-22341Y26750D01*
X-22352Y26770D01*
X-22352Y26772D01*
X-22355Y26779D01*
X-22359Y26798D01*
X-22364Y26806D01*
X-22365Y26811D01*
X-22373Y26819D01*
X-22380Y26831D01*
X-22390Y26851D01*
X-22493Y27368D01*
X-22847Y27897D01*
X-23376Y28251D01*
X-24000Y28375D01*
X-24624Y28251D01*
X-25153Y27897D01*
X-25379Y27560D01*
X-26131Y27569D01*
X-26878Y27810D01*
Y29732D01*
X-26878Y29733D01*
X-26964Y30162D01*
X-27207Y30526D01*
X-27207Y30526D01*
X-31251Y34570D01*
X-31294Y35439D01*
X-31268Y36046D01*
X-30862Y36505D01*
X-31201Y36845D01*
X-31221Y36912D01*
Y36912D01*
X-31286Y36992D01*
X-31290Y37002D01*
X-31292Y37016D01*
X-31290Y37062D01*
X-31266Y37152D01*
X-31207Y37286D01*
X-31106Y37457D01*
X-30960Y37659D01*
X-30768Y37887D01*
X-30519Y38148D01*
X-30503Y38190D01*
X-25846Y42847D01*
X-25493Y43376D01*
X-25369Y44000D01*
Y60447D01*
X-25493Y61071D01*
X-25846Y61600D01*
X-27393Y63147D01*
X-27409Y63188D01*
X-27658Y63451D01*
X-27850Y63680D01*
X-27995Y63882D01*
X-28095Y64054D01*
X-28152Y64189D01*
X-28174Y64281D01*
X-28176Y64332D01*
X-28172Y64354D01*
X-28162Y64374D01*
X-28091Y64462D01*
X-28078Y64506D01*
X-22185Y70399D01*
X-28601Y76815D01*
X-34336Y71081D01*
X-34403Y71061D01*
X-34493Y70989D01*
X-34513Y70979D01*
X-34535Y70974D01*
X-34585Y70976D01*
X-34676Y70998D01*
X-34809Y71054D01*
X-34980Y71152D01*
X-35181Y71296D01*
X-35408Y71486D01*
X-35669Y71734D01*
X-35710Y71750D01*
X-38642Y74682D01*
X-38658Y74723D01*
X-38907Y74986D01*
X-39099Y75214D01*
X-39244Y75417D01*
X-39344Y75589D01*
X-39401Y75724D01*
X-39423Y75816D01*
X-39425Y75866D01*
X-39421Y75889D01*
X-39411Y75908D01*
X-39340Y75997D01*
X-39327Y76041D01*
X-38862Y76506D01*
X-42494Y80138D01*
X-46001Y76632D01*
X-47227Y75971D01*
X-47632Y75566D01*
X-49112Y74086D01*
X-47013Y71987D01*
X-44914Y69888D01*
X-43434Y71368D01*
X-43029Y71773D01*
X-42805Y72154D01*
X-42464Y72328D01*
X-42205Y72395D01*
X-40990Y72391D01*
X-40949Y72375D01*
X-38017Y69443D01*
X-38002Y69402D01*
X-37754Y69141D01*
X-37563Y68914D01*
X-37420Y68712D01*
X-37322Y68542D01*
X-37266Y68408D01*
X-37244Y68317D01*
X-37242Y68268D01*
X-37246Y68246D01*
X-37256Y68225D01*
X-37328Y68136D01*
X-37348Y68068D01*
X-43369Y62048D01*
X-36952Y55631D01*
X-31059Y61524D01*
X-31016Y61537D01*
X-30927Y61609D01*
X-30907Y61619D01*
X-30885Y61623D01*
X-30835Y61621D01*
X-30742Y61598D01*
X-30608Y61541D01*
X-30436Y61442D01*
X-30233Y61297D01*
X-30004Y61105D01*
X-29741Y60856D01*
X-29700Y60840D01*
X-28631Y59771D01*
Y44676D01*
X-32810Y40497D01*
X-32851Y40481D01*
X-33113Y40232D01*
X-33341Y40040D01*
X-33542Y39894D01*
X-33714Y39793D01*
X-33847Y39734D01*
X-33938Y39710D01*
X-33984Y39708D01*
X-33998Y39710D01*
X-34008Y39715D01*
X-34088Y39779D01*
X-34088Y39779D01*
X-34155Y39799D01*
X-34495Y40138D01*
X-34954Y39732D01*
X-34960Y39716D01*
X-35001Y39679D01*
X-35021Y39612D01*
X-38405Y36227D01*
X-39227Y35405D01*
X-40455Y34177D01*
X-40471Y34174D01*
X-40501Y34132D01*
X-40551Y34115D01*
X-40584Y34048D01*
X-41140Y33493D01*
X-41383Y33427D01*
X-41713Y33368D01*
X-42607Y33293D01*
X-43145Y33283D01*
X-43186Y33265D01*
X-50405D01*
X-53840Y36700D01*
X-53856Y36741D01*
X-54105Y37004D01*
X-54297Y37233D01*
X-54442Y37436D01*
X-54541Y37607D01*
X-54598Y37742D01*
X-54621Y37835D01*
X-54623Y37885D01*
X-54619Y37907D01*
X-54609Y37927D01*
X-54537Y38016D01*
X-54524Y38059D01*
X-48631Y43952D01*
X-55048Y50369D01*
X-60925Y44491D01*
X-60993Y44471D01*
X-61082Y44399D01*
X-61103Y44389D01*
X-61125Y44385D01*
X-61174Y44387D01*
X-61265Y44409D01*
X-61399Y44464D01*
X-61569Y44563D01*
X-61771Y44706D01*
X-61998Y44897D01*
X-62259Y45145D01*
X-62300Y45160D01*
X-65183Y48043D01*
X-65247Y48153D01*
X-65204Y49367D01*
X-65128Y49618D01*
X-64961Y49914D01*
X-64773Y50029D01*
X-64368Y50434D01*
X-62888Y51914D01*
X-64987Y54013D01*
X-67086Y56112D01*
X-68566Y54632D01*
X-68971Y54227D01*
X-69632Y53001D01*
X-73138Y49494D01*
X-69506Y45862D01*
X-68899Y46469D01*
X-68856Y46481D01*
X-68767Y46553D01*
X-68746Y46563D01*
X-68723Y46567D01*
X-68673Y46565D01*
X-68580Y46543D01*
X-68445Y46485D01*
X-68273Y46386D01*
X-68071Y46241D01*
X-67842Y46050D01*
X-67580Y45801D01*
X-67539Y45785D01*
X-64607Y42853D01*
X-64591Y42812D01*
X-64343Y42551D01*
X-64153Y42324D01*
X-64009Y42123D01*
X-63911Y41952D01*
X-63855Y41819D01*
X-63833Y41728D01*
X-63832Y41678D01*
X-63836Y41656D01*
X-63846Y41636D01*
X-63918Y41546D01*
X-63938Y41478D01*
X-69815Y35601D01*
X-63399Y29184D01*
X-57506Y35078D01*
X-57462Y35091D01*
X-57374Y35162D01*
X-57354Y35172D01*
X-57332Y35176D01*
X-57281Y35174D01*
X-57189Y35152D01*
X-57054Y35095D01*
X-56882Y34995D01*
X-56680Y34850D01*
X-56451Y34658D01*
X-56188Y34409D01*
X-56147Y34393D01*
X-52234Y30480D01*
X-51705Y30127D01*
X-51081Y30002D01*
X-43521D01*
X-43501Y29991D01*
X-43467Y29999D01*
X-43435Y29985D01*
X-42353Y29946D01*
X-41939Y29901D01*
X-41594Y29840D01*
X-41443Y29800D01*
X-40910Y29267D01*
X-40893Y29216D01*
X-40843Y29191D01*
X-40818Y29142D01*
X-40771Y29128D01*
X-39505Y27862D01*
X-38387Y28981D01*
X-38379Y28977D01*
X-38300Y28920D01*
X-38201Y28837D01*
X-38076Y28719D01*
X-38013Y28694D01*
X-35704Y26386D01*
X-36279Y25000D01*
X-61414D01*
X-94878Y58465D01*
Y77449D01*
X-94851Y77509D01*
X-94844Y77695D01*
X-94838Y77748D01*
X-94830Y77797D01*
X-94822Y77832D01*
X-94816Y77853D01*
X-94814Y77855D01*
X-94812Y77862D01*
X-94801Y77878D01*
X-94799Y77887D01*
X-94797Y77891D01*
X-94796Y77903D01*
X-94793Y77916D01*
X-94786Y77937D01*
X-94493Y78376D01*
X-94369Y79000D01*
X-94493Y79624D01*
X-94846Y80154D01*
X-95376Y80507D01*
X-96000Y80631D01*
X-96624Y80507D01*
X-97154Y80154D01*
X-97507Y79624D01*
X-97631Y79000D01*
X-97507Y78376D01*
X-97214Y77937D01*
X-97207Y77916D01*
X-97204Y77903D01*
X-97203Y77891D01*
X-97201Y77887D01*
X-97199Y77878D01*
X-97188Y77862D01*
X-97186Y77855D01*
X-97184Y77853D01*
X-97178Y77832D01*
X-97170Y77797D01*
X-97163Y77756D01*
X-97151Y77609D01*
X-97149Y77522D01*
X-97122Y77458D01*
Y58000D01*
X-97122Y58000D01*
X-97036Y57571D01*
X-96793Y57207D01*
X-65972Y26386D01*
X-66546Y25000D01*
X-81000D01*
Y-2325D01*
X-83190D01*
X-83231Y-2299D01*
X-83316Y-2302D01*
X-83350Y-2288D01*
X-83962Y-2325D01*
X-83971Y-2325D01*
X-85054Y-894D01*
X-85031Y-819D01*
X-85031Y-247D01*
Y1846D01*
X-88000D01*
Y2347D01*
X-88500D01*
Y5512D01*
X-89531D01*
X-90969Y5512D01*
X-92469Y5512D01*
X-93500D01*
Y2347D01*
X-94500D01*
Y5512D01*
X-96969D01*
Y5270D01*
X-98089Y4755D01*
X-98469Y4697D01*
X-99368Y5435D01*
X-100498Y6039D01*
X-101725Y6411D01*
X-103000Y6537D01*
X-104275Y6411D01*
X-105502Y6039D01*
X-106632Y5435D01*
X-107622Y4622D01*
X-108435Y3632D01*
X-109039Y2502D01*
X-109411Y1275D01*
X-109537Y0D01*
X-109411Y-1275D01*
X-109039Y-2502D01*
X-108435Y-3632D01*
X-107622Y-4622D01*
X-106632Y-5435D01*
X-105502Y-6039D01*
X-104275Y-6411D01*
X-103000Y-6537D01*
X-101725Y-6411D01*
X-100498Y-6039D01*
X-99368Y-5435D01*
X-98378Y-4622D01*
X-98068Y-4246D01*
X-96569Y-4782D01*
Y-7112D01*
X-92174D01*
X-92111Y-7146D01*
X-92057Y-7143D01*
X-92041Y-7149D01*
X-92041Y-7149D01*
X-91024Y-7123D01*
X-89949Y-7154D01*
X-89925Y-7157D01*
X-89915Y-7160D01*
X-89903Y-7169D01*
X-89873Y-7203D01*
X-89825Y-7284D01*
X-89772Y-7420D01*
X-89723Y-7612D01*
X-89683Y-7858D01*
X-89658Y-8155D01*
X-89649Y-8516D01*
X-89631Y-8556D01*
Y-9444D01*
X-89649Y-9484D01*
X-89658Y-9845D01*
X-89683Y-10142D01*
X-89723Y-10388D01*
X-89772Y-10580D01*
X-89825Y-10716D01*
X-89873Y-10797D01*
X-89903Y-10831D01*
X-89915Y-10840D01*
X-89925Y-10843D01*
X-90028Y-10855D01*
X-90028Y-10855D01*
X-90089Y-10888D01*
X-90569D01*
X-90606Y-11500D01*
X-90599Y-11516D01*
X-90602Y-11571D01*
X-90569Y-11632D01*
Y-12625D01*
X-90578Y-12639D01*
X-90569Y-12690D01*
X-90592Y-12736D01*
X-90569Y-12808D01*
Y-13593D01*
X-90694Y-13812D01*
X-90885Y-14087D01*
X-91465Y-14772D01*
X-91838Y-15159D01*
X-91855Y-15201D01*
X-93154Y-16500D01*
X-93507Y-17029D01*
X-93631Y-17653D01*
Y-19028D01*
X-93810Y-19193D01*
X-95131Y-19949D01*
X-95846Y-19806D01*
X-98386Y-18944D01*
X-100791Y-17758D01*
X-103022Y-16268D01*
X-105038Y-14499D01*
X-106807Y-12483D01*
X-108297Y-10253D01*
X-109483Y-7847D01*
X-110345Y-5307D01*
X-110869Y-2676D01*
X-111044Y0D01*
X-110869Y2676D01*
X-110345Y5307D01*
X-109483Y7847D01*
X-108297Y10253D01*
X-106807Y12483D01*
X-105038Y14499D01*
X-103022Y16268D01*
X-100791Y17758D01*
X-98386Y18944D01*
X-96092Y19723D01*
X-94719Y20030D01*
X-94719Y20030D01*
X-94683Y20034D01*
X-94726Y20427D01*
X-94893Y21513D01*
X-95972Y28523D01*
X-97570Y36557D01*
X-99517Y44514D01*
X-101809Y52379D01*
X-104442Y60136D01*
X-107411Y67770D01*
X-110711Y75268D01*
X-114333Y82615D01*
X-118274Y89797D01*
X-122523Y96800D01*
X-127074Y103611D01*
X-131918Y110217D01*
X-137045Y116606D01*
X-142446Y122764D01*
X-148111Y128682D01*
X-154028Y134346D01*
X-160187Y139748D01*
X-166576Y144875D01*
X-173182Y149719D01*
X-179993Y154270D01*
X-184290Y156877D01*
D01*
X-185470Y157754D01*
X-186949Y159051D01*
X-188651Y160991D01*
X-190084Y163136D01*
X-191226Y165451D01*
X-192055Y167894D01*
X-192559Y170425D01*
X-192727Y173000D01*
X-192559Y175575D01*
X-192055Y178106D01*
X-191226Y180549D01*
X-190084Y182864D01*
X-188651Y185009D01*
X-186949Y186949D01*
X-185009Y188651D01*
X-182864Y190084D01*
X-180549Y191226D01*
X-178106Y192055D01*
X-175575Y192559D01*
X-173000Y192727D01*
X-170425Y192559D01*
X-167894Y192055D01*
X-165451Y191226D01*
X-163136Y190084D01*
X-160991Y188651D01*
X-159051Y186949D01*
X-157754Y185470D01*
X-156877Y184290D01*
X-156149Y183091D01*
X-154270Y179993D01*
X-149719Y173182D01*
X-144875Y166576D01*
X-139748Y160187D01*
X-134346Y154028D01*
X-128682Y148111D01*
X-122764Y142446D01*
X-116606Y137045D01*
X-110217Y131918D01*
X-103611Y127074D01*
X-96800Y122523D01*
X-89797Y118274D01*
X-82615Y114333D01*
X-75268Y110711D01*
X-67770Y107411D01*
X-60136Y104442D01*
X-52379Y101809D01*
X-44514Y99517D01*
X-36557Y97570D01*
X-28523Y95972D01*
X-24942Y95421D01*
X-25194Y96684D01*
X-25214Y96980D01*
X-25337Y98854D01*
X-25194Y101024D01*
X-24770Y103158D01*
X-24071Y105218D01*
X-23109Y107168D01*
X-21969Y108874D01*
X-21000Y110000D01*
X21000D01*
X21968Y108876D01*
X23109Y107168D01*
X24071Y105218D01*
X24770Y103158D01*
X25194Y101024D01*
X25337Y98854D01*
X25214Y96980D01*
X25194Y96684D01*
X24942Y95421D01*
X26213Y95616D01*
X26520Y95664D01*
X28523Y95972D01*
X36557Y97570D01*
X44514Y99517D01*
X52379Y101809D01*
X60136Y104442D01*
X67770Y107411D01*
X75268Y110711D01*
X82615Y114333D01*
X89797Y118274D01*
X96800Y122523D01*
X103611Y127074D01*
X110217Y131918D01*
X116606Y137045D01*
X122764Y142446D01*
X128682Y148111D01*
X134346Y154028D01*
X139748Y160187D01*
X144875Y166576D01*
X149719Y173182D01*
X154270Y179993D01*
X156877Y184290D01*
D01*
X157754Y185470D01*
X159051Y186949D01*
X160991Y188651D01*
X163136Y190084D01*
X165451Y191226D01*
X167894Y192055D01*
X170425Y192559D01*
X173000Y192727D01*
X175575Y192559D01*
D02*
G37*
G36*
X-62430Y44412D02*
X-62169Y44192D01*
X-61921Y44016D01*
X-61688Y43881D01*
X-61468Y43789D01*
X-61263Y43740D01*
X-61072Y43733D01*
X-60896Y43768D01*
X-60733Y43846D01*
X-60585Y43966D01*
X-63413Y41138D01*
X-63293Y41286D01*
X-63215Y41449D01*
X-63180Y41626D01*
X-63187Y41817D01*
X-63236Y42022D01*
X-63328Y42241D01*
X-63463Y42474D01*
X-63639Y42722D01*
X-63858Y42983D01*
X-64120Y43259D01*
X-62706Y44673D01*
X-62430Y44412D01*
D02*
G37*
G36*
X135960Y130552D02*
X135852Y130545D01*
X135739Y130523D01*
X135620Y130484D01*
X135497Y130431D01*
X135369Y130361D01*
X135236Y130276D01*
X135097Y130175D01*
X134954Y130059D01*
X134653Y129779D01*
X133239Y131193D01*
X133386Y131346D01*
X133635Y131638D01*
X133736Y131776D01*
X133821Y131909D01*
X133890Y132037D01*
X133944Y132160D01*
X133982Y132279D01*
X134005Y132392D01*
X134011Y132501D01*
X135960Y130552D01*
D02*
G37*
G36*
X110905Y114691D02*
X110642Y114414D01*
X110422Y114151D01*
X110244Y113902D01*
X110108Y113668D01*
X110015Y113448D01*
X109965Y113242D01*
X109957Y113050D01*
X109992Y112873D01*
X110069Y112710D01*
X110189Y112561D01*
X107494Y115272D01*
X107619Y115176D01*
X107761Y115120D01*
X107919Y115103D01*
X108093Y115126D01*
X108284Y115190D01*
X108492Y115293D01*
X108717Y115436D01*
X108958Y115619D01*
X109216Y115842D01*
X109490Y116105D01*
X110905Y114691D01*
D02*
G37*
G36*
X-33620Y36297D02*
X-33578Y36206D01*
X-33509Y36093D01*
X-33413Y35958D01*
X-33137Y35623D01*
X-32890Y35360D01*
X-32552Y35698D01*
X-32612Y35624D01*
X-32650Y35543D01*
X-32667Y35454D01*
X-32663Y35358D01*
X-32638Y35254D01*
X-32591Y35144D01*
X-32523Y35026D01*
X-32433Y34901D01*
X-32322Y34769D01*
X-32190Y34629D01*
X-32897Y33922D01*
X-33036Y34055D01*
X-33169Y34166D01*
X-33294Y34255D01*
X-33411Y34324D01*
X-33522Y34370D01*
X-33625Y34396D01*
X-33721Y34400D01*
X-33810Y34383D01*
X-33891Y34344D01*
X-33966Y34284D01*
X-33639Y34611D01*
X-34360Y35242D01*
X-34473Y35311D01*
X-34565Y35353D01*
X-34634Y35366D01*
X-33634Y36367D01*
X-33620Y36297D01*
D02*
G37*
G36*
X126882Y125378D02*
X126614Y125108D01*
X125601Y123944D01*
X125578Y123881D01*
X125587Y123845D01*
X123934Y125498D01*
X123970Y125489D01*
X124033Y125511D01*
X124122Y125564D01*
X124236Y125648D01*
X124377Y125762D01*
X124953Y126288D01*
X125467Y126793D01*
X126882Y125378D01*
D02*
G37*
G36*
X-55162Y38275D02*
X-55240Y38112D01*
X-55275Y37935D01*
X-55267Y37744D01*
X-55217Y37538D01*
X-55124Y37318D01*
X-54989Y37083D01*
X-54811Y36835D01*
X-54590Y36571D01*
X-54327Y36294D01*
X-55741Y34880D01*
X-56018Y35143D01*
X-56281Y35364D01*
X-56530Y35542D01*
X-56765Y35677D01*
X-56985Y35770D01*
X-57191Y35820D01*
X-57382Y35828D01*
X-57559Y35793D01*
X-57722Y35716D01*
X-57871Y35596D01*
X-55042Y38424D01*
X-55162Y38275D01*
D02*
G37*
G36*
X-95338Y78243D02*
X-95372Y78193D01*
X-95402Y78136D01*
X-95428Y78071D01*
X-95450Y78000D01*
X-95468Y77921D01*
X-95482Y77835D01*
X-95492Y77742D01*
X-95500Y77534D01*
X-96500D01*
X-96502Y77641D01*
X-96518Y77835D01*
X-96532Y77921D01*
X-96550Y78000D01*
X-96572Y78071D01*
X-96598Y78136D01*
X-96628Y78193D01*
X-96662Y78243D01*
X-96700Y78286D01*
X-95300D01*
X-95338Y78243D01*
D02*
G37*
G36*
X-39965Y76257D02*
X-40042Y76094D01*
X-40077Y75917D01*
X-40069Y75725D01*
X-40019Y75520D01*
X-39926Y75299D01*
X-39791Y75065D01*
X-39613Y74816D01*
X-39392Y74553D01*
X-39129Y74276D01*
X-40543Y72861D01*
X-40821Y73125D01*
X-41084Y73345D01*
X-41332Y73523D01*
X-41567Y73659D01*
X-41787Y73752D01*
X-41993Y73802D01*
X-42184Y73810D01*
X-42362Y73775D01*
X-42524Y73697D01*
X-42673Y73577D01*
X-39845Y76406D01*
X-39965Y76257D01*
D02*
G37*
G36*
X32769Y82589D02*
X32268Y82015D01*
X32064Y81742D01*
X31892Y81480D01*
X31751Y81228D01*
X31641Y80985D01*
X31563Y80753D01*
X31516Y80531D01*
X31500Y80318D01*
X30500D01*
X30484Y80531D01*
X30437Y80753D01*
X30359Y80985D01*
X30249Y81228D01*
X30108Y81480D01*
X29936Y81742D01*
X29732Y82015D01*
X29231Y82589D01*
X28933Y82891D01*
X33067D01*
X32769Y82589D01*
D02*
G37*
G36*
X22769D02*
X22268Y82015D01*
X22064Y81742D01*
X21892Y81480D01*
X21751Y81228D01*
X21641Y80985D01*
X21563Y80753D01*
X21516Y80531D01*
X21500Y80318D01*
X20500D01*
X20484Y80531D01*
X20437Y80753D01*
X20359Y80985D01*
X20249Y81228D01*
X20108Y81480D01*
X19936Y81742D01*
X19732Y82015D01*
X19231Y82589D01*
X18933Y82891D01*
X23067D01*
X22769Y82589D01*
D02*
G37*
G36*
X151634Y154156D02*
X151544Y154218D01*
X151434Y154243D01*
X151304Y154232D01*
X151153Y154185D01*
X150982Y154101D01*
X150790Y153981D01*
X150579Y153825D01*
X150347Y153633D01*
X149821Y153140D01*
X148407Y154554D01*
X148672Y154827D01*
X149093Y155311D01*
X149249Y155523D01*
X149369Y155714D01*
X149452Y155885D01*
X149499Y156036D01*
X149510Y156167D01*
X149485Y156277D01*
X149424Y156366D01*
X151634Y154156D01*
D02*
G37*
G36*
X146139Y149457D02*
X145875Y149179D01*
X145655Y148916D01*
X145476Y148668D01*
X145341Y148433D01*
X145248Y148213D01*
X145198Y148007D01*
X145190Y147816D01*
X145225Y147638D01*
X145303Y147476D01*
X145423Y147327D01*
X142595Y150155D01*
X142743Y150035D01*
X142906Y149958D01*
X143083Y149923D01*
X143275Y149931D01*
X143481Y149981D01*
X143701Y150074D01*
X143935Y150209D01*
X144184Y150387D01*
X144447Y150608D01*
X144724Y150871D01*
X146139Y149457D01*
D02*
G37*
G36*
X-66574Y49631D02*
X-66646Y49474D01*
X-66676Y49303D01*
X-66664Y49116D01*
X-66611Y48915D01*
X-66516Y48699D01*
X-66379Y48468D01*
X-66201Y48222D01*
X-65981Y47962D01*
X-65719Y47686D01*
X-67133Y46272D01*
X-67410Y46535D01*
X-67673Y46755D01*
X-67921Y46933D01*
X-68155Y47068D01*
X-68376Y47161D01*
X-68581Y47211D01*
X-68773Y47219D01*
X-68950Y47184D01*
X-69114Y47107D01*
X-69263Y46987D01*
X-66460Y49773D01*
X-66574Y49631D01*
D02*
G37*
G36*
X-35840Y71001D02*
X-35579Y70782D01*
X-35331Y70605D01*
X-35098Y70471D01*
X-34879Y70379D01*
X-34674Y70330D01*
X-34483Y70323D01*
X-34306Y70358D01*
X-34143Y70436D01*
X-33995Y70556D01*
X-36823Y67728D01*
X-36703Y67876D01*
X-36625Y68039D01*
X-36590Y68215D01*
X-36597Y68406D01*
X-36647Y68611D01*
X-36738Y68831D01*
X-36873Y69064D01*
X-37050Y69311D01*
X-37269Y69573D01*
X-37530Y69849D01*
X-36116Y71263D01*
X-35840Y71001D01*
D02*
G37*
G36*
X-28716Y64722D02*
X-28793Y64559D01*
X-28828Y64382D01*
X-28820Y64191D01*
X-28770Y63985D01*
X-28677Y63765D01*
X-28542Y63530D01*
X-28364Y63281D01*
X-28143Y63018D01*
X-27880Y62741D01*
X-29294Y61327D01*
X-29572Y61590D01*
X-29835Y61811D01*
X-30083Y61989D01*
X-30318Y62124D01*
X-30538Y62217D01*
X-30744Y62267D01*
X-30935Y62275D01*
X-31112Y62240D01*
X-31275Y62162D01*
X-31424Y62042D01*
X-28596Y64871D01*
X-28716Y64722D01*
D02*
G37*
G36*
X20315Y2352D02*
X19593Y1565D01*
X18822Y2336D01*
X18844Y2346D01*
X18879Y2370D01*
X18926Y2408D01*
X19143Y2604D01*
X19608Y3059D01*
X20315Y2352D01*
D02*
G37*
G36*
X1178Y2336D02*
X407Y1565D01*
X397Y1588D01*
X373Y1622D01*
X336Y1670D01*
X140Y1887D01*
X-316Y2352D01*
X392Y3059D01*
X1178Y2336D01*
D02*
G37*
G36*
X-13997Y3933D02*
X-13985Y3873D01*
X-13966Y3812D01*
X-13939Y3748D01*
X-13904Y3682D01*
X-13861Y3613D01*
X-13810Y3543D01*
X-13751Y3470D01*
X-13610Y3317D01*
X-14317Y2610D01*
X-14394Y2685D01*
X-14543Y2810D01*
X-14613Y2861D01*
X-14682Y2904D01*
X-14748Y2939D01*
X-14812Y2966D01*
X-14874Y2985D01*
X-14933Y2997D01*
X-14990Y3000D01*
X-14000Y3990D01*
X-13997Y3933D01*
D02*
G37*
G36*
X113494Y117041D02*
X113457Y117050D01*
X113394Y117027D01*
X113306Y116975D01*
X113191Y116891D01*
X113051Y116777D01*
X112474Y116251D01*
X111960Y115746D01*
X110546Y117161D01*
X110814Y117430D01*
X111827Y118595D01*
X111849Y118658D01*
X111841Y118694D01*
X113494Y117041D01*
D02*
G37*
G36*
X11479Y-981D02*
X11456Y-991D01*
X11422Y-1015D01*
X11374Y-1053D01*
X11157Y-1249D01*
X11090Y-1314D01*
X11073Y-1333D01*
X10953Y-1483D01*
X10847Y-1639D01*
X10755Y-1801D01*
X10677Y-1969D01*
X10613Y-2143D01*
X10564Y-2322D01*
X10528Y-2507D01*
X10507Y-2699D01*
X10500Y-2896D01*
X9500D01*
X9493Y-2699D01*
X9472Y-2507D01*
X9436Y-2322D01*
X9387Y-2143D01*
X9323Y-1969D01*
X9245Y-1801D01*
X9154Y-1639D01*
X9048Y-1483D01*
X8990Y-1412D01*
X8522Y-981D01*
X9292Y-210D01*
X9302Y-232D01*
X9326Y-267D01*
X9364Y-314D01*
X9458Y-418D01*
X9576Y-501D01*
X9717Y-571D01*
X9859Y-614D01*
X10000Y-628D01*
X10141Y-614D01*
X10283Y-571D01*
X10424Y-501D01*
X10470Y-468D01*
X10708Y-210D01*
X11479Y-981D01*
D02*
G37*
G36*
X-2998Y-1840D02*
X-3768Y-2610D01*
X-3779Y-2588D01*
X-3802Y-2554D01*
X-3840Y-2506D01*
X-4036Y-2289D01*
X-4491Y-1824D01*
X-3784Y-1117D01*
X-2998Y-1840D01*
D02*
G37*
G36*
X25883Y-3216D02*
X25160Y-4002D01*
X24390Y-3232D01*
X24412Y-3221D01*
X24446Y-3198D01*
X24494Y-3160D01*
X24711Y-2964D01*
X25176Y-2509D01*
X25883Y-3216D01*
D02*
G37*
G36*
X-1606Y-448D02*
X-2376Y-1218D01*
X-2387Y-1196D01*
X-2410Y-1161D01*
X-2448Y-1114D01*
X-2644Y-897D01*
X-3099Y-432D01*
X-2392Y275D01*
X-1606Y-448D01*
D02*
G37*
G36*
X24491Y-1824D02*
X23768Y-2610D01*
X22998Y-1840D01*
X23020Y-1830D01*
X23055Y-1806D01*
X23102Y-1768D01*
X23319Y-1572D01*
X23784Y-1117D01*
X24491Y-1824D01*
D02*
G37*
G36*
X-38353Y31565D02*
X-38311Y31473D01*
X-38242Y31360D01*
X-38145Y31226D01*
X-37869Y30891D01*
X-37623Y30627D01*
X-37284Y30966D01*
X-37344Y30891D01*
X-37383Y30810D01*
X-37400Y30721D01*
X-37396Y30625D01*
X-37370Y30522D01*
X-37324Y30411D01*
X-37255Y30294D01*
X-37166Y30169D01*
X-37055Y30036D01*
X-36922Y29897D01*
X-37629Y29190D01*
X-37769Y29322D01*
X-37901Y29433D01*
X-38026Y29523D01*
X-38144Y29591D01*
X-38254Y29638D01*
X-38358Y29663D01*
X-38454Y29667D01*
X-38543Y29650D01*
X-38624Y29612D01*
X-38698Y29552D01*
X-38372Y29878D01*
X-39093Y30509D01*
X-39206Y30578D01*
X-39297Y30620D01*
X-39367Y30634D01*
X-38366Y31634D01*
X-38353Y31565D01*
D02*
G37*
G36*
X22990Y4744D02*
X22933Y4740D01*
X22873Y4729D01*
X22812Y4710D01*
X22748Y4683D01*
X22682Y4648D01*
X22613Y4605D01*
X22543Y4554D01*
X22470Y4495D01*
X22317Y4353D01*
X21610Y5060D01*
X21685Y5138D01*
X21810Y5286D01*
X21861Y5357D01*
X21904Y5425D01*
X21939Y5491D01*
X21966Y5555D01*
X21985Y5617D01*
X21997Y5677D01*
X22000Y5734D01*
X22990Y4744D01*
D02*
G37*
G36*
X37390Y19683D02*
X37315Y19606D01*
X37190Y19457D01*
X37139Y19387D01*
X37096Y19318D01*
X37061Y19252D01*
X37034Y19188D01*
X37015Y19127D01*
X37003Y19067D01*
X37000Y19010D01*
X36010Y20000D01*
X36067Y20003D01*
X36127Y20015D01*
X36188Y20034D01*
X36252Y20061D01*
X36318Y20096D01*
X36387Y20139D01*
X36457Y20190D01*
X36530Y20249D01*
X36683Y20390D01*
X37390Y19683D01*
D02*
G37*
G36*
X-40403Y29642D02*
X-40421Y29831D01*
X-40501Y29999D01*
X-40645Y30148D01*
X-40851Y30277D01*
X-41121Y30386D01*
X-41453Y30475D01*
X-41848Y30544D01*
X-42306Y30594D01*
X-43412Y30634D01*
X-43133Y32634D01*
X-42574Y32644D01*
X-41628Y32723D01*
X-41241Y32792D01*
X-40911Y32882D01*
X-40639Y32991D01*
X-40425Y33119D01*
X-40267Y33268D01*
X-40167Y33437D01*
X-40125Y33625D01*
X-40403Y29642D01*
D02*
G37*
G36*
X-22997Y26676D02*
X-22985Y26617D01*
X-22966Y26555D01*
X-22939Y26491D01*
X-22904Y26425D01*
X-22861Y26357D01*
X-22810Y26286D01*
X-22751Y26213D01*
X-22610Y26061D01*
X-23317Y25353D01*
X-23394Y25428D01*
X-23543Y25554D01*
X-23613Y25605D01*
X-23682Y25648D01*
X-23748Y25683D01*
X-23812Y25710D01*
X-23874Y25729D01*
X-23933Y25740D01*
X-23990Y25744D01*
X-23000Y26734D01*
X-22997Y26676D01*
D02*
G37*
G36*
X18924Y3744D02*
X18201Y2957D01*
X17430Y3728D01*
X17452Y3738D01*
X17487Y3762D01*
X17534Y3800D01*
X17751Y3996D01*
X18216Y4451D01*
X18924Y3744D01*
D02*
G37*
%LPC*%
G36*
X-61847Y-90031D02*
X-64512D01*
Y-92500D01*
X-61847D01*
Y-90031D01*
D02*
G37*
G36*
X-98500Y-89805D02*
Y-91500D01*
X-96805D01*
X-96881Y-91122D01*
X-97378Y-90378D01*
X-98122Y-89881D01*
X-98500Y-89805D01*
D02*
G37*
G36*
X-99500D02*
X-99878Y-89881D01*
X-100622Y-90378D01*
X-101119Y-91122D01*
X-101195Y-91500D01*
X-99500D01*
Y-89805D01*
D02*
G37*
G36*
X45480Y-87500D02*
X40000D01*
Y-92980D01*
X40676Y-92913D01*
X41807Y-92570D01*
X42849Y-92013D01*
X43763Y-91263D01*
X44513Y-90350D01*
X45070Y-89307D01*
X45413Y-88176D01*
X45480Y-87500D01*
D02*
G37*
G36*
X-116832Y121503D02*
X-118021Y120315D01*
X-116066Y118360D01*
X-114878Y119549D01*
X-116832Y121503D01*
D02*
G37*
G36*
X-99500Y-92500D02*
X-101195D01*
X-101119Y-92878D01*
X-100622Y-93622D01*
X-99878Y-94119D01*
X-99500Y-94195D01*
Y-92500D01*
D02*
G37*
G36*
X-114936Y123399D02*
X-116125Y122210D01*
X-114171Y120256D01*
X-112982Y121445D01*
X-114936Y123399D01*
D02*
G37*
G36*
X-96805Y-92500D02*
X-98500D01*
Y-94195D01*
X-98122Y-94119D01*
X-97378Y-93622D01*
X-96881Y-92878D01*
X-96805Y-92500D01*
D02*
G37*
G36*
X36847Y-73032D02*
Y-75500D01*
X39512D01*
Y-73032D01*
X36847D01*
D02*
G37*
G36*
X23195Y-71500D02*
X21500D01*
Y-73195D01*
X21878Y-73119D01*
X22622Y-72622D01*
X23120Y-71878D01*
X23195Y-71500D01*
D02*
G37*
G36*
X156366Y150927D02*
X154899Y149460D01*
X156366Y147992D01*
X157833Y149460D01*
X156366Y150927D01*
D02*
G37*
G36*
X-156366D02*
X-157833Y149460D01*
X-156366Y147992D01*
X-154899Y149460D01*
X-156366Y150927D01*
D02*
G37*
G36*
X39512Y-76500D02*
X36847D01*
Y-78969D01*
X39512D01*
Y-76500D01*
D02*
G37*
G36*
X20500Y-71500D02*
X18805D01*
X18880Y-71878D01*
X19378Y-72622D01*
X20122Y-73119D01*
X20500Y-73195D01*
Y-71500D01*
D02*
G37*
G36*
X57000Y-69417D02*
X56073Y-69539D01*
X55208Y-69897D01*
X54466Y-70466D01*
X53897Y-71208D01*
X53539Y-72073D01*
X53417Y-73000D01*
X53539Y-73927D01*
X53897Y-74792D01*
X54466Y-75534D01*
X55208Y-76103D01*
X56073Y-76461D01*
X57000Y-76583D01*
X57927Y-76461D01*
X58792Y-76103D01*
X59534Y-75534D01*
X60103Y-74792D01*
X60461Y-73927D01*
X60583Y-73000D01*
X60461Y-72073D01*
X60103Y-71208D01*
X59534Y-70466D01*
X58792Y-69897D01*
X57927Y-69539D01*
X57000Y-69417D01*
D02*
G37*
G36*
X158540Y153101D02*
X157073Y151634D01*
X158540Y150167D01*
X160008Y151634D01*
X158540Y153101D01*
D02*
G37*
G36*
X6905Y-83300D02*
X5618D01*
Y-87808D01*
X6012D01*
X6905Y-86914D01*
Y-83300D01*
D02*
G37*
G36*
X40000Y-81020D02*
Y-86500D01*
X45480D01*
X45413Y-85824D01*
X45070Y-84693D01*
X44513Y-83650D01*
X43763Y-82737D01*
X42849Y-81987D01*
X41807Y-81430D01*
X40676Y-81087D01*
X40000Y-81020D01*
D02*
G37*
G36*
X39000D02*
X38324Y-81087D01*
X37193Y-81430D01*
X36151Y-81987D01*
X35237Y-82737D01*
X34487Y-83650D01*
X33930Y-84693D01*
X33842Y-84984D01*
X32254Y-85050D01*
X31892Y-84176D01*
X30994Y-83006D01*
X29824Y-82108D01*
X28462Y-81544D01*
X27000Y-81352D01*
X25538Y-81544D01*
X24176Y-82108D01*
X23006Y-83006D01*
X22108Y-84176D01*
X21544Y-85538D01*
X21352Y-87000D01*
X21544Y-88462D01*
X22108Y-89824D01*
X23006Y-90994D01*
X24176Y-91892D01*
X25538Y-92456D01*
X27000Y-92648D01*
X28462Y-92456D01*
X29824Y-91892D01*
X30994Y-90994D01*
X31892Y-89824D01*
X32254Y-88950D01*
X33842Y-89016D01*
X33930Y-89307D01*
X34487Y-90350D01*
X35237Y-91263D01*
X36151Y-92013D01*
X37193Y-92570D01*
X38324Y-92913D01*
X39000Y-92980D01*
Y-87000D01*
Y-81020D01*
D02*
G37*
G36*
X-158540Y153101D02*
X-160008Y151634D01*
X-158540Y150167D01*
X-157073Y151634D01*
X-158540Y153101D01*
D02*
G37*
G36*
X60953Y-93500D02*
X57500D01*
Y-96953D01*
X60953D01*
Y-93500D01*
D02*
G37*
G36*
X-122403Y-119795D02*
X-125392Y-122784D01*
X-125956Y-123348D01*
X-126046Y-123385D01*
X-126453Y-123845D01*
X-127266Y-124843D01*
X-127343Y-124921D01*
X-127357Y-124955D01*
X-127381Y-124984D01*
X-128765Y-126369D01*
X-131460D01*
X-132084Y-126493D01*
X-132613Y-126847D01*
X-135055Y-129288D01*
X-135095Y-129303D01*
X-135380Y-129568D01*
X-135494Y-129661D01*
X-135602Y-129740D01*
X-135699Y-129801D01*
X-135782Y-129846D01*
X-135850Y-129876D01*
X-135902Y-129893D01*
X-135936Y-129900D01*
X-136001Y-129903D01*
X-136081Y-129943D01*
X-136650Y-130018D01*
X-137275Y-130277D01*
X-137812Y-130688D01*
X-138223Y-131225D01*
X-138482Y-131850D01*
X-138570Y-132520D01*
X-138482Y-133191D01*
X-138223Y-133816D01*
X-137812Y-134352D01*
X-137275Y-134764D01*
X-136650Y-135022D01*
X-136388Y-135057D01*
X-135947Y-135144D01*
X-135124Y-135967D01*
X-135037Y-136408D01*
X-135002Y-136670D01*
X-134744Y-137295D01*
X-134332Y-137832D01*
X-133795Y-138244D01*
X-133170Y-138502D01*
X-132500Y-138591D01*
X-131830Y-138502D01*
X-131205Y-138244D01*
X-130668Y-137832D01*
X-130256Y-137295D01*
X-129998Y-136670D01*
X-129909Y-136000D01*
X-129998Y-135329D01*
X-130256Y-134705D01*
X-130668Y-134168D01*
X-131205Y-133756D01*
X-131830Y-133498D01*
X-132092Y-133463D01*
X-132256Y-133431D01*
X-132497Y-133237D01*
X-132648Y-132701D01*
X-132771Y-131644D01*
X-132755Y-131602D01*
X-130784Y-129631D01*
X-128089D01*
X-127465Y-129507D01*
X-126936Y-129154D01*
X-126115Y-128333D01*
X-125847Y-128154D01*
X-125667Y-127885D01*
X-125055Y-127273D01*
X-125013Y-127256D01*
X-124507Y-126760D01*
X-124000Y-126297D01*
X-123934Y-126363D01*
X-123474Y-125957D01*
X-123437Y-125867D01*
X-119884Y-122313D01*
X-122403Y-119795D01*
D02*
G37*
G36*
X122313Y-119884D02*
X119795Y-122403D01*
X122784Y-125392D01*
X123348Y-125956D01*
X123385Y-126046D01*
X123845Y-126453D01*
X124843Y-127266D01*
X124921Y-127343D01*
X124955Y-127357D01*
X124984Y-127381D01*
X126757Y-129154D01*
X127287Y-129507D01*
X127911Y-129631D01*
X127911Y-129631D01*
X130784D01*
X132748Y-131595D01*
X132763Y-131635D01*
X132770Y-131643D01*
X132497Y-133113D01*
X132452Y-133213D01*
X132039Y-133470D01*
X131830Y-133498D01*
X131205Y-133756D01*
X130668Y-134168D01*
X130256Y-134705D01*
X129998Y-135329D01*
X129909Y-136000D01*
X129998Y-136670D01*
X130256Y-137295D01*
X130668Y-137832D01*
X131205Y-138244D01*
X131830Y-138502D01*
X132500Y-138591D01*
X133170Y-138502D01*
X133795Y-138244D01*
X134332Y-137832D01*
X134744Y-137295D01*
X135002Y-136670D01*
X135037Y-136408D01*
X135124Y-135967D01*
X135947Y-135144D01*
X136388Y-135057D01*
X136650Y-135022D01*
X137275Y-134764D01*
X137812Y-134352D01*
X138223Y-133816D01*
X138482Y-133191D01*
X138570Y-132520D01*
X138482Y-131850D01*
X138223Y-131225D01*
X137812Y-130688D01*
X137275Y-130277D01*
X136650Y-130018D01*
X136081Y-129943D01*
X136001Y-129903D01*
X135936Y-129900D01*
X135902Y-129893D01*
X135850Y-129876D01*
X135782Y-129846D01*
X135699Y-129801D01*
X135602Y-129740D01*
X135500Y-129665D01*
X135243Y-129446D01*
X135104Y-129312D01*
X135062Y-129295D01*
X132613Y-126847D01*
X132084Y-126493D01*
X131460Y-126369D01*
X128587D01*
X128333Y-126115D01*
X128154Y-125847D01*
X127885Y-125667D01*
X127302Y-125084D01*
X127268Y-125043D01*
X127256Y-125013D01*
X127182Y-124937D01*
X126363Y-123934D01*
X125957Y-123474D01*
X125867Y-123437D01*
X125303Y-122873D01*
X122313Y-119884D01*
D02*
G37*
G36*
X156366Y-147992D02*
X154899Y-149460D01*
X156366Y-150927D01*
X157833Y-149460D01*
X156366Y-147992D01*
D02*
G37*
G36*
X114171Y-120256D02*
X112982Y-121445D01*
X114936Y-123399D01*
X116125Y-122210D01*
X114171Y-120256D01*
D02*
G37*
G36*
X113405Y-115699D02*
X112216Y-116888D01*
X114171Y-118842D01*
X115359Y-117653D01*
X113405Y-115699D01*
D02*
G37*
G36*
X111509Y-117595D02*
X110320Y-118783D01*
X112275Y-120738D01*
X113463Y-119549D01*
X111509Y-117595D01*
D02*
G37*
G36*
X116066Y-118360D02*
X114878Y-119549D01*
X116832Y-121503D01*
X118021Y-120315D01*
X116066Y-118360D01*
D02*
G37*
G36*
X48000Y-67369D02*
X47376Y-67493D01*
X46847Y-67847D01*
X46493Y-68376D01*
X46369Y-69000D01*
X46493Y-69624D01*
X46786Y-70063D01*
X46793Y-70084D01*
X46796Y-70098D01*
X46797Y-70109D01*
X46799Y-70113D01*
X46801Y-70122D01*
X46812Y-70138D01*
X46814Y-70145D01*
X46816Y-70147D01*
X46822Y-70168D01*
X46830Y-70204D01*
X46837Y-70244D01*
X46849Y-70391D01*
X46851Y-70478D01*
X46878Y-70542D01*
Y-80000D01*
X46878Y-80000D01*
X46964Y-80429D01*
X47207Y-80793D01*
X53961Y-87547D01*
X53340Y-89047D01*
X53047D01*
Y-92500D01*
X60953D01*
Y-89122D01*
X63535D01*
X67207Y-92793D01*
X67207Y-92793D01*
X67571Y-93036D01*
X68000Y-93122D01*
X96268D01*
X108714Y-105568D01*
X108912Y-106817D01*
X108794Y-107322D01*
X108681Y-107492D01*
X108616Y-107566D01*
X108595Y-107586D01*
X107773Y-108029D01*
X107368Y-108433D01*
X105888Y-109914D01*
X107987Y-112013D01*
X110086Y-114112D01*
X111566Y-112632D01*
X111971Y-112227D01*
X112376Y-111527D01*
X112785Y-111351D01*
X113307Y-111253D01*
X114100Y-111239D01*
X114244Y-111376D01*
X114285Y-111391D01*
X115237Y-112344D01*
X115271Y-112385D01*
X115283Y-112415D01*
X115357Y-112490D01*
X116175Y-113494D01*
X116582Y-113953D01*
X116672Y-113991D01*
X117236Y-114555D01*
X120226Y-117544D01*
X122744Y-115025D01*
X119755Y-112036D01*
X119191Y-111472D01*
X119154Y-111381D01*
X118694Y-110975D01*
X117696Y-110162D01*
X117618Y-110085D01*
X117584Y-110071D01*
X117554Y-110047D01*
X116590Y-109083D01*
X116574Y-109041D01*
X116437Y-108898D01*
X116480Y-108187D01*
X116513Y-108159D01*
X117782Y-107680D01*
X117853Y-107681D01*
X118164Y-107750D01*
X146207Y-135793D01*
X146207Y-135793D01*
X147736Y-137322D01*
X147717Y-137492D01*
X147505Y-138862D01*
Y-138862D01*
X147505Y-138862D01*
X143834Y-142534D01*
X143595Y-142773D01*
X142773Y-143595D01*
X142534Y-143833D01*
X138862Y-147505D01*
X142494Y-151138D01*
X142959Y-150673D01*
X143003Y-150661D01*
X143092Y-150589D01*
X143112Y-150579D01*
X143134Y-150575D01*
X143184Y-150577D01*
X143276Y-150599D01*
X143411Y-150656D01*
X143583Y-150756D01*
X143786Y-150901D01*
X144014Y-151093D01*
X144277Y-151342D01*
X144318Y-151358D01*
X145470Y-152510D01*
X145493Y-152624D01*
X145846Y-153154D01*
X146376Y-153507D01*
X146490Y-153530D01*
X147919Y-154958D01*
X147934Y-154999D01*
X148413Y-155509D01*
X148581Y-155711D01*
X148711Y-155888D01*
X148800Y-156030D01*
X148831Y-156094D01*
X148558Y-156366D01*
X148964Y-156825D01*
X148998Y-156840D01*
X149057Y-156902D01*
X149104Y-156912D01*
X151634Y-159442D01*
X154709Y-156366D01*
X154563Y-156220D01*
X155938Y-154846D01*
X156366Y-155275D01*
X157833Y-153808D01*
X156013Y-151987D01*
X154192Y-150167D01*
X152725Y-151634D01*
X152725Y-151634D01*
Y-152261D01*
X151634Y-153291D01*
X150356Y-152754D01*
X150274Y-152674D01*
X150232Y-152657D01*
X146625Y-149051D01*
X146609Y-149010D01*
X146360Y-148747D01*
X146168Y-148518D01*
X146023Y-148315D01*
X145924Y-148143D01*
X145867Y-148009D01*
X145844Y-147916D01*
X145842Y-147866D01*
X145847Y-147844D01*
X145856Y-147824D01*
X145928Y-147735D01*
X145941Y-147692D01*
X147227Y-146405D01*
X147466Y-146167D01*
X151138Y-142494D01*
X150042Y-141399D01*
X150122Y-141000D01*
X150122Y-141000D01*
Y-137000D01*
X150122Y-137000D01*
X150036Y-136571D01*
X149793Y-136207D01*
X149793Y-136207D01*
X147793Y-134207D01*
X147793Y-134207D01*
X100793Y-87207D01*
X100429Y-86964D01*
X100000Y-86878D01*
X100000Y-86878D01*
X69551D01*
X69491Y-86851D01*
X69305Y-86844D01*
X69252Y-86838D01*
X69204Y-86830D01*
X69168Y-86822D01*
X69147Y-86816D01*
X69145Y-86814D01*
X69138Y-86812D01*
X69122Y-86801D01*
X69113Y-86799D01*
X69109Y-86797D01*
X69098Y-86796D01*
X69084Y-86793D01*
X69063Y-86786D01*
X68624Y-86493D01*
X68000Y-86369D01*
X67376Y-86493D01*
X66847Y-86847D01*
X66729Y-87022D01*
X65420Y-87377D01*
X64963Y-87377D01*
X64793Y-87207D01*
X64429Y-86964D01*
X64000Y-86878D01*
X64000Y-86878D01*
X60246D01*
X59792Y-86021D01*
X59653Y-85378D01*
X60103Y-84792D01*
X60461Y-83927D01*
X60583Y-83000D01*
X60461Y-82073D01*
X60103Y-81208D01*
X59534Y-80466D01*
X58792Y-79897D01*
X57927Y-79539D01*
X57000Y-79417D01*
X56073Y-79539D01*
X55208Y-79897D01*
X54466Y-80466D01*
X53897Y-81208D01*
X53609Y-81902D01*
X52981Y-82189D01*
X51983Y-82397D01*
X49122Y-79535D01*
Y-70551D01*
X49149Y-70491D01*
X49156Y-70305D01*
X49162Y-70252D01*
X49170Y-70204D01*
X49178Y-70168D01*
X49184Y-70147D01*
X49186Y-70145D01*
X49188Y-70138D01*
X49199Y-70122D01*
X49201Y-70113D01*
X49203Y-70109D01*
X49204Y-70098D01*
X49207Y-70084D01*
X49214Y-70063D01*
X49507Y-69624D01*
X49631Y-69000D01*
X49507Y-68376D01*
X49154Y-67847D01*
X48624Y-67493D01*
X48000Y-67369D01*
D02*
G37*
G36*
X173000Y-158082D02*
X170666Y-158266D01*
X168390Y-158812D01*
X166227Y-159708D01*
X164232Y-160931D01*
X162452Y-162452D01*
X160931Y-164232D01*
X159708Y-166227D01*
X158812Y-168390D01*
X158266Y-170666D01*
X158082Y-173000D01*
X158266Y-175334D01*
X158812Y-177610D01*
X159708Y-179772D01*
X160931Y-181768D01*
X162452Y-183548D01*
X164232Y-185069D01*
X166227Y-186292D01*
X168390Y-187188D01*
X170666Y-187734D01*
X173000Y-187918D01*
X175334Y-187734D01*
X177610Y-187188D01*
X179772Y-186292D01*
X181768Y-185069D01*
X183548Y-183548D01*
X185069Y-181768D01*
X186292Y-179772D01*
X187188Y-177610D01*
X187734Y-175334D01*
X187918Y-173000D01*
X187734Y-170666D01*
X187188Y-168390D01*
X186292Y-166227D01*
X185069Y-164232D01*
X183548Y-162452D01*
X181768Y-160931D01*
X179772Y-159708D01*
X177610Y-158812D01*
X175334Y-158266D01*
X173000Y-158082D01*
D02*
G37*
G36*
X-173000D02*
X-175334Y-158266D01*
X-177610Y-158812D01*
X-179772Y-159708D01*
X-181768Y-160931D01*
X-183548Y-162452D01*
X-185069Y-164232D01*
X-186292Y-166227D01*
X-187188Y-168390D01*
X-187734Y-170666D01*
X-187918Y-173000D01*
X-187734Y-175334D01*
X-187188Y-177610D01*
X-186292Y-179772D01*
X-185069Y-181768D01*
X-183548Y-183548D01*
X-181768Y-185069D01*
X-179772Y-186292D01*
X-177610Y-187188D01*
X-175334Y-187734D01*
X-173000Y-187918D01*
X-170666Y-187734D01*
X-168390Y-187188D01*
X-166227Y-186292D01*
X-164232Y-185069D01*
X-162452Y-183548D01*
X-160931Y-181768D01*
X-159708Y-179772D01*
X-158812Y-177610D01*
X-158266Y-175334D01*
X-158082Y-173000D01*
X-158266Y-170666D01*
X-158812Y-168390D01*
X-159708Y-166227D01*
X-160931Y-164232D01*
X-162452Y-162452D01*
X-164232Y-160931D01*
X-166227Y-159708D01*
X-168390Y-158812D01*
X-170666Y-158266D01*
X-173000Y-158082D01*
D02*
G37*
G36*
X-147000Y-133369D02*
X-147624Y-133493D01*
X-148153Y-133846D01*
X-148507Y-134376D01*
X-148610Y-134893D01*
X-148620Y-134913D01*
X-148627Y-134924D01*
X-148635Y-134933D01*
X-148636Y-134938D01*
X-148641Y-134946D01*
X-148645Y-134965D01*
X-148648Y-134971D01*
X-148648Y-134973D01*
X-148659Y-134993D01*
X-148678Y-135024D01*
X-148702Y-135057D01*
X-148798Y-135170D01*
X-148858Y-135232D01*
X-148883Y-135297D01*
X-149793Y-136207D01*
X-150036Y-136571D01*
X-150122Y-137000D01*
X-150122Y-137000D01*
Y-141000D01*
X-150122Y-141000D01*
X-150042Y-141399D01*
X-151138Y-142494D01*
X-147466Y-146166D01*
X-147227Y-146405D01*
X-146405Y-147227D01*
X-145941Y-147692D01*
X-145928Y-147735D01*
X-145856Y-147824D01*
X-145847Y-147844D01*
X-145842Y-147866D01*
X-145844Y-147916D01*
X-145867Y-148009D01*
X-145924Y-148143D01*
X-146023Y-148315D01*
X-146168Y-148518D01*
X-146360Y-148747D01*
X-146609Y-149010D01*
X-146625Y-149051D01*
X-148153Y-150579D01*
X-150226Y-152651D01*
X-150266Y-152667D01*
X-150776Y-153146D01*
X-150979Y-153314D01*
X-151156Y-153444D01*
X-151297Y-153533D01*
X-151361Y-153563D01*
X-151634Y-153291D01*
X-151780Y-153437D01*
X-153154Y-152062D01*
X-152725Y-151634D01*
X-154192Y-150167D01*
X-156013Y-151987D01*
X-157833Y-153808D01*
X-156366Y-155275D01*
X-155938Y-154846D01*
X-154563Y-156220D01*
X-154709Y-156366D01*
X-151634Y-159442D01*
X-149619Y-157427D01*
X-149104Y-156912D01*
X-149057Y-156902D01*
X-148998Y-156840D01*
X-148964Y-156825D01*
X-148558Y-156366D01*
X-148831Y-156094D01*
X-148800Y-156030D01*
X-148711Y-155888D01*
X-148585Y-155717D01*
X-148193Y-155266D01*
X-147941Y-155007D01*
X-147925Y-154964D01*
X-145846Y-152886D01*
X-144318Y-151358D01*
X-144277Y-151342D01*
X-144014Y-151093D01*
X-143786Y-150901D01*
X-143583Y-150756D01*
X-143411Y-150656D01*
X-143276Y-150599D01*
X-143184Y-150577D01*
X-143134Y-150575D01*
X-143111Y-150579D01*
X-143092Y-150589D01*
X-143003Y-150661D01*
X-142959Y-150673D01*
X-142494Y-151138D01*
X-138862Y-147505D01*
X-142534Y-143834D01*
X-142773Y-143595D01*
X-143595Y-142773D01*
X-143833Y-142534D01*
X-147505Y-138862D01*
X-147505Y-138862D01*
X-147505Y-138862D01*
X-147662Y-137849D01*
X-146971Y-136648D01*
X-146965Y-136645D01*
X-146946Y-136641D01*
X-146938Y-136636D01*
X-146933Y-136635D01*
X-146924Y-136627D01*
X-146913Y-136620D01*
X-146893Y-136610D01*
X-146376Y-136507D01*
X-145846Y-136153D01*
X-145493Y-135624D01*
X-145369Y-135000D01*
X-145493Y-134376D01*
X-145846Y-133846D01*
X-146376Y-133493D01*
X-147000Y-133369D01*
D02*
G37*
G36*
X-156366Y-147992D02*
X-157833Y-149460D01*
X-156366Y-150927D01*
X-154899Y-149460D01*
X-156366Y-147992D01*
D02*
G37*
G36*
X158540Y-150167D02*
X157073Y-151634D01*
X158540Y-153101D01*
X160008Y-151634D01*
X158540Y-150167D01*
D02*
G37*
G36*
X-158540D02*
X-160008Y-151634D01*
X-158540Y-153101D01*
X-157073Y-151634D01*
X-158540Y-150167D01*
D02*
G37*
G36*
X-114958Y-105749D02*
X-116704Y-107494D01*
X-114819Y-109379D01*
X-113073Y-107634D01*
X-114958Y-105749D01*
D02*
G37*
G36*
X-151634Y159442D02*
X-154709Y156366D01*
X-154563Y156220D01*
X-155938Y154846D01*
X-156366Y155275D01*
X-157833Y153808D01*
X-156013Y151987D01*
X-154192Y150167D01*
X-152725Y151634D01*
X-153154Y152062D01*
X-151780Y153437D01*
X-151634Y153291D01*
X-151361Y153563D01*
X-151297Y153532D01*
X-151156Y153444D01*
X-150985Y153318D01*
X-150533Y152926D01*
X-150274Y152674D01*
X-150232Y152657D01*
X-148521Y150947D01*
X-148507Y150876D01*
X-148153Y150347D01*
X-147624Y149993D01*
X-147553Y149979D01*
X-146625Y149051D01*
X-146609Y149010D01*
X-146360Y148747D01*
X-146168Y148518D01*
X-146023Y148315D01*
X-145924Y148143D01*
X-145867Y148009D01*
X-145844Y147916D01*
X-145842Y147866D01*
X-145847Y147844D01*
X-145856Y147824D01*
X-145928Y147735D01*
X-145941Y147692D01*
X-146405Y147227D01*
X-147227Y146405D01*
X-147466Y146167D01*
X-151138Y142494D01*
X-148852Y140208D01*
X-148830Y140151D01*
X-148778Y140128D01*
X-148749Y140078D01*
X-148712Y140069D01*
X-148578Y139934D01*
X-148556Y139806D01*
X-148520Y139357D01*
X-148516Y139078D01*
X-148488Y139014D01*
Y138948D01*
X-148492Y138914D01*
X-148488Y138909D01*
Y137366D01*
X-148488Y137366D01*
X-148403Y136937D01*
X-148159Y136573D01*
X-85793Y74207D01*
X-85793Y74207D01*
X-85429Y73964D01*
X-85000Y73878D01*
X-85000Y73878D01*
X-73551D01*
X-73491Y73851D01*
X-73305Y73844D01*
X-73252Y73838D01*
X-73203Y73830D01*
X-73168Y73822D01*
X-73147Y73816D01*
X-73145Y73814D01*
X-73138Y73812D01*
X-73122Y73801D01*
X-73113Y73799D01*
X-73109Y73797D01*
X-73097Y73796D01*
X-73084Y73793D01*
X-73063Y73786D01*
X-72624Y73493D01*
X-72000Y73369D01*
X-71376Y73493D01*
X-70846Y73847D01*
X-70493Y74376D01*
X-70369Y75000D01*
X-70493Y75624D01*
X-70846Y76153D01*
X-71376Y76507D01*
X-72000Y76631D01*
X-72624Y76507D01*
X-73063Y76214D01*
X-73084Y76207D01*
X-73097Y76204D01*
X-73109Y76203D01*
X-73113Y76201D01*
X-73122Y76199D01*
X-73138Y76188D01*
X-73145Y76186D01*
X-73147Y76184D01*
X-73168Y76178D01*
X-73203Y76170D01*
X-73244Y76163D01*
X-73391Y76151D01*
X-73478Y76149D01*
X-73542Y76122D01*
X-84535D01*
X-96650Y88236D01*
X-96114Y89391D01*
X-95941Y89648D01*
X-95376Y89760D01*
X-94846Y90114D01*
X-94493Y90643D01*
X-94369Y91267D01*
X-94493Y91892D01*
X-94846Y92421D01*
X-95376Y92775D01*
X-95893Y92877D01*
X-95913Y92887D01*
X-95924Y92895D01*
X-95933Y92902D01*
X-95938Y92903D01*
X-95946Y92909D01*
X-95965Y92912D01*
X-95971Y92916D01*
X-95973Y92916D01*
X-95993Y92926D01*
X-96024Y92945D01*
X-96057Y92970D01*
X-96170Y93065D01*
X-96232Y93125D01*
X-96297Y93151D01*
X-108714Y105568D01*
X-108912Y106817D01*
X-108794Y107322D01*
X-108681Y107492D01*
X-108616Y107566D01*
X-108595Y107586D01*
X-107773Y108029D01*
X-107368Y108433D01*
X-105888Y109914D01*
X-107987Y112013D01*
X-110086Y114112D01*
X-111566Y112632D01*
X-111971Y112227D01*
X-112317Y111584D01*
X-112587Y111410D01*
X-112804Y111322D01*
X-113741Y111167D01*
X-114009Y111153D01*
X-114244Y111376D01*
X-114285Y111391D01*
X-115266Y112372D01*
X-115283Y112415D01*
X-115779Y112921D01*
X-116242Y113428D01*
X-116175Y113494D01*
X-116582Y113953D01*
X-116672Y113991D01*
X-120226Y117544D01*
X-122031Y115738D01*
X-124009Y115595D01*
X-136136Y127722D01*
X-136144Y127747D01*
X-136051Y128546D01*
X-135597Y129304D01*
X-135185Y129310D01*
X-134981Y129215D01*
X-132613Y126847D01*
X-132084Y126493D01*
X-131460Y126369D01*
X-128587D01*
X-128333Y126115D01*
X-128154Y125847D01*
X-127885Y125667D01*
X-127273Y125055D01*
X-127256Y125013D01*
X-126760Y124507D01*
X-126297Y124000D01*
X-126363Y123934D01*
X-125957Y123474D01*
X-125867Y123437D01*
X-122313Y119884D01*
X-119795Y122403D01*
X-122784Y125392D01*
X-123348Y125956D01*
X-123385Y126046D01*
X-123845Y126453D01*
X-124843Y127266D01*
X-124921Y127343D01*
X-124955Y127357D01*
X-124984Y127381D01*
X-126757Y129154D01*
X-127287Y129507D01*
X-127911Y129631D01*
X-130784D01*
X-132748Y131595D01*
X-132763Y131635D01*
X-132536Y133139D01*
X-132497Y133237D01*
X-132256Y133431D01*
X-132092Y133463D01*
X-131830Y133498D01*
X-131205Y133756D01*
X-130668Y134168D01*
X-130256Y134705D01*
X-129998Y135329D01*
X-129909Y136000D01*
X-129998Y136670D01*
X-130256Y137295D01*
X-130668Y137832D01*
X-131205Y138244D01*
X-131830Y138502D01*
X-132500Y138591D01*
X-133170Y138502D01*
X-133795Y138244D01*
X-134332Y137832D01*
X-134744Y137295D01*
X-135002Y136670D01*
X-135037Y136408D01*
X-135124Y135967D01*
X-135947Y135144D01*
X-136388Y135057D01*
X-136650Y135022D01*
X-137275Y134764D01*
X-137812Y134352D01*
X-138223Y133816D01*
X-138482Y133191D01*
X-138570Y132520D01*
X-138534Y132241D01*
X-139712Y131499D01*
X-139868Y131454D01*
X-146245Y137831D01*
Y139283D01*
X-146217Y139342D01*
X-146199Y139839D01*
X-146179Y140014D01*
X-146153Y140157D01*
X-146132Y140235D01*
X-145922Y140446D01*
X-145856Y140484D01*
X-145847Y140521D01*
X-143834Y142534D01*
X-143595Y142773D01*
X-142773Y143595D01*
X-142534Y143833D01*
X-138862Y147505D01*
X-142494Y151138D01*
X-142959Y150673D01*
X-143003Y150661D01*
X-143092Y150589D01*
X-143112Y150579D01*
X-143134Y150575D01*
X-143184Y150577D01*
X-143276Y150599D01*
X-143411Y150656D01*
X-143583Y150756D01*
X-143786Y150901D01*
X-144014Y151093D01*
X-144277Y151342D01*
X-144318Y151358D01*
X-147919Y154958D01*
X-147934Y154999D01*
X-148413Y155509D01*
X-148581Y155711D01*
X-148711Y155888D01*
X-148800Y156030D01*
X-148831Y156094D01*
X-148558Y156366D01*
X-148964Y156825D01*
X-148998Y156840D01*
X-149057Y156902D01*
X-149104Y156912D01*
X-151634Y159442D01*
D02*
G37*
G36*
X-118783Y-110320D02*
X-120738Y-112275D01*
X-119549Y-113463D01*
X-117595Y-111509D01*
X-118783Y-110320D01*
D02*
G37*
G36*
X-8400Y-89660D02*
X-18600D01*
Y-98340D01*
X-8400D01*
Y-89660D01*
D02*
G37*
G36*
X56500Y-93500D02*
X53047D01*
Y-96953D01*
X56500D01*
Y-93500D01*
D02*
G37*
G36*
X18600Y-89660D02*
X8400D01*
Y-98340D01*
X18600D01*
Y-89660D01*
D02*
G37*
G36*
X4143D02*
X-4143D01*
Y-98340D01*
X4143D01*
Y-89660D01*
D02*
G37*
G36*
X107634Y-113073D02*
X105749Y-114958D01*
X107494Y-116704D01*
X109379Y-114819D01*
X107634Y-113073D01*
D02*
G37*
G36*
X-119549Y-114878D02*
X-121503Y-116832D01*
X-120315Y-118021D01*
X-118360Y-116066D01*
X-119549Y-114878D01*
D02*
G37*
G36*
X173000Y187918D02*
X170666Y187734D01*
X168390Y187188D01*
X166227Y186292D01*
X164232Y185069D01*
X162452Y183548D01*
X160931Y181768D01*
X159708Y179772D01*
X158812Y177610D01*
X158266Y175334D01*
X158082Y173000D01*
X158266Y170666D01*
X158812Y168390D01*
X159708Y166227D01*
X160931Y164232D01*
X162452Y162452D01*
X164232Y160931D01*
X166227Y159708D01*
X168390Y158812D01*
X170666Y158266D01*
X173000Y158082D01*
X175334Y158266D01*
X177610Y158812D01*
X179772Y159708D01*
X181768Y160931D01*
X183548Y162452D01*
X185069Y164232D01*
X186292Y166227D01*
X187188Y168390D01*
X187734Y170666D01*
X187918Y173000D01*
X187734Y175334D01*
X187188Y177610D01*
X186292Y179772D01*
X185069Y181768D01*
X183548Y183548D01*
X181768Y185069D01*
X179772Y186292D01*
X177610Y187188D01*
X175334Y187734D01*
X173000Y187918D01*
D02*
G37*
G36*
X-121445Y-112982D02*
X-123399Y-114936D01*
X-122210Y-116125D01*
X-120256Y-114171D01*
X-121445Y-112982D01*
D02*
G37*
G36*
X105181Y-110621D02*
X103296Y-112505D01*
X105042Y-114251D01*
X106927Y-112366D01*
X105181Y-110621D01*
D02*
G37*
G36*
X-173000Y187918D02*
X-175334Y187734D01*
X-177610Y187188D01*
X-179772Y186292D01*
X-181768Y185069D01*
X-183548Y183548D01*
X-185069Y181768D01*
X-186292Y179772D01*
X-187188Y177610D01*
X-187734Y175334D01*
X-187918Y173000D01*
X-187734Y170666D01*
X-187188Y168390D01*
X-186292Y166227D01*
X-185069Y164232D01*
X-183548Y162452D01*
X-181768Y160931D01*
X-179772Y159708D01*
X-177610Y158812D01*
X-175334Y158266D01*
X-173000Y158082D01*
X-170666Y158266D01*
X-168390Y158812D01*
X-166227Y159708D01*
X-164232Y160931D01*
X-162452Y162452D01*
X-160931Y164232D01*
X-159708Y166227D01*
X-158812Y168390D01*
X-158266Y170666D01*
X-158082Y173000D01*
X-158266Y175334D01*
X-158812Y177610D01*
X-159708Y179772D01*
X-160931Y181768D01*
X-162452Y183548D01*
X-164232Y185069D01*
X-166227Y186292D01*
X-168390Y187188D01*
X-170666Y187734D01*
X-173000Y187918D01*
D02*
G37*
G36*
X-116888Y-112216D02*
X-118842Y-114171D01*
X-117653Y-115359D01*
X-115699Y-113405D01*
X-116888Y-112216D01*
D02*
G37*
G36*
X39512Y-68500D02*
X36847D01*
Y-70969D01*
X39512D01*
Y-68500D01*
D02*
G37*
G36*
X1500Y70708D02*
Y68500D01*
X3708D01*
X3679Y68718D01*
X3402Y69387D01*
X2961Y69961D01*
X2387Y70402D01*
X1718Y70679D01*
X1500Y70708D01*
D02*
G37*
G36*
X-49819Y73379D02*
X-51704Y71495D01*
X-49958Y69749D01*
X-48073Y71634D01*
X-49819Y73379D01*
D02*
G37*
G36*
X40500Y84500D02*
X37079D01*
X37149Y83968D01*
X37547Y83007D01*
X38181Y82181D01*
X39007Y81547D01*
X39968Y81149D01*
X40500Y81079D01*
Y84500D01*
D02*
G37*
G36*
X-6500Y70708D02*
Y68500D01*
X-4292D01*
X-4321Y68718D01*
X-4598Y69387D01*
X-5039Y69961D01*
X-5613Y70402D01*
X-6282Y70679D01*
X-6500Y70708D01*
D02*
G37*
G36*
X500D02*
X282Y70679D01*
X-387Y70402D01*
X-961Y69961D01*
X-1402Y69387D01*
X-1679Y68718D01*
X-1708Y68500D01*
X500D01*
Y70708D01*
D02*
G37*
G36*
X43500Y40195D02*
X43122Y40119D01*
X42378Y39622D01*
X41881Y38878D01*
X41805Y38500D01*
X43500D01*
Y40195D01*
D02*
G37*
G36*
X11000Y88583D02*
X10073Y88461D01*
X9208Y88103D01*
X8466Y87534D01*
X7897Y86792D01*
X7539Y85927D01*
X7417Y85000D01*
X7539Y84073D01*
X7897Y83208D01*
X8466Y82466D01*
X9208Y81897D01*
X10073Y81539D01*
X11000Y81417D01*
X11928Y81539D01*
X12792Y81897D01*
X13534Y82466D01*
X14103Y83208D01*
X14461Y84073D01*
X14583Y85000D01*
X14461Y85927D01*
X14103Y86792D01*
X13534Y87534D01*
X12792Y88103D01*
X11928Y88461D01*
X11000Y88583D01*
D02*
G37*
G36*
X50468Y-38846D02*
X48000D01*
Y-41512D01*
X50468D01*
Y-38846D01*
D02*
G37*
G36*
X47000D02*
X44532D01*
Y-41512D01*
X47000D01*
Y-38846D01*
D02*
G37*
G36*
X44921Y84500D02*
X41500D01*
Y81079D01*
X42032Y81149D01*
X42993Y81547D01*
X43819Y82181D01*
X44453Y83007D01*
X44851Y83968D01*
X44921Y84500D01*
D02*
G37*
G36*
X-9000Y88583D02*
X-9928Y88461D01*
X-10792Y88103D01*
X-11534Y87534D01*
X-12103Y86792D01*
X-12461Y85927D01*
X-12583Y85000D01*
X-12461Y84073D01*
X-12103Y83208D01*
X-11534Y82466D01*
X-10792Y81897D01*
X-9928Y81539D01*
X-9000Y81417D01*
X-8072Y81539D01*
X-7208Y81897D01*
X-6466Y82466D01*
X-5897Y83208D01*
X-5539Y84073D01*
X-5417Y85000D01*
X-5539Y85927D01*
X-5897Y86792D01*
X-6466Y87534D01*
X-7208Y88103D01*
X-8072Y88461D01*
X-9000Y88583D01*
D02*
G37*
G36*
X1000D02*
X73Y88461D01*
X-792Y88103D01*
X-1534Y87534D01*
X-2103Y86792D01*
X-2461Y85927D01*
X-2583Y85000D01*
X-2461Y84073D01*
X-2103Y83208D01*
X-1534Y82466D01*
X-792Y81897D01*
X73Y81539D01*
X1000Y81417D01*
X1927Y81539D01*
X2792Y81897D01*
X3534Y82466D01*
X4103Y83208D01*
X4461Y84073D01*
X4583Y85000D01*
X4461Y85927D01*
X4103Y86792D01*
X3534Y87534D01*
X2792Y88103D01*
X1927Y88461D01*
X1000Y88583D01*
D02*
G37*
G36*
X-7500Y70708D02*
X-7718Y70679D01*
X-8387Y70402D01*
X-8961Y69961D01*
X-9402Y69387D01*
X-9679Y68718D01*
X-9708Y68500D01*
X-7500D01*
Y70708D01*
D02*
G37*
G36*
X13500Y43450D02*
X13025Y43355D01*
X12198Y42802D01*
X11645Y41976D01*
X11551Y41500D01*
X13500D01*
Y43450D01*
D02*
G37*
G36*
X14500D02*
Y41500D01*
X16450D01*
X16355Y41976D01*
X15802Y42802D01*
X14976Y43355D01*
X14500Y43450D01*
D02*
G37*
G36*
X-62042Y56251D02*
X-63927Y54366D01*
X-62181Y52621D01*
X-60296Y54505D01*
X-62042Y56251D01*
D02*
G37*
G36*
X44500Y40195D02*
Y38500D01*
X46195D01*
X46119Y38878D01*
X45622Y39622D01*
X44878Y40119D01*
X44500Y40195D01*
D02*
G37*
G36*
X13500Y40500D02*
X11551D01*
X11645Y40025D01*
X12198Y39198D01*
X13025Y38645D01*
X13500Y38550D01*
Y40500D01*
D02*
G37*
G36*
X16450D02*
X14500D01*
Y38550D01*
X14976Y38645D01*
X15802Y39198D01*
X16355Y40025D01*
X16450Y40500D01*
D02*
G37*
G36*
X500Y67500D02*
X-1708D01*
X-1679Y67282D01*
X-1402Y66613D01*
X-961Y66039D01*
X-387Y65598D01*
X282Y65321D01*
X500Y65292D01*
Y67500D01*
D02*
G37*
G36*
X3708D02*
X1500D01*
Y65292D01*
X1718Y65321D01*
X2387Y65598D01*
X2961Y66039D01*
X3402Y66613D01*
X3679Y67282D01*
X3708Y67500D01*
D02*
G37*
G36*
X-47366Y70927D02*
X-49251Y69042D01*
X-47506Y67296D01*
X-45621Y69181D01*
X-47366Y70927D01*
D02*
G37*
G36*
X-64495Y58704D02*
X-66379Y56819D01*
X-64634Y55073D01*
X-62749Y56958D01*
X-64495Y58704D01*
D02*
G37*
G36*
X-7500Y67500D02*
X-9708D01*
X-9679Y67282D01*
X-9402Y66613D01*
X-8961Y66039D01*
X-8387Y65598D01*
X-7718Y65321D01*
X-7500Y65292D01*
Y67500D01*
D02*
G37*
G36*
X-4292D02*
X-6500D01*
Y65292D01*
X-6282Y65321D01*
X-5613Y65598D01*
X-5039Y66039D01*
X-4598Y66613D01*
X-4321Y67282D01*
X-4292Y67500D01*
D02*
G37*
G36*
X77709Y-7047D02*
X73272D01*
Y-10500D01*
X77709D01*
Y-7047D01*
D02*
G37*
G36*
X-105042Y114251D02*
X-106927Y112366D01*
X-105181Y110621D01*
X-103296Y112505D01*
X-105042Y114251D01*
D02*
G37*
G36*
X117653Y115359D02*
X115699Y113405D01*
X116888Y112216D01*
X118842Y114171D01*
X117653Y115359D01*
D02*
G37*
G36*
X77709Y-11500D02*
X73272D01*
Y-14953D01*
X77709D01*
Y-11500D01*
D02*
G37*
G36*
X83146D02*
X78709D01*
Y-14953D01*
X83146D01*
Y-11500D01*
D02*
G37*
G36*
X-87500Y5512D02*
Y2847D01*
X-85031D01*
Y5512D01*
X-87500D01*
D02*
G37*
G36*
X-114171Y118842D02*
X-115359Y117653D01*
X-113405Y115699D01*
X-112216Y116888D01*
X-114171Y118842D01*
D02*
G37*
G36*
X103000Y6537D02*
X101725Y6411D01*
X100498Y6039D01*
X99368Y5435D01*
X98378Y4622D01*
X97565Y3632D01*
X96961Y2502D01*
X96589Y1275D01*
X96463Y0D01*
X96589Y-1275D01*
X96961Y-2502D01*
X97565Y-3632D01*
X98378Y-4622D01*
X99368Y-5435D01*
X100498Y-6039D01*
X101725Y-6411D01*
X103000Y-6537D01*
X104275Y-6411D01*
X105502Y-6039D01*
X106632Y-5435D01*
X107622Y-4622D01*
X108435Y-3632D01*
X109039Y-2502D01*
X109411Y-1275D01*
X109537Y0D01*
X109411Y1275D01*
X109039Y2502D01*
X108435Y3632D01*
X107622Y4622D01*
X106632Y5435D01*
X105502Y6039D01*
X104275Y6411D01*
X103000Y6537D01*
D02*
G37*
G36*
X-112275Y120738D02*
X-113463Y119549D01*
X-111509Y117595D01*
X-110320Y118783D01*
X-112275Y120738D01*
D02*
G37*
G36*
X83146Y-7047D02*
X78709D01*
Y-10500D01*
X83146D01*
Y-7047D01*
D02*
G37*
G36*
X-107494Y116704D02*
X-109379Y114819D01*
X-107634Y113073D01*
X-105749Y114958D01*
X-107494Y116704D01*
D02*
G37*
G36*
X120315Y118021D02*
X118360Y116066D01*
X119549Y114878D01*
X121503Y116832D01*
X120315Y118021D01*
D02*
G37*
G36*
X46195Y37500D02*
X44500D01*
Y35805D01*
X44878Y35881D01*
X45622Y36378D01*
X46119Y37122D01*
X46195Y37500D01*
D02*
G37*
G36*
X41500Y88921D02*
Y85500D01*
X44921D01*
X44851Y86032D01*
X44453Y86993D01*
X43819Y87819D01*
X42993Y88453D01*
X42032Y88851D01*
X41500Y88921D01*
D02*
G37*
G36*
X-13500Y-45551D02*
X-13975Y-45645D01*
X-14802Y-46198D01*
X-15355Y-47025D01*
X-15450Y-47500D01*
X-13500D01*
Y-45551D01*
D02*
G37*
G36*
X40500Y88921D02*
X39968Y88851D01*
X39007Y88453D01*
X38181Y87819D01*
X37547Y86993D01*
X37149Y86032D01*
X37079Y85500D01*
X40500D01*
Y88921D01*
D02*
G37*
G36*
X-12500Y-45551D02*
Y-47500D01*
X-10550D01*
X-10645Y-47025D01*
X-11198Y-46198D01*
X-12025Y-45645D01*
X-12500Y-45551D01*
D02*
G37*
G36*
X64553Y88553D02*
X57447D01*
Y81447D01*
X64553D01*
Y88553D01*
D02*
G37*
G36*
X51000Y88583D02*
X50073Y88461D01*
X49208Y88103D01*
X48466Y87534D01*
X47897Y86792D01*
X47539Y85927D01*
X47417Y85000D01*
X47539Y84073D01*
X47897Y83208D01*
X48466Y82466D01*
X49208Y81897D01*
X50073Y81539D01*
X51000Y81417D01*
X51927Y81539D01*
X52792Y81897D01*
X53534Y82466D01*
X54103Y83208D01*
X54461Y84073D01*
X54583Y85000D01*
X54461Y85927D01*
X54103Y86792D01*
X53534Y87534D01*
X52792Y88103D01*
X51927Y88461D01*
X51000Y88583D01*
D02*
G37*
G36*
X-13500Y-48500D02*
X-15450D01*
X-15355Y-48976D01*
X-14802Y-49802D01*
X-13975Y-50355D01*
X-13500Y-50450D01*
Y-48500D01*
D02*
G37*
G36*
X-10550D02*
X-12500D01*
Y-50450D01*
X-12025Y-50355D01*
X-11198Y-49802D01*
X-10645Y-48976D01*
X-10550Y-48500D01*
D02*
G37*
G36*
X43500Y37500D02*
X41805D01*
X41881Y37122D01*
X42378Y36378D01*
X43122Y35881D01*
X43500Y35805D01*
Y37500D01*
D02*
G37*
%LPD*%
G36*
X145303Y-147476D02*
X145225Y-147638D01*
X145190Y-147816D01*
X145198Y-148007D01*
X145248Y-148213D01*
X145341Y-148433D01*
X145476Y-148668D01*
X145655Y-148916D01*
X145875Y-149179D01*
X146139Y-149457D01*
X144724Y-150871D01*
X144447Y-150608D01*
X144184Y-150387D01*
X143935Y-150209D01*
X143701Y-150074D01*
X143481Y-149981D01*
X143275Y-149931D01*
X143083Y-149923D01*
X142906Y-149958D01*
X142743Y-150035D01*
X142595Y-150155D01*
X145423Y-147327D01*
X145303Y-147476D01*
D02*
G37*
G36*
X134806Y-129927D02*
X135097Y-130175D01*
X135236Y-130276D01*
X135369Y-130361D01*
X135497Y-130431D01*
X135620Y-130484D01*
X135739Y-130523D01*
X135852Y-130545D01*
X135960Y-130552D01*
X134011Y-132501D01*
X134005Y-132392D01*
X133982Y-132279D01*
X133944Y-132160D01*
X133890Y-132037D01*
X133821Y-131909D01*
X133736Y-131776D01*
X133635Y-131638D01*
X133519Y-131494D01*
X133239Y-131193D01*
X134653Y-129779D01*
X134806Y-129927D01*
D02*
G37*
G36*
X-133239Y-131193D02*
X-133386Y-131346D01*
X-133635Y-131638D01*
X-133736Y-131776D01*
X-133821Y-131909D01*
X-133890Y-132037D01*
X-133944Y-132160D01*
X-133982Y-132279D01*
X-134005Y-132392D01*
X-134011Y-132501D01*
X-135960Y-130552D01*
X-135852Y-130545D01*
X-135739Y-130523D01*
X-135620Y-130484D01*
X-135497Y-130431D01*
X-135369Y-130361D01*
X-135236Y-130276D01*
X-135097Y-130175D01*
X-134954Y-130059D01*
X-134653Y-129779D01*
X-133239Y-131193D01*
D02*
G37*
G36*
X-147010Y-136000D02*
X-147067Y-136003D01*
X-147126Y-136015D01*
X-147188Y-136034D01*
X-147252Y-136061D01*
X-147318Y-136096D01*
X-147387Y-136139D01*
X-147457Y-136190D01*
X-147530Y-136249D01*
X-147683Y-136390D01*
X-148390Y-135683D01*
X-148316Y-135606D01*
X-148190Y-135457D01*
X-148139Y-135387D01*
X-148096Y-135318D01*
X-148061Y-135252D01*
X-148034Y-135188D01*
X-148015Y-135126D01*
X-148003Y-135067D01*
X-148000Y-135010D01*
X-147010Y-136000D01*
D02*
G37*
G36*
X-148407Y-154554D02*
X-148672Y-154827D01*
X-149093Y-155311D01*
X-149249Y-155523D01*
X-149369Y-155714D01*
X-149452Y-155885D01*
X-149499Y-156036D01*
X-149510Y-156167D01*
X-149485Y-156277D01*
X-149424Y-156366D01*
X-151634Y-154156D01*
X-151544Y-154218D01*
X-151434Y-154243D01*
X-151304Y-154232D01*
X-151153Y-154185D01*
X-150982Y-154101D01*
X-150790Y-153981D01*
X-150579Y-153825D01*
X-150347Y-153633D01*
X-149821Y-153140D01*
X-148407Y-154554D01*
D02*
G37*
G36*
X-142595Y-150155D02*
X-142743Y-150035D01*
X-142906Y-149958D01*
X-143083Y-149923D01*
X-143275Y-149931D01*
X-143481Y-149981D01*
X-143701Y-150074D01*
X-143935Y-150209D01*
X-144184Y-150387D01*
X-144447Y-150608D01*
X-144724Y-150871D01*
X-146139Y-149457D01*
X-145875Y-149179D01*
X-145655Y-148916D01*
X-145476Y-148668D01*
X-145341Y-148433D01*
X-145248Y-148213D01*
X-145198Y-148007D01*
X-145190Y-147816D01*
X-145225Y-147638D01*
X-145303Y-147476D01*
X-145423Y-147327D01*
X-142595Y-150155D01*
D02*
G37*
G36*
X150094Y-153405D02*
X150579Y-153825D01*
X150790Y-153981D01*
X150982Y-154101D01*
X151153Y-154185D01*
X151304Y-154232D01*
X151434Y-154243D01*
X151544Y-154218D01*
X151634Y-154156D01*
X149424Y-156366D01*
X149485Y-156277D01*
X149510Y-156167D01*
X149499Y-156036D01*
X149452Y-155885D01*
X149369Y-155714D01*
X149249Y-155523D01*
X149093Y-155311D01*
X148900Y-155079D01*
X148407Y-154554D01*
X149821Y-153140D01*
X150094Y-153405D01*
D02*
G37*
G36*
X125489Y-123970D02*
X125511Y-124033D01*
X125564Y-124122D01*
X125648Y-124236D01*
X125762Y-124377D01*
X126288Y-124953D01*
X126793Y-125467D01*
X125378Y-126882D01*
X125108Y-126614D01*
X123944Y-125601D01*
X123881Y-125578D01*
X123845Y-125587D01*
X125498Y-123934D01*
X125489Y-123970D01*
D02*
G37*
G36*
X-146468Y140848D02*
X-146552Y140793D01*
X-146625Y140710D01*
X-146689Y140601D01*
X-146743Y140464D01*
X-146788Y140299D01*
X-146822Y140107D01*
X-146847Y139888D01*
X-146866Y139367D01*
X-147866Y139088D01*
X-147871Y139387D01*
X-147910Y139887D01*
X-147945Y140087D01*
X-147989Y140254D01*
X-148043Y140389D01*
X-148107Y140490D01*
X-148181Y140559D01*
X-148264Y140594D01*
X-148358Y140597D01*
X-146375Y140875D01*
X-146468Y140848D01*
D02*
G37*
G36*
X-114414Y110642D02*
X-114151Y110422D01*
X-113902Y110244D01*
X-113668Y110108D01*
X-113448Y110015D01*
X-113242Y109965D01*
X-113050Y109957D01*
X-112873Y109992D01*
X-112710Y110069D01*
X-112561Y110189D01*
X-115272Y107494D01*
X-115176Y107619D01*
X-115120Y107761D01*
X-115103Y107919D01*
X-115126Y108093D01*
X-115190Y108284D01*
X-115293Y108492D01*
X-115436Y108717D01*
X-115619Y108958D01*
X-115842Y109216D01*
X-116105Y109490D01*
X-114691Y110905D01*
X-114414Y110642D01*
D02*
G37*
G36*
X-110344Y106892D02*
X-110383Y106810D01*
X-110400Y106721D01*
X-110396Y106625D01*
X-110371Y106522D01*
X-110324Y106411D01*
X-110255Y106293D01*
X-110166Y106168D01*
X-110055Y106036D01*
X-109922Y105897D01*
X-110629Y105190D01*
X-110769Y105322D01*
X-110901Y105433D01*
X-111026Y105523D01*
X-111144Y105591D01*
X-111254Y105638D01*
X-111358Y105663D01*
X-111454Y105667D01*
X-111542Y105650D01*
X-111624Y105612D01*
X-111698Y105552D01*
X-110284Y106966D01*
X-110344Y106892D01*
D02*
G37*
G36*
X-144447Y150608D02*
X-144184Y150387D01*
X-143935Y150209D01*
X-143701Y150074D01*
X-143481Y149981D01*
X-143275Y149931D01*
X-143083Y149923D01*
X-142906Y149958D01*
X-142743Y150035D01*
X-142595Y150155D01*
X-145423Y147327D01*
X-145303Y147476D01*
X-145225Y147638D01*
X-145190Y147816D01*
X-145198Y148007D01*
X-145248Y148213D01*
X-145341Y148433D01*
X-145476Y148668D01*
X-145655Y148916D01*
X-145875Y149179D01*
X-146139Y149457D01*
X-144724Y150871D01*
X-144447Y150608D01*
D02*
G37*
G36*
X-125108Y126614D02*
X-123944Y125601D01*
X-123881Y125578D01*
X-123845Y125587D01*
X-125498Y123934D01*
X-125489Y123970D01*
X-125511Y124033D01*
X-125564Y124122D01*
X-125648Y124236D01*
X-125762Y124377D01*
X-126288Y124953D01*
X-126793Y125467D01*
X-125378Y126882D01*
X-125108Y126614D01*
D02*
G37*
G36*
X48662Y-69757D02*
X48628Y-69807D01*
X48598Y-69864D01*
X48572Y-69928D01*
X48550Y-70000D01*
X48532Y-70079D01*
X48518Y-70165D01*
X48508Y-70258D01*
X48500Y-70466D01*
X47500D01*
X47498Y-70359D01*
X47482Y-70165D01*
X47468Y-70079D01*
X47450Y-70000D01*
X47428Y-69928D01*
X47402Y-69864D01*
X47372Y-69807D01*
X47338Y-69757D01*
X47300Y-69714D01*
X48700D01*
X48662Y-69757D01*
D02*
G37*
G36*
X-117050Y113457D02*
X-117027Y113394D01*
X-116975Y113306D01*
X-116891Y113191D01*
X-116777Y113051D01*
X-116251Y112474D01*
X-115746Y111960D01*
X-117161Y110546D01*
X-117430Y110814D01*
X-118595Y111827D01*
X-118658Y111849D01*
X-118694Y111841D01*
X-117041Y113494D01*
X-117050Y113457D01*
D02*
G37*
G36*
X-134005Y132392D02*
X-133982Y132279D01*
X-133944Y132160D01*
X-133890Y132037D01*
X-133821Y131909D01*
X-133736Y131776D01*
X-133635Y131638D01*
X-133519Y131494D01*
X-133239Y131193D01*
X-134653Y129779D01*
X-134806Y129927D01*
X-135097Y130175D01*
X-135236Y130276D01*
X-135369Y130361D01*
X-135497Y130431D01*
X-135620Y130484D01*
X-135739Y130523D01*
X-135852Y130545D01*
X-135960Y130552D01*
X-134011Y132501D01*
X-134005Y132392D01*
D02*
G37*
G36*
X115176Y-107619D02*
X115120Y-107761D01*
X115103Y-107919D01*
X115126Y-108093D01*
X115190Y-108284D01*
X115293Y-108492D01*
X115436Y-108717D01*
X115619Y-108958D01*
X115842Y-109216D01*
X116105Y-109490D01*
X114691Y-110905D01*
X114414Y-110642D01*
X114151Y-110422D01*
X113902Y-110244D01*
X113668Y-110108D01*
X113448Y-110015D01*
X113242Y-109965D01*
X113050Y-109957D01*
X112873Y-109992D01*
X112710Y-110069D01*
X112561Y-110189D01*
X115272Y-107494D01*
X115176Y-107619D01*
D02*
G37*
G36*
X110769Y-105322D02*
X110901Y-105433D01*
X111026Y-105523D01*
X111144Y-105591D01*
X111254Y-105638D01*
X111358Y-105663D01*
X111454Y-105667D01*
X111542Y-105650D01*
X111624Y-105612D01*
X111698Y-105552D01*
X110284Y-106966D01*
X110344Y-106892D01*
X110383Y-106810D01*
X110400Y-106721D01*
X110396Y-106625D01*
X110371Y-106522D01*
X110324Y-106411D01*
X110255Y-106293D01*
X110166Y-106168D01*
X110055Y-106036D01*
X109922Y-105897D01*
X110629Y-105190D01*
X110769Y-105322D01*
D02*
G37*
G36*
X-123934Y-125498D02*
X-123970Y-125489D01*
X-124033Y-125511D01*
X-124122Y-125564D01*
X-124236Y-125648D01*
X-124377Y-125762D01*
X-124953Y-126288D01*
X-125467Y-126793D01*
X-126882Y-125378D01*
X-126614Y-125108D01*
X-125601Y-123944D01*
X-125578Y-123881D01*
X-125587Y-123845D01*
X-123934Y-125498D01*
D02*
G37*
G36*
X117430Y-110814D02*
X118595Y-111827D01*
X118658Y-111849D01*
X118694Y-111841D01*
X117041Y-113494D01*
X117050Y-113457D01*
X117027Y-113394D01*
X116975Y-113306D01*
X116891Y-113191D01*
X116777Y-113051D01*
X116251Y-112474D01*
X115746Y-111960D01*
X117161Y-110546D01*
X117430Y-110814D01*
D02*
G37*
G36*
X-149485Y156277D02*
X-149510Y156167D01*
X-149499Y156036D01*
X-149452Y155885D01*
X-149369Y155714D01*
X-149249Y155523D01*
X-149093Y155311D01*
X-148900Y155079D01*
X-148407Y154554D01*
X-149821Y153140D01*
X-150094Y153405D01*
X-150579Y153825D01*
X-150790Y153981D01*
X-150982Y154101D01*
X-151153Y154185D01*
X-151304Y154232D01*
X-151434Y154243D01*
X-151544Y154218D01*
X-151634Y154156D01*
X-149424Y156366D01*
X-149485Y156277D01*
D02*
G37*
G36*
X-96606Y92583D02*
X-96457Y92457D01*
X-96387Y92406D01*
X-96318Y92364D01*
X-96252Y92328D01*
X-96188Y92301D01*
X-96127Y92282D01*
X-96067Y92271D01*
X-96010Y92267D01*
X-97000Y91277D01*
X-97003Y91334D01*
X-97015Y91394D01*
X-97034Y91456D01*
X-97061Y91519D01*
X-97096Y91586D01*
X-97139Y91654D01*
X-97190Y91725D01*
X-97249Y91798D01*
X-97390Y91951D01*
X-96683Y92658D01*
X-96606Y92583D01*
D02*
G37*
G36*
X-72714Y74300D02*
X-72757Y74338D01*
X-72807Y74372D01*
X-72864Y74402D01*
X-72929Y74428D01*
X-73000Y74450D01*
X-73079Y74468D01*
X-73165Y74482D01*
X-73258Y74492D01*
X-73466Y74500D01*
Y75500D01*
X-73359Y75502D01*
X-73165Y75518D01*
X-73079Y75532D01*
X-73000Y75550D01*
X-72929Y75572D01*
X-72864Y75598D01*
X-72807Y75628D01*
X-72757Y75662D01*
X-72714Y75700D01*
Y74300D01*
D02*
G37*
G36*
X68757Y-87338D02*
X68807Y-87372D01*
X68864Y-87402D01*
X68928Y-87428D01*
X69000Y-87450D01*
X69079Y-87468D01*
X69165Y-87482D01*
X69258Y-87492D01*
X69466Y-87500D01*
Y-88500D01*
X69358Y-88502D01*
X69165Y-88518D01*
X69079Y-88532D01*
X69000Y-88550D01*
X68928Y-88572D01*
X68864Y-88598D01*
X68807Y-88628D01*
X68757Y-88662D01*
X68714Y-88700D01*
Y-87300D01*
X68757Y-87338D01*
D02*
G37*
D10*
X123079Y-123168D02*
D03*
X114171Y-119549D02*
D03*
X119460Y-114260D02*
D03*
X-123079Y123168D02*
D03*
X-114171Y119549D02*
D03*
X-119460Y114260D02*
D03*
D11*
X-54000Y-83000D02*
D03*
X-67779D02*
D03*
D12*
X-69366Y49634D02*
D03*
X-64634Y54366D02*
D03*
X-39366Y31634D02*
D03*
X-34634Y36366D02*
D03*
X-112366Y107634D02*
D03*
X-107634Y112366D02*
D03*
X112366Y-107634D02*
D03*
X107634Y-112366D02*
D03*
X-42634Y76366D02*
D03*
X-47366Y71634D02*
D03*
X-147366Y142634D02*
D03*
X-142634Y147366D02*
D03*
X147366Y-142634D02*
D03*
X142634Y-147366D02*
D03*
D13*
X-59223Y39777D02*
D03*
X-32777Y66223D02*
D03*
D14*
X3000Y-65654D02*
D03*
Y-72347D02*
D03*
X-4000Y-65654D02*
D03*
Y-72347D02*
D03*
X14000Y-79347D02*
D03*
Y-72654D02*
D03*
X-88000Y-4346D02*
D03*
Y2347D02*
D03*
X-94000Y-4346D02*
D03*
Y2347D02*
D03*
X-88000Y-13654D02*
D03*
Y-20346D02*
D03*
X47500Y-38346D02*
D03*
Y-31653D02*
D03*
D15*
X-66424Y-51744D02*
D03*
X-60519D02*
D03*
X-42802D02*
D03*
X-30991D02*
D03*
X-54613D02*
D03*
X-48708D02*
D03*
X-36897D02*
D03*
X-72330D02*
D03*
D16*
X-81000Y-45839D02*
D03*
Y-39933D02*
D03*
Y-34028D02*
D03*
Y-28122D02*
D03*
Y-16311D02*
D03*
Y-10406D02*
D03*
X-22200Y-45839D02*
D03*
Y-39933D02*
D03*
Y-34028D02*
D03*
Y-28122D02*
D03*
Y-22217D02*
D03*
Y-16311D02*
D03*
Y-10406D02*
D03*
Y-4500D02*
D03*
X-81000Y-22217D02*
D03*
Y-4500D02*
D03*
D17*
X-12551Y-77480D02*
D03*
Y-70000D02*
D03*
X-22000Y-73740D02*
D03*
Y-70000D02*
D03*
Y-77480D02*
D03*
X-88949Y-64520D02*
D03*
Y-72000D02*
D03*
X-79500Y-68260D02*
D03*
Y-72000D02*
D03*
Y-64520D02*
D03*
X-79551Y-85480D02*
D03*
Y-78000D02*
D03*
X-89000Y-81740D02*
D03*
Y-78000D02*
D03*
Y-85480D02*
D03*
D18*
X-22346Y-64000D02*
D03*
X-15654D02*
D03*
X20346Y-65000D02*
D03*
X13654D02*
D03*
D19*
X0Y-94000D02*
D03*
D20*
X-13500D02*
D03*
X13500D02*
D03*
D21*
X5118Y-82800D02*
D03*
X2559D02*
D03*
X0D02*
D03*
X-2559D02*
D03*
X-5118D02*
D03*
D22*
X78209Y-11000D02*
D03*
X47500D02*
D03*
D23*
X13758Y2070D02*
D03*
X15150Y678D02*
D03*
X16542Y-714D02*
D03*
X17934Y-2106D02*
D03*
X19326Y-3498D02*
D03*
X20718Y-4890D02*
D03*
X22110Y-6282D02*
D03*
X23502Y-7674D02*
D03*
X24894Y-9066D02*
D03*
X26286Y-10458D02*
D03*
X27678Y-11850D02*
D03*
X29070Y-13242D02*
D03*
X6242Y-36070D02*
D03*
X4850Y-34678D02*
D03*
X3458Y-33286D02*
D03*
X2066Y-31894D02*
D03*
X674Y-30502D02*
D03*
X-718Y-29110D02*
D03*
X-2110Y-27718D02*
D03*
X-3502Y-26326D02*
D03*
X-4894Y-24934D02*
D03*
X-6286Y-23542D02*
D03*
X-7678Y-22150D02*
D03*
X-9070Y-20758D02*
D03*
D24*
X29070Y-20758D02*
D03*
X27678Y-22150D02*
D03*
X26286Y-23542D02*
D03*
X24894Y-24934D02*
D03*
X23502Y-26326D02*
D03*
X22110Y-27718D02*
D03*
X20718Y-29110D02*
D03*
X19326Y-30502D02*
D03*
X17934Y-31894D02*
D03*
X16542Y-33286D02*
D03*
X15150Y-34678D02*
D03*
X13758Y-36070D02*
D03*
X-9070Y-13242D02*
D03*
X-7678Y-11850D02*
D03*
X-6286Y-10458D02*
D03*
X-4894Y-9066D02*
D03*
X-3502Y-7674D02*
D03*
X-2110Y-6282D02*
D03*
X-718Y-4890D02*
D03*
X674Y-3498D02*
D03*
X2066Y-2106D02*
D03*
X3458Y-714D02*
D03*
X4850Y678D02*
D03*
X6242Y2070D02*
D03*
D25*
X-88000Y-34346D02*
D03*
Y-27654D02*
D03*
D26*
X-107634Y-112366D02*
D03*
X-112366Y-107634D02*
D03*
X147366Y142634D02*
D03*
X142634Y147366D02*
D03*
X107634Y112366D02*
D03*
X112366Y107634D02*
D03*
X-147366Y-142634D02*
D03*
X-142634Y-147366D02*
D03*
D27*
X54347Y-24000D02*
D03*
X47654D02*
D03*
X-54654Y-93000D02*
D03*
X-61347D02*
D03*
X29654Y-68000D02*
D03*
X36347D02*
D03*
X29654Y-76000D02*
D03*
X36347D02*
D03*
D28*
X156366Y151634D02*
D03*
X151634Y156366D02*
D03*
X-156366Y-151634D02*
D03*
X-151634Y-156366D02*
D03*
D29*
X-156366Y151634D02*
D03*
X-151634Y156366D02*
D03*
X156366Y-151634D02*
D03*
X151634Y-156366D02*
D03*
D30*
X123168Y123079D02*
D03*
X119549Y114171D02*
D03*
X114260Y119460D02*
D03*
X-123168Y-123079D02*
D03*
X-119549Y-114171D02*
D03*
X-114260Y-119460D02*
D03*
D31*
X127911Y-128000D02*
X131460D01*
X123079Y-123168D02*
X127911Y-128000D01*
X-135980Y-132520D02*
X-131460Y-128000D01*
X-128089D01*
X-123168Y-123079D01*
X128089Y128000D02*
X131460D01*
X123168Y123079D02*
X128089Y128000D01*
X-135980Y132520D02*
X-131460Y128000D01*
X-127911D01*
X-123079Y123168D01*
X112834Y-107634D02*
X119460Y-114260D01*
X131460Y-128000D02*
X135980Y-132520D01*
X11347Y-79347D02*
X14000D01*
X-69081Y49634D02*
X-59223Y39777D01*
X-69366Y49634D02*
X-69081D01*
X-32777Y66223D02*
X-27000Y60447D01*
Y44000D02*
Y60447D01*
X-34634Y36366D02*
X-27000Y44000D01*
X-59223Y39777D02*
X-51081Y31634D01*
X-39366D01*
X-56000Y-58000D02*
X-3000D01*
X14000Y-72654D02*
Y-65346D01*
X8000Y-76000D02*
X11347Y-79347D01*
X8000Y-76000D02*
Y-63000D01*
X-76000Y-78000D02*
X-56000Y-58000D01*
X-79551Y-78000D02*
X-76000D01*
X-92000Y-72000D02*
X-88949D01*
X-94000Y-70000D02*
X-92000Y-72000D01*
X-94000Y-70000D02*
Y-63838D01*
X-92000Y-61838D01*
Y-17653D02*
X-88000Y-13654D01*
X-92000Y-61838D02*
Y-17653D01*
X-88000Y-34346D02*
X-81319D01*
X-88000Y-4500D02*
X-81000D01*
X-93846D02*
X-88000D01*
Y-4346D01*
Y-13654D02*
Y-4500D01*
X-94000Y-4346D02*
X-93846Y-4500D01*
X-79500Y-72000D02*
X-75000D01*
X-89000Y-78000D02*
X-85000D01*
X-84000Y-79000D01*
Y-84000D02*
Y-79000D01*
X-85480Y-85480D02*
X-84000Y-84000D01*
X-89000Y-85480D02*
X-85480D01*
X-94480D02*
X-89000D01*
X-25480Y-77480D02*
X-22000D01*
X-32874Y-84874D02*
X-25480Y-77480D01*
X-38000Y-84874D02*
X-32874D01*
X-12551Y-70000D02*
X-8000D01*
X-22000D02*
Y-64346D01*
X26000Y-63000D02*
X57000D01*
X23000Y-60000D02*
X26000Y-63000D01*
X11000Y-60000D02*
X23000D01*
X8000Y-63000D02*
X11000Y-60000D01*
X47500Y-23846D02*
Y-11000D01*
X57000Y-63000D02*
Y-26654D01*
X54347Y-24000D02*
X57000Y-26654D01*
X-32777Y66223D02*
Y66509D01*
X-42634Y76366D02*
X-32777Y66509D01*
X47654Y-31500D02*
Y-24000D01*
X142634Y147366D02*
X151634Y156366D01*
X-151634D02*
X-142634Y147366D01*
X131460Y128000D02*
X135980Y132520D01*
X-119460Y114260D02*
X-112834Y107634D01*
X-151634Y-156366D02*
X-147000Y-151733D01*
X-142634Y-147366D01*
X142634D02*
X151634Y-156366D01*
X-114260Y-119460D02*
Y-118992D01*
X-107634Y-112366D01*
X29654Y-76000D02*
Y-68000D01*
X24000Y-76000D02*
X29654D01*
X20653Y-79347D02*
X24000Y-76000D01*
X14000Y-79347D02*
X20653D01*
X-63000Y-24000D02*
X-28000Y11000D01*
X-88000Y-27654D02*
Y-20346D01*
X-74000Y-58000D02*
X-71000Y-61000D01*
X-80000Y-58000D02*
X-74000D01*
X107634Y112834D02*
X114260Y119460D01*
X-30500Y-4500D02*
X-22200D01*
X-38000Y-12000D02*
X-30500Y-4500D01*
X-38000Y-16000D02*
Y-12000D01*
D32*
X4850Y-34678D02*
X9527Y-30000D01*
X527Y-39000D02*
X4850Y-34678D01*
X27678Y-22150D02*
X32528Y-27000D01*
X19326Y-3498D02*
X20912Y-1912D01*
X15150Y678D02*
X19476Y5003D01*
X-17000Y-33000D02*
X-15558D01*
X-6286Y-23728D01*
Y-23542D01*
X117000Y107000D02*
X146000Y136000D01*
X117000Y100000D02*
Y107000D01*
X36000Y19000D02*
X117000Y100000D01*
X100000Y-88000D02*
X147000Y-135000D01*
X68000Y-88000D02*
X100000D01*
X147366Y-142634D02*
X149000Y-141000D01*
Y-137000D01*
X147000Y-135000D02*
X149000Y-137000D01*
X13758Y-36070D02*
X18689Y-41000D01*
X-149000Y-141000D02*
X-147366Y-142634D01*
X-149000Y-141000D02*
Y-137000D01*
X-147000Y-135000D01*
X-2110Y-6282D02*
X2608Y-11000D01*
X37000D02*
X47500D01*
X31200Y-51800D02*
Y-28456D01*
X26286Y-23542D02*
X31200Y-28456D01*
X24000Y-17000D02*
X25311D01*
X29070Y-13242D01*
X22110Y-6282D02*
X31000Y2608D01*
Y85000D01*
X21000Y71000D02*
Y85000D01*
Y71000D02*
X27000Y65000D01*
Y1392D02*
Y65000D01*
X20718Y-4890D02*
X27000Y1392D01*
X-39366Y31634D02*
X-31929Y24196D01*
X-29804D01*
X-34634Y36366D02*
X-28000Y29733D01*
Y25176D02*
Y29733D01*
X-29804Y24196D02*
X-718Y-4890D01*
X-28000Y25176D02*
X674Y-3498D01*
X-13528Y-28000D02*
X-7678Y-22150D01*
X-68520Y-64520D02*
X-62000Y-58000D01*
X-79500Y-64520D02*
X-68520D01*
X-2654Y-65654D02*
X-68Y-63068D01*
X-4000Y-65654D02*
X-2654D01*
X-68Y-63068D02*
Y-63033D01*
X576Y-62388D01*
X24697Y-25131D02*
X29600Y-30033D01*
X3000Y-65654D02*
Y-62263D01*
X29600Y-35663D01*
Y-30033D01*
X24697Y-25131D02*
X24894Y-24934D01*
X23502Y-26326D02*
X28000Y-30824D01*
Y-35000D02*
Y-30824D01*
X612Y-62388D02*
X28000Y-35000D01*
X576Y-62388D02*
X612D01*
X-3000Y-58000D02*
Y-45311D01*
X6242Y-36070D01*
X10000Y-8000D02*
Y-1689D01*
X6242Y2070D02*
X10000Y-1689D01*
X2000Y-16000D02*
X2020Y-15980D01*
X10000Y-8000D01*
X-4894Y-9066D02*
X2020Y-15980D01*
X10000Y-1689D02*
X13758Y2070D01*
X16542Y-714D02*
X23000Y5744D01*
X146000Y136000D02*
Y141000D01*
X147366Y142366D01*
X-24000Y26744D02*
X3458Y-714D01*
X-147366Y137366D02*
Y142634D01*
Y137366D02*
X-85000Y75000D01*
X-72000D01*
X-17000Y-37000D02*
X-4934Y-24934D01*
X-41000Y-37000D02*
X-17000D01*
X-51000Y-47000D02*
X-41000Y-37000D01*
X-76000Y-33000D02*
X-32000D01*
X-12311Y-10000D02*
X-9070Y-13242D01*
X-25018Y-13200D02*
X-19200D01*
X-16000Y-10000D01*
X-12311D01*
X-27000Y-15182D02*
X-25018Y-13200D01*
X-27000Y-27000D02*
Y-15182D01*
Y-27000D02*
X-25878Y-28122D01*
X-22200D01*
Y-34028D02*
X-17000Y-28828D01*
X-15000Y-25000D02*
X-13311D01*
X-9070Y-20758D01*
X-17000Y-27000D02*
X-15000Y-25000D01*
X-17000Y-28828D02*
Y-27000D01*
X-24000Y7256D02*
X-6286Y-10458D01*
X-24000Y7256D02*
Y12000D01*
X-30000Y18000D02*
X-24000Y12000D01*
X-56000Y18000D02*
X-30000D01*
X-96000Y58000D02*
X-56000Y18000D01*
X-96000Y58000D02*
Y79000D01*
X-112366Y107634D02*
X-96000Y91267D01*
X-7678Y-11850D02*
X-3000Y-16527D01*
X-107634Y-112366D02*
Y-82634D01*
X-97000Y-72000D01*
Y-49000D01*
X-95000Y-47000D01*
X-57000Y-30000D02*
Y-24000D01*
X-45000Y-12000D01*
X-89000Y-43000D02*
X-70000D01*
X96733Y-92000D02*
X112366Y-107634D01*
X68000Y-92000D02*
X96733D01*
X64000Y-88000D02*
X68000Y-92000D01*
X56000Y-88000D02*
X64000D01*
X48000Y-80000D02*
X56000Y-88000D01*
X48000Y-80000D02*
Y-69000D01*
X14000Y-56000D02*
X35000D01*
X3458Y-33286D02*
X15744Y-21000D01*
X2066Y-31894D02*
X7000Y-26960D01*
Y-25000D01*
X34000Y38733D02*
X107634Y112366D01*
X33900Y-13900D02*
X34000Y-14000D01*
X33900Y-13900D02*
Y38633D01*
X-11000Y-176D02*
X-3502Y-7674D01*
X-15000Y4000D02*
X-11000Y0D01*
X24627Y-19100D02*
X27678Y-22150D01*
X23130Y-19100D02*
X24627D01*
X23030Y-19000D02*
X23130Y-19100D01*
D33*
X-59551Y-100000D02*
X-57051Y-97500D01*
X-104981Y-118021D02*
X-86960Y-100000D01*
X-59551D01*
X-77000Y-82346D02*
X-68433D01*
D34*
X3000Y-75000D02*
Y-72347D01*
X0Y-78000D02*
X3000Y-75000D01*
X0Y-84000D02*
Y-78000D01*
X-4000Y-76030D02*
Y-72347D01*
Y-76030D02*
X-2559Y-77471D01*
Y-84000D02*
Y-77471D01*
X-17000Y-71000D02*
X-15870Y-69870D01*
Y-64216D01*
X-15654Y-64000D01*
X-17000Y-77480D02*
X-12551D01*
X-5520D01*
X-5118Y-77882D01*
Y-84000D02*
Y-77882D01*
X-31000Y-70000D02*
Y-67000D01*
X-34000Y-64000D02*
X-31000Y-67000D01*
X-42000Y-64000D02*
X-34000D01*
X-46000Y-68000D02*
X-42000Y-64000D01*
X-46000Y-80000D02*
Y-68000D01*
X-49000Y-83000D02*
X-46000Y-80000D01*
X-54000Y-83000D02*
X-49000D01*
X-54654Y-93000D02*
Y-83653D01*
D35*
X135980Y-132520D02*
D03*
X132500Y-136000D02*
D03*
X-135980Y-132520D02*
D03*
X-132500Y-136000D02*
D03*
X135980Y132520D02*
D03*
X132500Y136000D02*
D03*
X-135980Y132520D02*
D03*
X-132500Y136000D02*
D03*
D36*
X61000Y85000D02*
D03*
D37*
X51000D02*
D03*
X41000D02*
D03*
X31000D02*
D03*
X21000D02*
D03*
X11000D02*
D03*
X1000D02*
D03*
X-9000D02*
D03*
X57000Y-63000D02*
D03*
Y-73000D02*
D03*
Y-83000D02*
D03*
D38*
Y-93000D02*
D03*
D39*
X-38000Y-84874D02*
D03*
Y-77000D02*
D03*
Y-69126D02*
D03*
D40*
X103000Y0D02*
D03*
X-103000D02*
D03*
X-173000Y173000D02*
D03*
X173000D02*
D03*
X-173000Y-173000D02*
D03*
X173000D02*
D03*
D41*
X27000Y-87000D02*
D03*
X39500D02*
D03*
D42*
X127000Y-127000D02*
D03*
X130000Y-128000D02*
D03*
X133000Y-129540D02*
D03*
X-127000Y-127000D02*
D03*
X-130000Y-128000D02*
D03*
X-133000Y-129540D02*
D03*
X127000Y127000D02*
D03*
X129730Y128000D02*
D03*
X132460Y129000D02*
D03*
X-130000Y128000D02*
D03*
X-127000Y127000D02*
D03*
X-133000Y129540D02*
D03*
X-59551Y-100000D02*
D03*
X-63000D02*
D03*
X-57051Y-97500D02*
D03*
X-105000Y-118000D02*
D03*
X-102000Y-115000D02*
D03*
X-99000Y-112000D02*
D03*
X36000Y19000D02*
D03*
X68000Y-88000D02*
D03*
X18689Y-41000D02*
D03*
X-147000Y-135000D02*
D03*
X3000Y-11000D02*
D03*
X37000D02*
D03*
X31200Y-51800D02*
D03*
X24000Y-17000D02*
D03*
X-51000Y-47000D02*
D03*
X-13528Y-28000D02*
D03*
X-62000Y-58000D02*
D03*
X8000Y-63000D02*
D03*
X-75000Y-72000D02*
D03*
X-8000Y-70000D02*
D03*
X-17000Y-71000D02*
D03*
Y-77480D02*
D03*
X-94480Y-85480D02*
D03*
X2000Y-16000D02*
D03*
X-73347Y-82346D02*
D03*
X-31000Y-70000D02*
D03*
X147000Y151800D02*
D03*
X23000Y5744D02*
D03*
X-147000Y151500D02*
D03*
Y-151733D02*
D03*
X147000Y-152000D02*
D03*
X-24000Y26744D02*
D03*
X-72000Y75000D02*
D03*
X-63000Y-24000D02*
D03*
X-28000Y11000D02*
D03*
X-77000Y-82346D02*
D03*
X-71000Y-61000D02*
D03*
X-80000Y-58000D02*
D03*
X-17000Y-33000D02*
D03*
X-32000D02*
D03*
X-76000D02*
D03*
X-96000Y79000D02*
D03*
Y91267D02*
D03*
X-3000Y-16527D02*
D03*
X-45000Y-12000D02*
D03*
X-70000Y-43000D02*
D03*
X-57000Y-30000D02*
D03*
X-89000Y-43000D02*
D03*
X-95000Y-47000D02*
D03*
X48000Y-69000D02*
D03*
X35000Y-56000D02*
D03*
X14000D02*
D03*
X7000Y-25000D02*
D03*
X-3000Y-58000D02*
D03*
X15744Y-21000D02*
D03*
X34000Y-14000D02*
D03*
X-38000Y-16000D02*
D03*
X-14000Y-7000D02*
D03*
X-15000Y4000D02*
D03*
D43*
X21000Y-71000D02*
D03*
X-16000Y-21000D02*
D03*
X44000Y38000D02*
D03*
X-99000Y-92000D02*
D03*
D44*
X-7000Y68000D02*
D03*
X1000D02*
D03*
D45*
X-13000Y-48000D02*
D03*
X14000Y41000D02*
D03*
M02*
