G04 Layer_Color=16711935*
%FSLAX25Y25*%
%MOIN*%
G70*
G01*
G75*
%ADD31C,0.02000*%
%ADD33C,0.03000*%
%ADD60R,0.04737X0.05131*%
%ADD63R,0.04737X0.02769*%
%ADD73R,0.05131X0.04737*%
%ADD74P,0.05586X4X360.0*%
%ADD75P,0.05586X4X270.0*%
%ADD77C,0.04737*%
%ADD78R,0.06706X0.06706*%
%ADD79C,0.06706*%
%ADD80R,0.06706X0.06706*%
%ADD81C,0.06800*%
%ADD82C,0.06800*%
%ADD83C,0.10800*%
%ADD84C,0.02800*%
%ADD85C,0.03300*%
%ADD86C,0.04300*%
%ADD87C,0.03800*%
%ADD88R,0.08674X0.10642*%
%ADD89R,0.08674X0.06706*%
D31*
X127000Y-127000D02*
X128000Y-128000D01*
X131460D01*
X135980Y-132520D01*
X-128000Y-128000D02*
X-127000Y-127000D01*
X-131460Y-128000D02*
X-128000D01*
X-135980Y-132520D02*
X-131460Y-128000D01*
X127000Y127000D02*
X128000Y128000D01*
X131460D01*
X135980Y132520D01*
X-128000Y128000D02*
X-127000Y127000D01*
X-131460Y128000D02*
X-128000D01*
X-135980Y132520D02*
X-131460Y128000D01*
D33*
X-105000Y-118000D02*
X-99000Y-112000D01*
X-59551Y-100000D02*
X-55000Y-95449D01*
X-63000Y-100000D02*
X-59551D01*
X-55000Y-95449D01*
X-63000Y-100000D02*
X-59551D01*
X-54551Y-95000D01*
X-123000Y-136000D02*
X-105000Y-118000D01*
X-132500Y-136000D02*
X-123000D01*
X125000D02*
X132500D01*
X75000Y-86000D02*
X125000Y-136000D01*
X75000Y-86000D02*
Y87000D01*
X-50874Y-69126D02*
X-38000D01*
Y-69000D01*
X-51874Y-69126D02*
X-38000D01*
Y-69126D02*
Y-28000D01*
X-77000Y8000D02*
Y64000D01*
Y8000D02*
X-41000Y-28000D01*
X-38000D01*
X-62000Y-7000D02*
X-19000D01*
X124000Y136000D01*
X132500D01*
X-132500D02*
X-125000D01*
X-77000Y88000D01*
Y64000D02*
Y88000D01*
X16000Y-87000D02*
X27000D01*
X12000Y-91000D02*
X16000Y-87000D01*
X-24000Y-91000D02*
X12000D01*
X-38000Y-77000D02*
X-24000Y-91000D01*
D60*
X-8000Y-70653D02*
D03*
Y-77346D02*
D03*
X-17000Y-77346D02*
D03*
Y-70653D02*
D03*
X-47000Y-94346D02*
D03*
Y-87653D02*
D03*
Y-74654D02*
D03*
Y-81346D02*
D03*
D63*
X-54551Y-87520D02*
D03*
Y-95000D02*
D03*
X-64000Y-91260D02*
D03*
Y-95000D02*
D03*
Y-87520D02*
D03*
D73*
X-31653Y-22000D02*
D03*
X-38346D02*
D03*
Y-16000D02*
D03*
X-31653D02*
D03*
X-38346Y-28000D02*
D03*
X-31654D02*
D03*
X-71653Y-99000D02*
D03*
X-78347D02*
D03*
X-71653Y-93000D02*
D03*
X-78347D02*
D03*
Y-87000D02*
D03*
X-71653D02*
D03*
X-91654Y-99000D02*
D03*
X-98347D02*
D03*
X-91654Y-106000D02*
D03*
X-98347D02*
D03*
D74*
X156366Y151634D02*
D03*
X151634Y156366D02*
D03*
X-156366Y-151634D02*
D03*
X-151634Y-156366D02*
D03*
D75*
X156366Y-151634D02*
D03*
X151634Y-156366D02*
D03*
X-156366Y151634D02*
D03*
X-151634Y156366D02*
D03*
D77*
X135980Y-132520D02*
D03*
X132500Y-136000D02*
D03*
X-135980Y-132520D02*
D03*
X-132500Y-136000D02*
D03*
X135980Y132520D02*
D03*
X132500Y136000D02*
D03*
X-135980Y132520D02*
D03*
X-132500Y136000D02*
D03*
D78*
X61000Y85000D02*
D03*
D79*
X51000D02*
D03*
X41000D02*
D03*
X31000D02*
D03*
X21000D02*
D03*
X11000D02*
D03*
X1000D02*
D03*
X-9000D02*
D03*
X57000Y-63000D02*
D03*
Y-73000D02*
D03*
Y-83000D02*
D03*
D80*
Y-93000D02*
D03*
D81*
X-38000Y-84874D02*
D03*
Y-77000D02*
D03*
Y-69126D02*
D03*
D82*
X103000Y0D02*
D03*
X-103000D02*
D03*
X-173000Y173000D02*
D03*
X173000D02*
D03*
X-173000Y-173000D02*
D03*
X173000D02*
D03*
D83*
X27000Y-87000D02*
D03*
X39500D02*
D03*
D84*
X127000Y-127000D02*
D03*
X130000Y-128000D02*
D03*
X133000Y-129540D02*
D03*
X-127000Y-127000D02*
D03*
X-130000Y-128000D02*
D03*
X-133000Y-129540D02*
D03*
X127000Y127000D02*
D03*
X129730Y128000D02*
D03*
X132460Y129000D02*
D03*
X-130000Y128000D02*
D03*
X-127000Y127000D02*
D03*
X-133000Y129540D02*
D03*
X-59551Y-100000D02*
D03*
X-63000D02*
D03*
X-57051Y-97500D02*
D03*
X-105000Y-118000D02*
D03*
X-102000Y-115000D02*
D03*
X-99000Y-112000D02*
D03*
X36000Y19000D02*
D03*
X68000Y-88000D02*
D03*
X18689Y-41000D02*
D03*
X-147000Y-135000D02*
D03*
X3000Y-11000D02*
D03*
X37000D02*
D03*
X31200Y-51800D02*
D03*
X24000Y-17000D02*
D03*
X-51000Y-47000D02*
D03*
X-13528Y-28000D02*
D03*
X-62000Y-58000D02*
D03*
X8000Y-63000D02*
D03*
X-75000Y-72000D02*
D03*
X-8000Y-70000D02*
D03*
X-17000Y-71000D02*
D03*
Y-77480D02*
D03*
X-94480Y-85480D02*
D03*
X2000Y-16000D02*
D03*
X-73347Y-82346D02*
D03*
X-31000Y-70000D02*
D03*
X147000Y151800D02*
D03*
X23000Y5744D02*
D03*
X-147000Y151500D02*
D03*
Y-151733D02*
D03*
X147000Y-152000D02*
D03*
X-24000Y26744D02*
D03*
X-72000Y75000D02*
D03*
X-63000Y-24000D02*
D03*
X-28000Y11000D02*
D03*
X-77000Y-82346D02*
D03*
X-71000Y-61000D02*
D03*
X-80000Y-58000D02*
D03*
X-17000Y-33000D02*
D03*
X-32000D02*
D03*
X-76000D02*
D03*
X-96000Y79000D02*
D03*
Y91267D02*
D03*
X-3000Y-16527D02*
D03*
X-45000Y-12000D02*
D03*
X-70000Y-43000D02*
D03*
X-57000Y-30000D02*
D03*
X-89000Y-43000D02*
D03*
X-95000Y-47000D02*
D03*
X48000Y-69000D02*
D03*
X35000Y-56000D02*
D03*
X14000D02*
D03*
X7000Y-25000D02*
D03*
X-3000Y-58000D02*
D03*
X15744Y-21000D02*
D03*
X34000Y-14000D02*
D03*
X-38000Y-16000D02*
D03*
X-14000Y-7000D02*
D03*
X-15000Y4000D02*
D03*
D85*
X21000Y-71000D02*
D03*
X-16000Y-21000D02*
D03*
X44000Y38000D02*
D03*
X-99000Y-92000D02*
D03*
D86*
X-7000Y68000D02*
D03*
X1000D02*
D03*
D87*
X-13000Y-48000D02*
D03*
X14000Y41000D02*
D03*
D88*
X-55000Y-69000D02*
D03*
X-83000D02*
D03*
D89*
X-92000Y-79000D02*
D03*
Y-92779D02*
D03*
M02*
