G04 Layer_Color=8388736*
%FSLAX25Y25*%
%MOIN*%
G70*
G01*
G75*
G04:AMPARAMS|DCode=56|XSize=31.62mil|YSize=53.28mil|CornerRadius=0mil|HoleSize=0mil|Usage=FLASHONLY|Rotation=45.000|XOffset=0mil|YOffset=0mil|HoleType=Round|Shape=Rectangle|*
%AMROTATEDRECTD56*
4,1,4,0.00766,-0.03002,-0.03002,0.00766,-0.00766,0.03002,0.03002,-0.00766,0.00766,-0.03002,0.0*
%
%ADD56ROTATEDRECTD56*%

%ADD57R,0.06706X0.08674*%
G04:AMPARAMS|DCode=58|XSize=47.37mil|YSize=51.31mil|CornerRadius=0mil|HoleSize=0mil|Usage=FLASHONLY|Rotation=135.000|XOffset=0mil|YOffset=0mil|HoleType=Round|Shape=Rectangle|*
%AMROTATEDRECTD58*
4,1,4,0.03489,0.00139,-0.00139,-0.03489,-0.03489,-0.00139,0.00139,0.03489,0.03489,0.00139,0.0*
%
%ADD58ROTATEDRECTD58*%

G04:AMPARAMS|DCode=59|XSize=204.85mil|YSize=86.74mil|CornerRadius=0mil|HoleSize=0mil|Usage=FLASHONLY|Rotation=225.000|XOffset=0mil|YOffset=0mil|HoleType=Round|Shape=Rectangle|*
%AMROTATEDRECTD59*
4,1,4,0.04176,0.10309,0.10309,0.04176,-0.04176,-0.10309,-0.10309,-0.04176,0.04176,0.10309,0.0*
%
%ADD59ROTATEDRECTD59*%

%ADD60R,0.04737X0.05131*%
%ADD61R,0.03950X0.05524*%
%ADD62R,0.05524X0.03950*%
%ADD63R,0.04737X0.02769*%
%ADD64R,0.03950X0.03950*%
%ADD65R,0.07887X0.08280*%
%ADD66R,0.09800X0.08280*%
G04:AMPARAMS|DCode=67|XSize=88.15mil|YSize=23.75mil|CornerRadius=0mil|HoleSize=0mil|Usage=FLASHONLY|Rotation=90.000|XOffset=0mil|YOffset=0mil|HoleType=Round|Shape=Octagon|*
%AMOCTAGOND67*
4,1,8,0.00594,0.04408,-0.00594,0.04408,-0.01187,0.03814,-0.01187,-0.03814,-0.00594,-0.04408,0.00594,-0.04408,0.01187,-0.03814,0.01187,0.03814,0.00594,0.04408,0.0*
%
%ADD67OCTAGOND67*%

%ADD68R,0.08674X0.06706*%
G04:AMPARAMS|DCode=69|XSize=19.81mil|YSize=90.68mil|CornerRadius=0mil|HoleSize=0mil|Usage=FLASHONLY|Rotation=315.000|XOffset=0mil|YOffset=0mil|HoleType=Round|Shape=Round|*
%AMOVALD69*
21,1,0.07087,0.01981,0.00000,0.00000,45.0*
1,1,0.01981,-0.02506,-0.02506*
1,1,0.01981,0.02506,0.02506*
%
%ADD69OVALD69*%

G04:AMPARAMS|DCode=70|XSize=19.81mil|YSize=90.68mil|CornerRadius=0mil|HoleSize=0mil|Usage=FLASHONLY|Rotation=45.000|XOffset=0mil|YOffset=0mil|HoleType=Round|Shape=Round|*
%AMOVALD70*
21,1,0.07087,0.01981,0.00000,0.00000,135.0*
1,1,0.01981,0.02506,-0.02506*
1,1,0.01981,-0.02506,0.02506*
%
%ADD70OVALD70*%

%ADD71R,0.03950X0.03950*%
G04:AMPARAMS|DCode=72|XSize=47.37mil|YSize=51.31mil|CornerRadius=0mil|HoleSize=0mil|Usage=FLASHONLY|Rotation=45.000|XOffset=0mil|YOffset=0mil|HoleType=Round|Shape=Rectangle|*
%AMROTATEDRECTD72*
4,1,4,0.00139,-0.03489,-0.03489,0.00139,-0.00139,0.03489,0.03489,-0.00139,0.00139,-0.03489,0.0*
%
%ADD72ROTATEDRECTD72*%

%ADD73R,0.05131X0.04737*%
%ADD74P,0.05586X4X360.0*%
%ADD75P,0.05586X4X270.0*%
G04:AMPARAMS|DCode=76|XSize=31.62mil|YSize=53.28mil|CornerRadius=0mil|HoleSize=0mil|Usage=FLASHONLY|Rotation=135.000|XOffset=0mil|YOffset=0mil|HoleType=Round|Shape=Rectangle|*
%AMROTATEDRECTD76*
4,1,4,0.03002,0.00766,-0.00766,-0.03002,-0.03002,-0.00766,0.00766,0.03002,0.03002,0.00766,0.0*
%
%ADD76ROTATEDRECTD76*%

%ADD77C,0.04737*%
%ADD78R,0.06706X0.06706*%
%ADD79C,0.06706*%
%ADD80R,0.06706X0.06706*%
%ADD81C,0.06800*%
%ADD82C,0.06800*%
%ADD83C,0.10800*%
%ADD84C,0.02800*%
%ADD85C,0.03300*%
%ADD86C,0.04300*%
%ADD87C,0.03800*%
D56*
X123079Y-123168D02*
D03*
X114171Y-119549D02*
D03*
X119460Y-114260D02*
D03*
X-123079Y123168D02*
D03*
X-114171Y119549D02*
D03*
X-119460Y114260D02*
D03*
D57*
X-54000Y-83000D02*
D03*
X-67779D02*
D03*
D58*
X-69366Y49634D02*
D03*
X-64634Y54366D02*
D03*
X-39366Y31634D02*
D03*
X-34634Y36366D02*
D03*
X-112366Y107634D02*
D03*
X-107634Y112366D02*
D03*
X112366Y-107634D02*
D03*
X107634Y-112366D02*
D03*
X-42634Y76366D02*
D03*
X-47366Y71634D02*
D03*
X-147366Y142634D02*
D03*
X-142634Y147366D02*
D03*
X147366Y-142634D02*
D03*
X142634Y-147366D02*
D03*
D59*
X-59223Y39777D02*
D03*
X-32777Y66223D02*
D03*
D60*
X3000Y-65654D02*
D03*
Y-72347D02*
D03*
X-4000Y-65654D02*
D03*
Y-72347D02*
D03*
X14000Y-79347D02*
D03*
Y-72654D02*
D03*
X-88000Y-4346D02*
D03*
Y2347D02*
D03*
X-94000Y-4346D02*
D03*
Y2347D02*
D03*
X-88000Y-13654D02*
D03*
Y-20346D02*
D03*
X47500Y-38346D02*
D03*
Y-31653D02*
D03*
D61*
X-66424Y-51744D02*
D03*
X-60519D02*
D03*
X-42802D02*
D03*
X-30991D02*
D03*
X-54613D02*
D03*
X-48708D02*
D03*
X-36897D02*
D03*
X-72330D02*
D03*
D62*
X-81000Y-45839D02*
D03*
Y-39933D02*
D03*
Y-34028D02*
D03*
Y-28122D02*
D03*
Y-16311D02*
D03*
Y-10406D02*
D03*
X-22200Y-45839D02*
D03*
Y-39933D02*
D03*
Y-34028D02*
D03*
Y-28122D02*
D03*
Y-22217D02*
D03*
Y-16311D02*
D03*
Y-10406D02*
D03*
Y-4500D02*
D03*
X-81000Y-22217D02*
D03*
Y-4500D02*
D03*
D63*
X-12551Y-77480D02*
D03*
Y-70000D02*
D03*
X-22000Y-73740D02*
D03*
Y-70000D02*
D03*
Y-77480D02*
D03*
X-88949Y-64520D02*
D03*
Y-72000D02*
D03*
X-79500Y-68260D02*
D03*
Y-72000D02*
D03*
Y-64520D02*
D03*
X-79551Y-85480D02*
D03*
Y-78000D02*
D03*
X-89000Y-81740D02*
D03*
Y-78000D02*
D03*
Y-85480D02*
D03*
D64*
X-22346Y-64000D02*
D03*
X-15654D02*
D03*
X20346Y-65000D02*
D03*
X13654D02*
D03*
D65*
X0Y-94000D02*
D03*
D66*
X-13500D02*
D03*
X13500D02*
D03*
D67*
X5118Y-82800D02*
D03*
X2559D02*
D03*
X0D02*
D03*
X-2559D02*
D03*
X-5118D02*
D03*
D68*
X78209Y-11000D02*
D03*
X47500D02*
D03*
D69*
X13758Y2070D02*
D03*
X15150Y678D02*
D03*
X16542Y-714D02*
D03*
X17934Y-2106D02*
D03*
X19326Y-3498D02*
D03*
X20718Y-4890D02*
D03*
X22110Y-6282D02*
D03*
X23502Y-7674D02*
D03*
X24894Y-9066D02*
D03*
X26286Y-10458D02*
D03*
X27678Y-11850D02*
D03*
X29070Y-13242D02*
D03*
X6242Y-36070D02*
D03*
X4850Y-34678D02*
D03*
X3458Y-33286D02*
D03*
X2066Y-31894D02*
D03*
X674Y-30502D02*
D03*
X-718Y-29110D02*
D03*
X-2110Y-27718D02*
D03*
X-3502Y-26326D02*
D03*
X-4894Y-24934D02*
D03*
X-6286Y-23542D02*
D03*
X-7678Y-22150D02*
D03*
X-9070Y-20758D02*
D03*
D70*
X29070Y-20758D02*
D03*
X27678Y-22150D02*
D03*
X26286Y-23542D02*
D03*
X24894Y-24934D02*
D03*
X23502Y-26326D02*
D03*
X22110Y-27718D02*
D03*
X20718Y-29110D02*
D03*
X19326Y-30502D02*
D03*
X17934Y-31894D02*
D03*
X16542Y-33286D02*
D03*
X15150Y-34678D02*
D03*
X13758Y-36070D02*
D03*
X-9070Y-13242D02*
D03*
X-7678Y-11850D02*
D03*
X-6286Y-10458D02*
D03*
X-4894Y-9066D02*
D03*
X-3502Y-7674D02*
D03*
X-2110Y-6282D02*
D03*
X-718Y-4890D02*
D03*
X674Y-3498D02*
D03*
X2066Y-2106D02*
D03*
X3458Y-714D02*
D03*
X4850Y678D02*
D03*
X6242Y2070D02*
D03*
D71*
X-88000Y-34346D02*
D03*
Y-27654D02*
D03*
D72*
X-107634Y-112366D02*
D03*
X-112366Y-107634D02*
D03*
X147366Y142634D02*
D03*
X142634Y147366D02*
D03*
X107634Y112366D02*
D03*
X112366Y107634D02*
D03*
X-147366Y-142634D02*
D03*
X-142634Y-147366D02*
D03*
D73*
X54347Y-24000D02*
D03*
X47654D02*
D03*
X-54654Y-93000D02*
D03*
X-61347D02*
D03*
X29654Y-68000D02*
D03*
X36347D02*
D03*
X29654Y-76000D02*
D03*
X36347D02*
D03*
D74*
X156366Y151634D02*
D03*
X151634Y156366D02*
D03*
X-156366Y-151634D02*
D03*
X-151634Y-156366D02*
D03*
D75*
X-156366Y151634D02*
D03*
X-151634Y156366D02*
D03*
X156366Y-151634D02*
D03*
X151634Y-156366D02*
D03*
D76*
X123168Y123079D02*
D03*
X119549Y114171D02*
D03*
X114260Y119460D02*
D03*
X-123168Y-123079D02*
D03*
X-119549Y-114171D02*
D03*
X-114260Y-119460D02*
D03*
D77*
X135980Y-132520D02*
D03*
X132500Y-136000D02*
D03*
X-135980Y-132520D02*
D03*
X-132500Y-136000D02*
D03*
X135980Y132520D02*
D03*
X132500Y136000D02*
D03*
X-135980Y132520D02*
D03*
X-132500Y136000D02*
D03*
D78*
X61000Y85000D02*
D03*
D79*
X51000D02*
D03*
X41000D02*
D03*
X31000D02*
D03*
X21000D02*
D03*
X11000D02*
D03*
X1000D02*
D03*
X-9000D02*
D03*
X57000Y-63000D02*
D03*
Y-73000D02*
D03*
Y-83000D02*
D03*
D80*
Y-93000D02*
D03*
D81*
X-38000Y-84874D02*
D03*
Y-77000D02*
D03*
Y-69126D02*
D03*
D82*
X103000Y0D02*
D03*
X-103000D02*
D03*
X-173000Y173000D02*
D03*
X173000D02*
D03*
X-173000Y-173000D02*
D03*
X173000D02*
D03*
D83*
X27000Y-87000D02*
D03*
X39500D02*
D03*
D84*
X127000Y-127000D02*
D03*
X130000Y-128000D02*
D03*
X133000Y-129540D02*
D03*
X-127000Y-127000D02*
D03*
X-130000Y-128000D02*
D03*
X-133000Y-129540D02*
D03*
X127000Y127000D02*
D03*
X129730Y128000D02*
D03*
X132460Y129000D02*
D03*
X-130000Y128000D02*
D03*
X-127000Y127000D02*
D03*
X-133000Y129540D02*
D03*
X-59551Y-100000D02*
D03*
X-63000D02*
D03*
X-57051Y-97500D02*
D03*
X-105000Y-118000D02*
D03*
X-102000Y-115000D02*
D03*
X-99000Y-112000D02*
D03*
X36000Y19000D02*
D03*
X68000Y-88000D02*
D03*
X18689Y-41000D02*
D03*
X-147000Y-135000D02*
D03*
X3000Y-11000D02*
D03*
X37000D02*
D03*
X31200Y-51800D02*
D03*
X24000Y-17000D02*
D03*
X-51000Y-47000D02*
D03*
X-13528Y-28000D02*
D03*
X-62000Y-58000D02*
D03*
X8000Y-63000D02*
D03*
X-75000Y-72000D02*
D03*
X-8000Y-70000D02*
D03*
X-17000Y-71000D02*
D03*
Y-77480D02*
D03*
X-94480Y-85480D02*
D03*
X2000Y-16000D02*
D03*
X-73347Y-82346D02*
D03*
X-31000Y-70000D02*
D03*
X147000Y151800D02*
D03*
X23000Y5744D02*
D03*
X-147000Y151500D02*
D03*
Y-151733D02*
D03*
X147000Y-152000D02*
D03*
X-24000Y26744D02*
D03*
X-72000Y75000D02*
D03*
X-63000Y-24000D02*
D03*
X-28000Y11000D02*
D03*
X-77000Y-82346D02*
D03*
X-71000Y-61000D02*
D03*
X-80000Y-58000D02*
D03*
X-17000Y-33000D02*
D03*
X-32000D02*
D03*
X-76000D02*
D03*
X-96000Y79000D02*
D03*
Y91267D02*
D03*
X-3000Y-16527D02*
D03*
X-45000Y-12000D02*
D03*
X-70000Y-43000D02*
D03*
X-57000Y-30000D02*
D03*
X-89000Y-43000D02*
D03*
X-95000Y-47000D02*
D03*
X48000Y-69000D02*
D03*
X35000Y-56000D02*
D03*
X14000D02*
D03*
X7000Y-25000D02*
D03*
X-3000Y-58000D02*
D03*
X15744Y-21000D02*
D03*
X34000Y-14000D02*
D03*
X-38000Y-16000D02*
D03*
X-14000Y-7000D02*
D03*
X-15000Y4000D02*
D03*
D85*
X21000Y-71000D02*
D03*
X-16000Y-21000D02*
D03*
X44000Y38000D02*
D03*
X-99000Y-92000D02*
D03*
D86*
X-7000Y68000D02*
D03*
X1000D02*
D03*
D87*
X-13000Y-48000D02*
D03*
X14000Y41000D02*
D03*
M02*
