G04 Layer_Color=16711935*
%FSLAX25Y25*%
%MOIN*%
G70*
G01*
G75*
%ADD53C,0.00394*%
%ADD91C,0.00197*%
D53*
X11969Y-2524D02*
G03*
X11969Y-2524I-1969J0D01*
G01*
X113823Y-122263D02*
X117720Y-126161D01*
X122174Y-113912D02*
X126072Y-117809D01*
X117720Y-126161D02*
X126072Y-117809D01*
X113823Y-122263D02*
X122174Y-113912D01*
X-9487Y-17000D02*
X10000Y-36487D01*
X10000Y2487D02*
X29487Y-17000D01*
X10000Y-36487D02*
X29487Y-17000D01*
X-9487D02*
X10000Y2487D01*
X-117720Y126161D02*
X-113823Y122263D01*
X-126072Y117809D02*
X-122174Y113912D01*
X-126072Y117809D02*
X-117720Y126161D01*
X-122174Y113912D02*
X-113823Y122263D01*
X122263Y113823D02*
X126161Y117720D01*
X113912Y122174D02*
X117809Y126072D01*
X126161Y117720D01*
X113912Y122174D02*
X122263Y113823D01*
X-126161Y-117720D02*
X-122263Y-113823D01*
X-117809Y-126072D02*
X-113912Y-122174D01*
X-126161Y-117720D02*
X-117809Y-126072D01*
X-122263Y-113823D02*
X-113912Y-122174D01*
D91*
X151487Y154297D02*
X153703Y156513D01*
X153440Y156775D02*
X156775Y153440D01*
X151225Y154560D02*
X154560Y151225D01*
X154297Y151487D02*
X156513Y153703D01*
X154560Y151225D02*
X156775Y153440D01*
X151225Y154560D02*
X153440Y156775D01*
X154557Y151216D02*
X156784Y153443D01*
X156506Y153722D02*
X157341Y152886D01*
X155114Y150659D02*
X157341Y152886D01*
X154278Y151495D02*
X155114Y150659D01*
X150659Y155114D02*
X151495Y154278D01*
X151219Y154560D02*
X153443Y156784D01*
X150659Y155114D02*
X152886Y157341D01*
X153722Y156506D01*
X151219Y154560D02*
X154557Y151216D01*
X153440Y156781D02*
X156784Y153443D01*
X151487Y-154297D02*
X153703Y-156513D01*
X151225Y-154560D02*
X154560Y-151225D01*
X153440Y-156775D02*
X156775Y-153440D01*
X154297Y-151487D02*
X156513Y-153703D01*
X154560Y-151225D02*
X156775Y-153440D01*
X151225Y-154560D02*
X153440Y-156775D01*
X154557Y-151216D02*
X156784Y-153443D01*
X154278Y-151495D02*
X155114Y-150659D01*
X157341Y-152886D01*
X156506Y-153722D02*
X157341Y-152886D01*
X152886Y-157341D02*
X153722Y-156506D01*
X151216Y-154557D02*
X153440Y-156781D01*
X150659Y-155114D02*
X152886Y-157341D01*
X150659Y-155114D02*
X151495Y-154278D01*
X153440Y-156781D02*
X156784Y-153443D01*
X151219Y-154560D02*
X154557Y-151216D01*
X-153703Y-156513D02*
X-151487Y-154297D01*
X-156775Y-153440D02*
X-153440Y-156775D01*
X-154560Y-151225D02*
X-151225Y-154560D01*
X-156513Y-153703D02*
X-154297Y-151487D01*
X-156775Y-153440D02*
X-154560Y-151225D01*
X-153440Y-156775D02*
X-151225Y-154560D01*
X-156784Y-153443D02*
X-154557Y-151216D01*
X-157341Y-152886D02*
X-156506Y-153722D01*
X-157341Y-152886D02*
X-155114Y-150659D01*
X-154278Y-151495D01*
X-151495Y-154278D02*
X-150659Y-155114D01*
X-153443Y-156784D02*
X-151219Y-154560D01*
X-152886Y-157341D02*
X-150659Y-155114D01*
X-153722Y-156506D02*
X-152886Y-157341D01*
X-154557Y-151216D02*
X-151219Y-154560D01*
X-156784Y-153443D02*
X-153440Y-156781D01*
X-153703Y156513D02*
X-151487Y154297D01*
X-154560Y151225D02*
X-151225Y154560D01*
X-156775Y153440D02*
X-153440Y156775D01*
X-156513Y153703D02*
X-154297Y151487D01*
X-156775Y153440D02*
X-154560Y151225D01*
X-153440Y156775D02*
X-151225Y154560D01*
X-156784Y153443D02*
X-154557Y151216D01*
X-155114Y150659D02*
X-154278Y151495D01*
X-157341Y152886D02*
X-155114Y150659D01*
X-157341Y152886D02*
X-156506Y153722D01*
X-153722Y156506D02*
X-152886Y157341D01*
X-153440Y156781D02*
X-151216Y154557D01*
X-152886Y157341D02*
X-150659Y155114D01*
X-151495Y154278D02*
X-150659Y155114D01*
X-156784Y153443D02*
X-153440Y156781D01*
X-154557Y151216D02*
X-151219Y154560D01*
X-17013Y-65567D02*
Y-62433D01*
X-21358D02*
X-16642D01*
X-21358Y-65567D02*
X-16642D01*
X-20987D02*
Y-62433D01*
X-21358Y-65567D02*
Y-62433D01*
X-16642Y-65567D02*
Y-62433D01*
X-21362Y-65575D02*
Y-62425D01*
X-22150D02*
X-20968D01*
X-22150Y-65575D02*
Y-62425D01*
Y-65575D02*
X-20968D01*
X-17031D02*
X-15850D01*
X-16638Y-65571D02*
Y-62425D01*
X-15850Y-65575D02*
Y-62425D01*
X-17031D02*
X-15850D01*
X-21362Y-65575D02*
X-16638Y-65571D01*
X-21362Y-62425D02*
X-16638Y-62429D01*
X15013Y-66567D02*
Y-63433D01*
X14642Y-66567D02*
X19358D01*
X14642Y-63433D02*
X19358D01*
X18987Y-66567D02*
Y-63433D01*
X19358Y-66567D02*
Y-63433D01*
X14642Y-66567D02*
Y-63433D01*
X19362Y-66575D02*
Y-63425D01*
X18969Y-66575D02*
X20150D01*
Y-63425D01*
X18969D02*
X20150D01*
X13850D02*
X15032D01*
X14638Y-66575D02*
Y-63429D01*
X13850Y-66575D02*
Y-63425D01*
Y-66575D02*
X15032D01*
X14638Y-63429D02*
X19362Y-63425D01*
X14638Y-66571D02*
X19362Y-66575D01*
X-89567Y-29013D02*
X-86433D01*
X-89567Y-33358D02*
Y-28642D01*
X-86433Y-33358D02*
Y-28642D01*
X-89567Y-32987D02*
X-86433D01*
X-89567Y-33358D02*
X-86433D01*
X-89567Y-28642D02*
X-86433D01*
X-89575Y-33362D02*
X-86425D01*
X-89575Y-34150D02*
Y-32969D01*
Y-34150D02*
X-86425D01*
Y-32969D01*
Y-29032D02*
Y-27850D01*
X-89575Y-28638D02*
X-86429D01*
X-89575Y-27850D02*
X-86425D01*
X-89575Y-29032D02*
Y-27850D01*
X-86429Y-28638D02*
X-86425Y-33362D01*
X-89575D02*
X-89571Y-28638D01*
X151487Y154297D02*
X153703Y156513D01*
X151225Y154560D02*
X154560Y151225D01*
X153440Y156775D02*
X156775Y153440D01*
X154297Y151487D02*
X156513Y153703D01*
X154560Y151225D02*
X156775Y153440D01*
X151225Y154560D02*
X153440Y156775D01*
X154557Y151216D02*
X156784Y153443D01*
X154278Y151495D02*
X155114Y150659D01*
X157341Y152886D01*
X156506Y153722D02*
X157341Y152886D01*
X152886Y157341D02*
X153722Y156506D01*
X151216Y154557D02*
X153440Y156781D01*
X150659Y155114D02*
X152886Y157341D01*
X150659Y155114D02*
X151495Y154278D01*
X153440Y156781D02*
X156784Y153443D01*
X151219Y154560D02*
X154557Y151216D01*
X-153703Y156513D02*
X-151487Y154297D01*
X-156775Y153440D02*
X-153440Y156775D01*
X-154560Y151225D02*
X-151225Y154560D01*
X-156513Y153703D02*
X-154297Y151487D01*
X-156775Y153440D02*
X-154560Y151225D01*
X-153440Y156775D02*
X-151225Y154560D01*
X-156784Y153443D02*
X-154557Y151216D01*
X-157341Y152886D02*
X-156506Y153722D01*
X-157341Y152886D02*
X-155114Y150659D01*
X-154278Y151495D01*
X-151495Y154278D02*
X-150659Y155114D01*
X-153443Y156784D02*
X-151219Y154560D01*
X-152886Y157341D02*
X-150659Y155114D01*
X-153722Y156506D02*
X-152886Y157341D01*
X-154557Y151216D02*
X-151219Y154560D01*
X-156784Y153443D02*
X-153440Y156781D01*
X-153703Y-156513D02*
X-151487Y-154297D01*
X-154560Y-151225D02*
X-151225Y-154560D01*
X-156775Y-153440D02*
X-153440Y-156775D01*
X-156513Y-153703D02*
X-154297Y-151487D01*
X-156775Y-153440D02*
X-154560Y-151225D01*
X-153440Y-156775D02*
X-151225Y-154560D01*
X-156784Y-153443D02*
X-154557Y-151216D01*
X-155114Y-150659D02*
X-154278Y-151495D01*
X-157341Y-152886D02*
X-155114Y-150659D01*
X-157341Y-152886D02*
X-156506Y-153722D01*
X-153722Y-156506D02*
X-152886Y-157341D01*
X-153440Y-156781D02*
X-151216Y-154557D01*
X-152886Y-157341D02*
X-150659Y-155114D01*
X-151495Y-154278D02*
X-150659Y-155114D01*
X-156784Y-153443D02*
X-153440Y-156781D01*
X-154557Y-151216D02*
X-151219Y-154560D01*
X151487Y-154297D02*
X153703Y-156513D01*
X153440Y-156775D02*
X156775Y-153440D01*
X151225Y-154560D02*
X154560Y-151225D01*
X154297Y-151487D02*
X156513Y-153703D01*
X154560Y-151225D02*
X156775Y-153440D01*
X151225Y-154560D02*
X153440Y-156775D01*
X154557Y-151216D02*
X156784Y-153443D01*
X156506Y-153722D02*
X157341Y-152886D01*
X155114Y-150659D02*
X157341Y-152886D01*
X154278Y-151495D02*
X155114Y-150659D01*
X150659Y-155114D02*
X151495Y-154278D01*
X151219Y-154560D02*
X153443Y-156784D01*
X150659Y-155114D02*
X152886Y-157341D01*
X153722Y-156506D01*
X151219Y-154560D02*
X154557Y-151216D01*
X153440Y-156781D02*
X156784Y-153443D01*
M02*
