G04 Layer_Color=128*
%FSLAX25Y25*%
%MOIN*%
G70*
G01*
G75*
%ADD14R,0.03937X0.04331*%
%ADD17R,0.03937X0.01969*%
%ADD27R,0.04331X0.03937*%
%ADD28P,0.04454X4X360.0*%
%ADD29P,0.04454X4X270.0*%
%ADD46R,0.07874X0.09843*%
%ADD47R,0.07874X0.05906*%
D14*
X-8000Y-70653D02*
D03*
Y-77346D02*
D03*
X-17000Y-77346D02*
D03*
Y-70653D02*
D03*
X-47000Y-94346D02*
D03*
Y-87653D02*
D03*
Y-74654D02*
D03*
Y-81346D02*
D03*
D17*
X-54551Y-87520D02*
D03*
Y-95000D02*
D03*
X-64000Y-91260D02*
D03*
Y-95000D02*
D03*
Y-87520D02*
D03*
D27*
X-31653Y-22000D02*
D03*
X-38346D02*
D03*
Y-16000D02*
D03*
X-31653D02*
D03*
X-38346Y-28000D02*
D03*
X-31654D02*
D03*
X-71653Y-99000D02*
D03*
X-78347D02*
D03*
X-71653Y-93000D02*
D03*
X-78347D02*
D03*
Y-87000D02*
D03*
X-71653D02*
D03*
X-91654Y-99000D02*
D03*
X-98347D02*
D03*
X-91654Y-106000D02*
D03*
X-98347D02*
D03*
D28*
X156366Y151634D02*
D03*
X151634Y156366D02*
D03*
X-156366Y-151634D02*
D03*
X-151634Y-156366D02*
D03*
D29*
X156366Y-151634D02*
D03*
X151634Y-156366D02*
D03*
X-156366Y151634D02*
D03*
X-151634Y156366D02*
D03*
D46*
X-55000Y-69000D02*
D03*
X-83000D02*
D03*
D47*
X-92000Y-79000D02*
D03*
Y-92779D02*
D03*
M02*
