G04 Layer_Color=32896*
%FSLAX25Y25*%
%MOIN*%
G70*
G01*
G75*
%ADD32C,0.01000*%
%ADD51C,0.00787*%
%ADD52C,0.00700*%
%ADD53C,0.00394*%
%ADD55C,0.00500*%
%ADD90C,0.00600*%
G36*
X128401Y140854D02*
X129240D01*
Y140288D01*
X128401D01*
Y139459D01*
X127839D01*
Y140288D01*
X127000D01*
Y140854D01*
X127839D01*
Y141684D01*
X128401D01*
Y140854D01*
D02*
G37*
G36*
X-127599D02*
X-126760D01*
Y140288D01*
X-127599D01*
Y139459D01*
X-128161D01*
Y140288D01*
X-129000D01*
Y140854D01*
X-128161D01*
Y141684D01*
X-127599D01*
Y140854D01*
D02*
G37*
G36*
Y-140146D02*
X-126760D01*
Y-140712D01*
X-127599D01*
Y-141541D01*
X-128161D01*
Y-140712D01*
X-129000D01*
Y-140146D01*
X-128161D01*
Y-139316D01*
X-127599D01*
Y-140146D01*
D02*
G37*
G36*
X127401D02*
X128240D01*
Y-140712D01*
X127401D01*
Y-141541D01*
X126839D01*
Y-140712D01*
X126000D01*
Y-140146D01*
X126839D01*
Y-139316D01*
X127401D01*
Y-140146D01*
D02*
G37*
G36*
X18401Y-83146D02*
X19240D01*
Y-83712D01*
X18401D01*
Y-84541D01*
X17839D01*
Y-83712D01*
X17000D01*
Y-83146D01*
X17839D01*
Y-82316D01*
X18401D01*
Y-83146D01*
D02*
G37*
D32*
X3937Y0D02*
G03*
X3937Y0I-3937J0D01*
G01*
X-49160Y-78500D02*
Y78980D01*
Y-78500D02*
X49266D01*
Y78980D01*
X-49160Y79000D02*
X49266D01*
X46500Y-93000D02*
Y-81000D01*
X20000Y-93000D02*
X46500D01*
X20000D02*
Y-81000D01*
X46500D01*
D51*
X-59000Y-83000D02*
G03*
X-55000Y-79000I0J4000D01*
G01*
X-83000D02*
G03*
X-79000Y-83000I4000J0D01*
G01*
Y-55000D02*
G03*
X-83000Y-59000I0J-4000D01*
G01*
X-55000D02*
G03*
X-59000Y-55000I-4000J0D01*
G01*
X-55000Y-79000D02*
Y-75000D01*
X-79000Y-83000D02*
X-59000D01*
X-55000Y-63000D02*
Y-59000D01*
X-79000Y-55000D02*
X-59000D01*
X-83000Y-79000D02*
Y-75000D01*
Y-63000D02*
Y-59000D01*
D52*
X-62425Y-97165D02*
X-56126D01*
X-62425Y-85354D02*
X-56126D01*
Y-97165D02*
Y-85354D01*
X-62425Y-97165D02*
Y-85354D01*
X-95937Y-83921D02*
X-92000Y-87858D01*
X-88063Y-83921D01*
X-95937Y-87858D02*
X-88063D01*
X-95937Y-83921D02*
X-88063D01*
D53*
X-41500Y-25000D02*
X-36000D01*
X-41500D02*
Y-19000D01*
X-36000D01*
X-34000Y-25000D02*
X-28500D01*
Y-19000D01*
X-34000D02*
X-28500D01*
X-41500Y-18500D02*
X-41000Y-19000D01*
X-36000D01*
X-41000Y-13000D02*
X-36000D01*
X-41500Y-13500D02*
X-41000Y-13000D01*
X-41500Y-18500D02*
Y-13500D01*
X-34000Y-13000D02*
X-29000D01*
X-28500Y-13500D01*
X-34000Y-19000D02*
X-29000D01*
X-28500Y-18500D01*
Y-13500D01*
X-34000Y-25000D02*
X-28500D01*
Y-31000D02*
Y-25000D01*
X-34000Y-31000D02*
X-28500D01*
X-41500Y-25000D02*
X-36000D01*
X-41500Y-31000D02*
Y-25000D01*
Y-31000D02*
X-36000D01*
X-81500Y-102000D02*
X-76000D01*
X-81500D02*
Y-96000D01*
X-76000D01*
X-74000Y-102000D02*
X-68500D01*
Y-96000D01*
X-74000D02*
X-68500D01*
X-69000Y-90000D02*
X-68500Y-90500D01*
X-74000Y-90000D02*
X-69000D01*
X-74000Y-96000D02*
X-69000D01*
X-68500Y-95500D01*
Y-90500D01*
X-81000Y-96000D02*
X-76000D01*
X-81500Y-95500D02*
X-81000Y-96000D01*
Y-90000D02*
X-76000D01*
X-81500Y-90500D02*
X-81000Y-90000D01*
X-81500Y-95500D02*
Y-90500D01*
X-74000Y-84000D02*
X-68500D01*
Y-90000D02*
Y-84000D01*
X-74000Y-90000D02*
X-68500D01*
X-81500Y-84000D02*
X-76000D01*
X-81500Y-90000D02*
Y-84000D01*
Y-90000D02*
X-76000D01*
X-5000Y-80500D02*
Y-75000D01*
X-11000Y-80500D02*
X-5000D01*
X-11000D02*
Y-75000D01*
X-5000Y-73000D02*
Y-67500D01*
X-11000D02*
X-5000D01*
X-11000Y-73000D02*
Y-67500D01*
X-20000Y-73000D02*
Y-67500D01*
X-14000D01*
Y-73000D02*
Y-67500D01*
X-20000Y-80500D02*
Y-75000D01*
Y-80500D02*
X-14000D01*
Y-75000D01*
X-89000Y-96000D02*
X-88500Y-96500D01*
X-94000Y-96000D02*
X-89000D01*
X-94000Y-102000D02*
X-89000D01*
X-88500Y-101500D01*
Y-96500D01*
X-101000Y-102000D02*
X-96000D01*
X-101500Y-101500D02*
X-101000Y-102000D01*
Y-96000D02*
X-96000D01*
X-101500Y-96500D02*
X-101000Y-96000D01*
X-101500Y-101500D02*
Y-96500D01*
X-89000Y-103000D02*
X-88500Y-103500D01*
X-94000Y-103000D02*
X-89000D01*
X-94000Y-109000D02*
X-89000D01*
X-88500Y-108500D01*
Y-103500D01*
X-101000Y-109000D02*
X-96000D01*
X-101500Y-108500D02*
X-101000Y-109000D01*
Y-103000D02*
X-96000D01*
X-101500Y-103500D02*
X-101000Y-103000D01*
X-101500Y-108500D02*
Y-103500D01*
X-44500Y-97500D02*
X-44000Y-97000D01*
Y-92000D01*
X-50000Y-97000D02*
Y-92000D01*
Y-97000D02*
X-49500Y-97500D01*
X-44500D01*
X-50000Y-90000D02*
Y-85000D01*
X-49500Y-84500D01*
X-44000Y-90000D02*
Y-85000D01*
X-44500Y-84500D02*
X-44000Y-85000D01*
X-49500Y-84500D02*
X-44500D01*
X-50000Y-72000D02*
X-49500Y-71500D01*
X-50000Y-77000D02*
Y-72000D01*
X-44000Y-77000D02*
Y-72000D01*
X-44500Y-71500D02*
X-44000Y-72000D01*
X-49500Y-71500D02*
X-44500D01*
X-44000Y-84000D02*
Y-79000D01*
X-44500Y-84500D02*
X-44000Y-84000D01*
X-50000D02*
Y-79000D01*
Y-84000D02*
X-49500Y-84500D01*
X-44500D01*
D55*
X157689Y148363D02*
X159637Y150311D01*
X147806Y156436D02*
X150868Y153374D01*
X151564Y160194D02*
X154626Y157132D01*
X147806Y156436D02*
X151564Y160194D01*
X153374Y150868D02*
X155879Y148363D01*
X157132Y154626D02*
X159637Y152121D01*
Y151007D02*
Y152121D01*
Y150311D02*
Y151146D01*
X156714Y148363D02*
X157689D01*
X156993D02*
X159637Y151007D01*
X155879Y148363D02*
X156993D01*
X157689Y-148363D02*
X159637Y-150311D01*
X151564Y-160194D02*
X154626Y-157132D01*
X147806Y-156436D02*
X150868Y-153374D01*
X147806Y-156436D02*
X151564Y-160194D01*
X157132Y-154626D02*
X159637Y-152121D01*
X153374Y-150868D02*
X155879Y-148363D01*
X156993D01*
X156853D02*
X157689D01*
X159637Y-151286D02*
Y-150311D01*
X156993Y-148363D02*
X159637Y-151007D01*
Y-152121D02*
Y-151007D01*
X-159637Y-150311D02*
X-157689Y-148363D01*
X-150868Y-153374D02*
X-147806Y-156436D01*
X-154626Y-157132D02*
X-151564Y-160194D01*
X-147806Y-156436D01*
X-155879Y-148363D02*
X-153374Y-150868D01*
X-159637Y-152121D02*
X-157132Y-154626D01*
X-159637Y-152121D02*
Y-151007D01*
Y-151146D02*
Y-150311D01*
X-157689Y-148363D02*
X-156714D01*
X-159637Y-151007D02*
X-156993Y-148363D01*
X-155879D01*
X-159637Y150311D02*
X-157689Y148363D01*
X-154626Y157132D02*
X-151564Y160194D01*
X-150868Y153374D02*
X-147806Y156436D01*
X-151564Y160194D02*
X-147806Y156436D01*
X-159637Y152121D02*
X-157132Y154626D01*
X-155879Y148363D02*
X-153374Y150868D01*
X-156993Y148363D02*
X-155879D01*
X-157689D02*
X-156853D01*
X-159637Y150311D02*
Y151286D01*
Y151007D02*
X-156993Y148363D01*
X-159637Y151007D02*
Y152121D01*
X-4000Y-66000D02*
Y-63001D01*
X-5500D01*
X-5999Y-63501D01*
Y-64500D01*
X-5500Y-65000D01*
X-4000D01*
X-5000D02*
X-5999Y-66000D01*
X-6999D02*
X-7999D01*
X-7499D01*
Y-63001D01*
X-6999Y-63501D01*
X-10998Y-66000D02*
Y-63001D01*
X-9498Y-64500D01*
X-11498D01*
X-45000Y-31000D02*
X-42001D01*
Y-29500D01*
X-42501Y-29001D01*
X-43501D01*
X-44000Y-29500D01*
Y-31000D01*
Y-30000D02*
X-45000Y-29001D01*
X-42001Y-26002D02*
X-42501Y-27001D01*
X-43501Y-28001D01*
X-44500D01*
X-45000Y-27501D01*
Y-26501D01*
X-44500Y-26002D01*
X-44000D01*
X-43501Y-26501D01*
Y-28001D01*
X-45000Y-24000D02*
X-42001D01*
Y-22501D01*
X-42501Y-22001D01*
X-43501D01*
X-44000Y-22501D01*
Y-24000D01*
Y-23000D02*
X-45000Y-22001D01*
X-42001Y-19002D02*
Y-21001D01*
X-43501D01*
X-43001Y-20001D01*
Y-19501D01*
X-43501Y-19002D01*
X-44500D01*
X-45000Y-19501D01*
Y-20501D01*
X-44500Y-21001D01*
X-83000Y-97000D02*
X-85999D01*
Y-98500D01*
X-85499Y-98999D01*
X-84500D01*
X-84000Y-98500D01*
Y-97000D01*
Y-98000D02*
X-83000Y-98999D01*
Y-101499D02*
X-85999D01*
X-84500Y-99999D01*
Y-101998D01*
X-83000Y-84000D02*
X-85999D01*
Y-85500D01*
X-85499Y-85999D01*
X-84500D01*
X-84000Y-85500D01*
Y-84000D01*
Y-85000D02*
X-83000Y-85999D01*
X-85499Y-86999D02*
X-85999Y-87499D01*
Y-88499D01*
X-85499Y-88998D01*
X-84999D01*
X-84500Y-88499D01*
Y-87999D01*
Y-88499D01*
X-84000Y-88998D01*
X-83500D01*
X-83000Y-88499D01*
Y-87499D01*
X-83500Y-86999D01*
X165121Y153121D02*
X163000Y151000D01*
X161586Y152414D01*
Y156655D02*
X163000Y155241D01*
X160879Y153121D01*
X159466Y154534D01*
X161940Y154181D02*
X161233Y154888D01*
X160879Y157362D02*
X158759Y155241D01*
X157698Y156302D01*
X157698Y157009D01*
X159112Y158422D01*
X159819D01*
X160879Y157362D01*
X156285Y157009D02*
X154871Y158422D01*
X156638Y161603D02*
X154517Y159483D01*
X153457Y160543D01*
X153457Y161250D01*
X153811Y161603D01*
X154517Y161603D01*
X155578Y160543D01*
X154517Y161603D01*
Y162310D01*
X154871Y162663D01*
X155578D01*
X156638Y161603D01*
X154517Y163724D02*
X152397Y161603D01*
X151337Y162663D01*
Y163370D01*
X152750Y164784D01*
X153457Y164784D01*
X154517Y163724D01*
X152121Y-165121D02*
X150000Y-163000D01*
X151414Y-161586D01*
X155655D02*
X154241Y-163000D01*
X152121Y-160879D01*
X153534Y-159466D01*
X153181Y-161940D02*
X153888Y-161233D01*
X156362Y-160879D02*
X154241Y-158759D01*
X155302Y-157698D01*
X156009Y-157698D01*
X157422Y-159112D01*
Y-159819D01*
X156362Y-160879D01*
X156009Y-156285D02*
X157422Y-154871D01*
X160603Y-156638D02*
X158483Y-154517D01*
X159543Y-153457D01*
X160250Y-153457D01*
X160603Y-153811D01*
X160603Y-154517D01*
X159543Y-155578D01*
X160603Y-154517D01*
X161310D01*
X161663Y-154871D01*
Y-155578D01*
X160603Y-156638D01*
X163784Y-152750D02*
X163784Y-153457D01*
X163077Y-154164D01*
X162370D01*
X160957Y-152750D01*
Y-152043D01*
X161663Y-151337D01*
X162370D01*
X-164121Y-152121D02*
X-162000Y-150000D01*
X-160586Y-151414D01*
Y-155655D02*
X-162000Y-154241D01*
X-159879Y-152121D01*
X-158466Y-153534D01*
X-160940Y-153181D02*
X-160233Y-153888D01*
X-159879Y-156362D02*
X-157759Y-154241D01*
X-156698Y-155302D01*
X-156698Y-156009D01*
X-158112Y-157422D01*
X-158819D01*
X-159879Y-156362D01*
X-155285Y-156009D02*
X-153871Y-157422D01*
X-155638Y-160603D02*
X-153517Y-158483D01*
X-152457Y-159543D01*
X-152457Y-160250D01*
X-152811Y-160603D01*
X-153517Y-160603D01*
X-154578Y-159543D01*
X-153517Y-160603D01*
Y-161310D01*
X-153871Y-161663D01*
X-154578D01*
X-155638Y-160603D01*
X-153517Y-162724D02*
X-151397Y-160603D01*
X-150337Y-161663D01*
Y-162370D01*
X-150690Y-162724D01*
X-151397D01*
X-152457Y-161663D01*
X-151397Y-162724D01*
Y-163431D01*
X-151750Y-163784D01*
X-152457Y-163784D01*
X-153517Y-162724D01*
X-153121Y165121D02*
X-151000Y163000D01*
X-152414Y161586D01*
X-156655D02*
X-155241Y163000D01*
X-153121Y160879D01*
X-154534Y159466D01*
X-154181Y161940D02*
X-154888Y161233D01*
X-157362Y160879D02*
X-155241Y158759D01*
X-156302Y157698D01*
X-157009Y157698D01*
X-158422Y159112D01*
Y159819D01*
X-157362Y160879D01*
X-157009Y156285D02*
X-158422Y154871D01*
X-161603Y156638D02*
X-159483Y154517D01*
X-160543Y153457D01*
X-161250Y153457D01*
X-161603Y153811D01*
X-161603Y154517D01*
X-160543Y155578D01*
X-161603Y154517D01*
X-162310D01*
X-162663Y154871D01*
Y155578D01*
X-161603Y156638D01*
Y152397D02*
X-163017Y153811D01*
X-164431D01*
X-164431Y152397D01*
X-163017Y150983D01*
X-164077Y152043D01*
X-162663Y153457D01*
X-100999Y-79000D02*
X-98000D01*
Y-80500D01*
X-98500Y-80999D01*
X-100499D01*
X-100999Y-80500D01*
Y-79000D01*
X-98000Y-81999D02*
Y-82999D01*
Y-82499D01*
X-100999D01*
X-100499Y-81999D01*
X-42501Y-16001D02*
X-42001Y-16500D01*
Y-17500D01*
X-42501Y-18000D01*
X-44500D01*
X-45000Y-17500D01*
Y-16500D01*
X-44500Y-16001D01*
X-42501Y-15001D02*
X-42001Y-14501D01*
Y-13501D01*
X-42501Y-13002D01*
X-43001D01*
X-43501Y-13501D01*
X-44000Y-13002D01*
X-44500D01*
X-45000Y-13501D01*
Y-14501D01*
X-44500Y-15001D01*
X-44000D01*
X-43501Y-14501D01*
X-43001Y-15001D01*
X-42501D01*
X-43501Y-14501D02*
Y-13501D01*
X-40501Y-91001D02*
X-40001Y-91501D01*
Y-92500D01*
X-40501Y-93000D01*
X-42500D01*
X-43000Y-92500D01*
Y-91501D01*
X-42500Y-91001D01*
X-40001Y-88002D02*
Y-90001D01*
X-41500D01*
X-41001Y-89001D01*
Y-88501D01*
X-41500Y-88002D01*
X-42500D01*
X-43000Y-88501D01*
Y-89501D01*
X-42500Y-90001D01*
X-41501Y-79501D02*
X-41001Y-80001D01*
Y-81000D01*
X-41501Y-81500D01*
X-43500D01*
X-44000Y-81000D01*
Y-80001D01*
X-43500Y-79501D01*
X-44000Y-77001D02*
X-41001D01*
X-42500Y-78501D01*
Y-76502D01*
X-85499Y-92999D02*
X-85999Y-92500D01*
Y-91500D01*
X-85499Y-91000D01*
X-83500D01*
X-83000Y-91500D01*
Y-92500D01*
X-83500Y-92999D01*
X-85499Y-93999D02*
X-85999Y-94499D01*
Y-95499D01*
X-85499Y-95998D01*
X-84999D01*
X-84500Y-95499D01*
Y-94999D01*
Y-95499D01*
X-84000Y-95998D01*
X-83500D01*
X-83000Y-95499D01*
Y-94499D01*
X-83500Y-93999D01*
X-104499Y-98999D02*
X-104999Y-98500D01*
Y-97500D01*
X-104499Y-97000D01*
X-102500D01*
X-102000Y-97500D01*
Y-98500D01*
X-102500Y-98999D01*
X-102000Y-101998D02*
Y-99999D01*
X-103999Y-101998D01*
X-104499D01*
X-104999Y-101499D01*
Y-100499D01*
X-104499Y-99999D01*
Y-105999D02*
X-104999Y-105499D01*
Y-104500D01*
X-104499Y-104000D01*
X-102500D01*
X-102000Y-104500D01*
Y-105499D01*
X-102500Y-105999D01*
X-102000Y-106999D02*
Y-107999D01*
Y-107499D01*
X-104999D01*
X-104499Y-106999D01*
X125500Y136500D02*
X123379Y134379D01*
X124793D01*
X124793Y132966D01*
X126914Y135086D01*
X127974Y134026D02*
X128681Y133319D01*
X128681Y132612D01*
X127974Y131905D01*
X127267D01*
X126560Y132612D01*
X126560Y133319D01*
X127267Y134026D01*
X127974D01*
X128328Y130138D02*
X128681Y130491D01*
X128328Y130845D01*
X129034Y130138D01*
X128681Y130491D01*
X129741Y131552D01*
X130448D01*
X131862Y130138D02*
X132569Y129431D01*
Y128724D01*
X131862Y128017D01*
X131155D01*
X130448Y128724D01*
X130448Y129431D01*
X131155Y130138D01*
X131862D01*
X132215Y126957D02*
X133629Y128371D01*
X132922Y127664D01*
Y126957D01*
Y126250D01*
X133276Y125897D01*
X133629Y124130D02*
X135750Y126250D01*
X136810Y125190D01*
Y124483D01*
X135396Y123069D01*
X134689Y123069D01*
X133629Y124130D01*
X136500Y-124500D02*
X134379Y-122379D01*
Y-123793D01*
X132966Y-123793D01*
X135086Y-125914D01*
X134026Y-126974D02*
X133319Y-127681D01*
X132612Y-127681D01*
X131905Y-126974D01*
Y-126267D01*
X132612Y-125560D01*
X133319Y-125560D01*
X134026Y-126267D01*
Y-126974D01*
X130138Y-127328D02*
X130491Y-127681D01*
X130845Y-127328D01*
X130138Y-128034D01*
X130491Y-127681D01*
X131552Y-128741D01*
Y-129448D01*
X130138Y-130862D02*
X129431Y-131569D01*
X128724D01*
X128017Y-130862D01*
Y-130155D01*
X128724Y-129448D01*
X129431Y-129448D01*
X130138Y-130155D01*
Y-130862D01*
X126957Y-131215D02*
X128371Y-132629D01*
X127664Y-131922D01*
X126957D01*
X126250D01*
X125897Y-132276D01*
X123069Y-134396D02*
X123069Y-133689D01*
X123776Y-132983D01*
X124483D01*
X125897Y-134396D01*
Y-135103D01*
X125190Y-135810D01*
X124483D01*
X-125500Y-135500D02*
X-123379Y-133379D01*
X-124793D01*
X-124793Y-131966D01*
X-126914Y-134086D01*
X-127974Y-133026D02*
X-128681Y-132319D01*
X-128681Y-131612D01*
X-127974Y-130905D01*
X-127267D01*
X-126560Y-131612D01*
X-126560Y-132319D01*
X-127267Y-133026D01*
X-127974D01*
X-128328Y-129138D02*
X-128681Y-129491D01*
X-128328Y-129845D01*
X-129034Y-129138D01*
X-128681Y-129491D01*
X-129741Y-130552D01*
X-130448D01*
X-131862Y-129138D02*
X-132569Y-128431D01*
Y-127724D01*
X-131862Y-127017D01*
X-131155D01*
X-130448Y-127724D01*
X-130448Y-128431D01*
X-131155Y-129138D01*
X-131862D01*
X-132215Y-125957D02*
X-133629Y-127371D01*
X-132922Y-126664D01*
Y-125957D01*
Y-125250D01*
X-133276Y-124897D01*
X-133629Y-123130D02*
X-135750Y-125250D01*
X-136810Y-124190D01*
Y-123483D01*
X-136457Y-123130D01*
X-135750D01*
X-134689Y-124190D01*
X-135750Y-123130D01*
Y-122423D01*
X-135396Y-122069D01*
X-134689Y-122069D01*
X-133629Y-123130D01*
X-136500Y124500D02*
X-134379Y122379D01*
Y123793D01*
X-132966Y123793D01*
X-135086Y125914D01*
X-134026Y126974D02*
X-133319Y127681D01*
X-132612Y127681D01*
X-131905Y126974D01*
Y126267D01*
X-132612Y125560D01*
X-133319Y125560D01*
X-134026Y126267D01*
Y126974D01*
X-130138Y127328D02*
X-130491Y127681D01*
X-130845Y127328D01*
X-130138Y128034D01*
X-130491Y127681D01*
X-131552Y128741D01*
Y129448D01*
X-130138Y130862D02*
X-129431Y131569D01*
X-128724D01*
X-128017Y130862D01*
Y130155D01*
X-128724Y129448D01*
X-129431Y129448D01*
X-130138Y130155D01*
Y130862D01*
X-126957Y131215D02*
X-128371Y132629D01*
X-127664Y131922D01*
X-126957D01*
X-126250D01*
X-125897Y132276D01*
X-126250Y134750D02*
X-124837Y133336D01*
X-123423D01*
X-123423Y134750D01*
X-124837Y136163D01*
X-123776Y135103D01*
X-125190Y133689D01*
X-51137Y-49141D02*
Y-52140D01*
X-53136D01*
X-54136D02*
X-55136D01*
X-54636D01*
Y-49141D01*
X-54136Y-49641D01*
D90*
X132147Y-142010D02*
X142046Y-132111D01*
X136389Y-126454D02*
X142046Y-132111D01*
X126490Y-136354D02*
X136389Y-126454D01*
X126490Y-136354D02*
X132147Y-142010D01*
X-136389Y-126454D02*
X-126490Y-136354D01*
X-142046Y-132111D02*
X-136389Y-126454D01*
X-142046Y-132111D02*
X-132147Y-142010D01*
X-126490Y-136354D01*
X126490Y136354D02*
X136389Y126454D01*
X142046Y132111D01*
X132147Y142010D02*
X142046Y132111D01*
X126490Y136354D02*
X132147Y142010D01*
X-142046Y132111D02*
X-132147Y142010D01*
X-142046Y132111D02*
X-136389Y126454D01*
X-126490Y136354D01*
X-132147Y142010D02*
X-126490Y136354D01*
M02*
