G04 Layer_Color=8388736*
%FSLAX25Y25*%
%MOIN*%
G70*
G01*
G75*
%ADD92C,0.00300*%
D92*
X147806Y156436D02*
X151564Y160194D01*
X160194Y151564D01*
X156436Y147806D02*
X160194Y151564D01*
X147806Y156436D02*
X156436Y147806D01*
X147806Y-156436D02*
X151564Y-160194D01*
X147806Y-156436D02*
X156436Y-147806D01*
X160194Y-151564D01*
X151564Y-160194D02*
X160194Y-151564D01*
X-151564Y-160194D02*
X-147806Y-156436D01*
X-160194Y-151564D02*
X-151564Y-160194D01*
X-160194Y-151564D02*
X-156436Y-147806D01*
X-147806Y-156436D01*
X-151564Y160194D02*
X-147806Y156436D01*
X-156436Y147806D02*
X-147806Y156436D01*
X-160194Y151564D02*
X-156436Y147806D01*
X-160194Y151564D02*
X-151564Y160194D01*
X-12898Y-66658D02*
Y-61343D01*
X-25102D02*
X-12898D01*
X-25102Y-66658D02*
Y-61343D01*
Y-66658D02*
X-12898D01*
X10898Y-67658D02*
Y-62343D01*
Y-67658D02*
X23102D01*
Y-62343D01*
X10898D02*
X23102D01*
X-90658Y-24898D02*
X-85343D01*
X-90658Y-37102D02*
Y-24898D01*
Y-37102D02*
X-85343D01*
Y-24898D01*
X147806Y156436D02*
X151564Y160194D01*
X147806Y156436D02*
X156436Y147806D01*
X160194Y151564D01*
X151564Y160194D02*
X160194Y151564D01*
X-151564Y160194D02*
X-147806Y156436D01*
X-160194Y151564D02*
X-151564Y160194D01*
X-160194Y151564D02*
X-156436Y147806D01*
X-147806Y156436D01*
X-151564Y-160194D02*
X-147806Y-156436D01*
X-156436Y-147806D02*
X-147806Y-156436D01*
X-160194Y-151564D02*
X-156436Y-147806D01*
X-160194Y-151564D02*
X-151564Y-160194D01*
X147806Y-156436D02*
X151564Y-160194D01*
X160194Y-151564D01*
X156436Y-147806D02*
X160194Y-151564D01*
X147806Y-156436D02*
X156436Y-147806D01*
M02*
