G04 Layer_Color=255*
%FSLAX25Y25*%
%MOIN*%
G70*
G01*
G75*
%ADD14R,0.03937X0.04331*%
%ADD17R,0.03937X0.01969*%
%ADD27R,0.04331X0.03937*%
%ADD28P,0.04454X4X360.0*%
%ADD29P,0.04454X4X270.0*%
%ADD35C,0.03937*%
%ADD36R,0.05906X0.05906*%
%ADD37C,0.05906*%
%ADD38R,0.05906X0.05906*%
%ADD39C,0.06000*%
%ADD40C,0.06000*%
%ADD41C,0.10000*%
%ADD46R,0.07874X0.09843*%
%ADD47R,0.07874X0.05906*%
D14*
X-8000Y-70653D02*
D03*
Y-77346D02*
D03*
X-17000Y-77346D02*
D03*
Y-70653D02*
D03*
X-47000Y-94346D02*
D03*
Y-87653D02*
D03*
Y-74654D02*
D03*
Y-81346D02*
D03*
D17*
X-54551Y-87520D02*
D03*
Y-95000D02*
D03*
X-64000Y-91260D02*
D03*
Y-95000D02*
D03*
Y-87520D02*
D03*
D27*
X-31653Y-22000D02*
D03*
X-38346D02*
D03*
Y-16000D02*
D03*
X-31653D02*
D03*
X-38346Y-28000D02*
D03*
X-31654D02*
D03*
X-71653Y-99000D02*
D03*
X-78347D02*
D03*
X-71653Y-93000D02*
D03*
X-78347D02*
D03*
Y-87000D02*
D03*
X-71653D02*
D03*
X-91654Y-99000D02*
D03*
X-98347D02*
D03*
X-91654Y-106000D02*
D03*
X-98347D02*
D03*
D28*
X156366Y151634D02*
D03*
X151634Y156366D02*
D03*
X-156366Y-151634D02*
D03*
X-151634Y-156366D02*
D03*
D29*
X156366Y-151634D02*
D03*
X151634Y-156366D02*
D03*
X-156366Y151634D02*
D03*
X-151634Y156366D02*
D03*
D35*
X135980Y-132520D02*
D03*
X132500Y-136000D02*
D03*
X-135980Y-132520D02*
D03*
X-132500Y-136000D02*
D03*
X135980Y132520D02*
D03*
X132500Y136000D02*
D03*
X-135980Y132520D02*
D03*
X-132500Y136000D02*
D03*
D36*
X61000Y85000D02*
D03*
D37*
X51000D02*
D03*
X41000D02*
D03*
X31000D02*
D03*
X21000D02*
D03*
X11000D02*
D03*
X1000D02*
D03*
X-9000D02*
D03*
X57000Y-63000D02*
D03*
Y-73000D02*
D03*
Y-83000D02*
D03*
D38*
Y-93000D02*
D03*
D39*
X-38000Y-84874D02*
D03*
Y-77000D02*
D03*
Y-69126D02*
D03*
D40*
X103000Y0D02*
D03*
X-103000D02*
D03*
X-173000Y173000D02*
D03*
X173000D02*
D03*
X-173000Y-173000D02*
D03*
X173000D02*
D03*
D41*
X27000Y-87000D02*
D03*
X39500D02*
D03*
D46*
X-55000Y-69000D02*
D03*
X-83000D02*
D03*
D47*
X-92000Y-79000D02*
D03*
Y-92779D02*
D03*
M02*
